<svg width="274" height="2" viewBox="0 0 274 2" fill="none" xmlns="http://www.w3.org/2000/svg">
<path fill-rule="evenodd" clip-rule="evenodd" d="M0.25 1C0.25 0.585786 0.585786 0.25 1 0.25H5.85714C6.27136 0.25 6.60714 0.585786 6.60714 1C6.60714 1.41421 6.27136 1.75 5.85714 1.75H1C0.585786 1.75 0.25 1.41421 0.25 1ZM14.8214 1C14.8214 0.585786 15.1572 0.25 15.5714 0.25H25.2857C25.6999 0.25 26.0357 0.585786 26.0357 1C26.0357 1.41421 25.6999 1.75 25.2857 1.75H15.5714C15.1572 1.75 14.8214 1.41421 14.8214 1ZM34.25 1C34.25 0.585786 34.5858 0.25 35 0.25H44.7143C45.1285 0.25 45.4643 0.585786 45.4643 1C45.4643 1.41421 45.1285 1.75 44.7143 1.75H35C34.5858 1.75 34.25 1.41421 34.25 1ZM53.6786 1C53.6786 0.585786 54.0144 0.25 54.4286 0.25H64.1429C64.5571 0.25 64.8929 0.585786 64.8929 1C64.8929 1.41421 64.5571 1.75 64.1429 1.75H54.4286C54.0144 1.75 53.6786 1.41421 53.6786 1ZM73.1071 1C73.1071 0.585786 73.4429 0.25 73.8571 0.25H83.5714C83.9856 0.25 84.3214 0.585786 84.3214 1C84.3214 1.41421 83.9856 1.75 83.5714 1.75H73.8571C73.4429 1.75 73.1071 1.41421 73.1071 1ZM92.5357 1C92.5357 0.585786 92.8715 0.25 93.2857 0.25H103C103.414 0.25 103.75 0.585786 103.75 1C103.75 1.41421 103.414 1.75 103 1.75H93.2857C92.8715 1.75 92.5357 1.41421 92.5357 1ZM111.964 1C111.964 0.585786 112.3 0.25 112.714 0.25H122.429C122.843 0.25 123.179 0.585786 123.179 1C123.179 1.41421 122.843 1.75 122.429 1.75H112.714C112.3 1.75 111.964 1.41421 111.964 1ZM131.393 1C131.393 0.585786 131.729 0.25 132.143 0.25H141.857C142.271 0.25 142.607 0.585786 142.607 1C142.607 1.41421 142.271 1.75 141.857 1.75H132.143C131.729 1.75 131.393 1.41421 131.393 1ZM150.821 1C150.821 0.585786 151.157 0.25 151.571 0.25H161.286C161.7 0.25 162.036 0.585786 162.036 1C162.036 1.41421 161.7 1.75 161.286 1.75H151.571C151.157 1.75 150.821 1.41421 150.821 1ZM170.25 1C170.25 0.585786 170.586 0.25 171 0.25H180.714C181.128 0.25 181.464 0.585786 181.464 1C181.464 1.41421 181.128 1.75 180.714 1.75H171C170.586 1.75 170.25 1.41421 170.25 1ZM189.679 1C189.679 0.585786 190.014 0.25 190.429 0.25H200.143C200.557 0.25 200.893 0.585786 200.893 1C200.893 1.41421 200.557 1.75 200.143 1.75H190.429C190.014 1.75 189.679 1.41421 189.679 1ZM209.107 1C209.107 0.585786 209.443 0.25 209.857 0.25H219.571C219.986 0.25 220.321 0.585786 220.321 1C220.321 1.41421 219.986 1.75 219.571 1.75H209.857C209.443 1.75 209.107 1.41421 209.107 1ZM228.536 1C228.536 0.585786 228.871 0.25 229.286 0.25H239C239.414 0.25 239.75 0.585786 239.75 1C239.75 1.41421 239.414 1.75 239 1.75H229.286C228.871 1.75 228.536 1.41421 228.536 1ZM247.964 1C247.964 0.585786 248.3 0.25 248.714 0.25H258.428C258.843 0.25 259.178 0.585786 259.178 1C259.178 1.41421 258.843 1.75 258.428 1.75H248.714C248.3 1.75 247.964 1.41421 247.964 1ZM267.393 1C267.393 0.585786 267.729 0.25 268.143 0.25H273C273.414 0.25 273.75 0.585786 273.75 1C273.75 1.41421 273.414 1.75 273 1.75H268.143C267.729 1.75 267.393 1.41421 267.393 1Z" fill="#C9DBE9"/>
</svg>
