<svg width="200" height="46" viewBox="0 0 200 46" fill="none" xmlns="http://www.w3.org/2000/svg">
<path d="M58.4671 33.1589H65.6525C68.9055 33.1589 71.4785 31.6094 71.4785 28.0928C71.4785 24.5761 69.0996 23.125 65.6525 23.125H61.0645V18.9689H69.3179V16.4606H58.4668L58.4671 33.1589ZM61.0648 30.6506V25.5106H65.4584C66.8178 25.5106 68.687 25.8056 68.687 28.0436C68.687 30.2817 66.8178 30.6506 65.4584 30.6506H61.0648ZM77.2804 30.6506V25.5106H84.7573V23.002H77.2804V18.9686H86.6749V16.4603H74.6344V33.1586H86.8205V30.6503L77.2804 30.6506ZM88.5441 33.1589H91.6271L94.1274 27.06L97.186 19.7806L100.22 27.06L102.721 33.1589H105.804L98.5696 16.4606H95.7778L88.5441 33.1589ZM108.498 33.1589H115.684C118.936 33.1589 121.51 31.6094 121.51 28.0928C121.51 24.5761 119.131 23.125 115.684 23.125H111.144V16.4606H108.498V33.1589ZM122.724 33.1589H125.369V16.4606H122.724V33.1589ZM111.096 30.6506V25.5106H115.49C116.849 25.5106 118.718 25.8056 118.718 28.0436C118.718 30.2817 116.849 30.6506 115.49 30.6506H111.096ZM154.426 33.1589H157.145V25.1173L165.374 33.1589H168.943L159.912 24.1581L168.336 16.4606H164.792L157.145 23.3956V16.4606H154.426V33.1589ZM174.308 33.528C176.735 33.528 177.682 32.5197 178.993 29.2489L184.09 16.4609H181.178C181.178 16.4609 179.114 21.9942 177.439 26.1995L172.608 16.4609H169.622L176.322 29.2489C176.007 30.0358 175.643 30.995 174.04 30.995C172.729 30.995 171.613 30.0606 171.613 30.0606V32.5936C171.613 32.5936 172.827 33.528 174.308 33.528ZM186.761 33.1589H193.946C197.199 33.1589 199.772 31.6094 199.772 28.0928C199.772 24.5761 197.393 23.125 193.946 23.125H189.358V18.9689H197.612V16.4606H186.761V33.1589ZM189.358 30.6506V25.5106H193.752C195.111 25.5106 196.98 25.8056 196.98 28.0436C196.98 30.2817 195.111 30.6506 193.752 30.6506H189.358Z" fill="white"/>
<path d="M129.739 33.1589H132.579L141.124 20.2726V33.1589H143.745V16.4606H140.881L132.36 29.1258V16.4606H129.739V33.1589Z" fill="white"/>
<path d="M140.499 12.4702H132.985V15.1263H140.499V12.4702Z" fill="white"/>
<path fill-rule="evenodd" clip-rule="evenodd" d="M33.7048 6.58305V19.722L28.0694 16.4441L22.4611 13.139L16.8525 16.4441L11.2441 19.722V6.58305L16.8525 3.27767L22.4611 0L28.0694 3.27767L33.7048 6.58305Z" fill="#464E63"/>
<path fill-rule="evenodd" clip-rule="evenodd" d="M44.9216 26.2781V39.4445L39.313 42.7225L33.7047 46.0001L28.0693 42.7225L22.4609 39.4445L28.0693 36.1391L33.7047 32.8611V19.7222L39.313 23.0001L44.9216 26.2781Z" fill="#FF6600"/>
<path fill-rule="evenodd" clip-rule="evenodd" d="M22.4607 39.4445L16.8521 42.7225L11.2437 46.0001L5.60833 42.7225L0 39.4445V26.2781L5.60833 23.0001L11.2437 19.7222V32.8611L16.8521 36.1391L22.4607 39.4445Z" fill="#316EE8"/>
<path fill-rule="evenodd" clip-rule="evenodd" d="M33.7046 32.8615V19.7222L28.0692 16.4445L22.4608 13.1392L16.8522 16.4445L11.2168 19.7222V32.8615L16.8522 29.5835L22.4608 26.3056L28.0692 29.5835L33.7046 32.8615Z" fill="#E6E6E6"/>
<path fill-rule="evenodd" clip-rule="evenodd" d="M33.7046 19.7222V32.8612L28.0692 36.1391L22.4608 39.4445L16.8522 36.1391L11.2168 32.8612V19.7222L16.8522 23.0001L22.4608 26.2781L28.0692 23.0001L33.7046 19.7222Z" fill="white"/>
</svg>
