<svg width="99" height="87" viewBox="0 0 99 87" fill="none" xmlns="http://www.w3.org/2000/svg">
<path d="M0.0341678 52.0047C0.0341678 47.5404 0.059733 43.0761 0.0171244 38.6117C0.0057621 37.4856 0.369355 36.7854 1.36924 36.2024C21.7617 24.3184 42.1371 12.4059 62.5012 0.473386C63.5579 -0.146819 64.3987 -0.172542 65.4383 0.484818C67.2705 1.64234 69.1737 2.68555 71.0655 3.74304C71.8325 4.17175 72.1989 4.74051 72.1563 5.64081C72.1052 6.70974 72.1733 7.78438 72.1336 8.8533C72.108 9.53639 72.3324 9.97082 72.9431 10.3224C77.0421 12.6774 81.1297 15.0525 85.203 17.4533C85.8677 17.8449 86.4046 17.882 87.0551 17.4504C87.9442 16.8645 88.9071 16.3901 89.8019 15.8128C90.4893 15.3697 91.1029 15.3983 91.7875 15.8013C93.8696 17.0274 95.9631 18.2364 98.0623 19.4368C98.7156 19.8112 99.0111 20.3371 98.9997 21.1002C98.9741 22.8151 98.9855 24.5299 98.9883 26.2448C98.9912 27.0479 98.7497 27.7367 97.8493 27.7453C96.9289 27.7538 96.7187 27.0479 96.7244 26.2533C96.7301 25.4331 96.6903 24.6071 96.7358 23.7897C96.7869 22.8694 96.5483 22.7322 95.7416 23.2095C91.8926 25.496 88.018 27.7453 84.1492 30.0032C68.5914 39.0976 53.0364 48.1949 37.4644 57.2665C36.6264 57.7552 36.2799 58.2954 36.2799 59.29C36.2713 67.004 36.2032 74.718 36.1577 82.432C36.1492 83.9982 36.1634 84.0068 37.4928 83.2322C52.1019 74.6951 66.7052 66.1551 81.3143 57.6152C86.041 54.8514 90.7564 52.0762 95.5058 49.3524C96.3296 48.8808 96.625 48.3292 96.6165 47.3918C96.5966 44.608 96.6818 41.8214 96.7074 39.0376C96.7159 38.263 96.821 37.4971 97.7527 37.4771C98.7043 37.4542 98.9684 38.1945 98.9684 39.029C98.9684 42.2787 98.9486 45.5312 98.9684 48.7808C98.9741 49.7411 98.477 50.2442 97.7044 50.6957C79.4083 61.3736 61.1207 72.0685 42.8331 82.7606C40.6543 84.0353 38.4643 85.2872 36.3026 86.5933C35.4504 87.1078 34.7062 87.1535 33.8285 86.6191C31.8571 85.4129 29.8517 84.2668 27.8405 83.1293C27.1417 82.7349 26.8179 82.2119 26.8463 81.4002C26.8861 80.2598 26.835 79.1137 26.8662 77.9705C26.8833 77.3617 26.6617 76.9816 26.1333 76.6758C21.9463 74.2635 17.765 71.8342 13.5922 69.3933C13.0667 69.0847 12.6349 69.0818 12.118 69.4076C11.155 70.0136 10.1466 70.5423 9.18365 71.1482C8.49907 71.5798 7.87983 71.5541 7.19525 71.1482C5.17844 69.9478 3.1588 68.7531 1.11074 67.6099C0.286979 67.1526 -0.00560019 66.541 8.09591e-05 65.615C0.0313272 61.0792 0.0142838 56.5434 0.0142838 52.0076C0.019965 52.0047 0.0284867 52.0047 0.0341678 52.0047ZM86.1007 20.38C85.649 20.3828 85.2939 20.1313 84.9275 19.917C81.854 18.1335 78.7833 16.3472 75.7098 14.5609C72.5767 12.7374 69.4435 10.9168 66.3132 9.09052C64.8077 8.21309 64.8134 7.36138 66.3303 6.45251C66.8785 6.12383 67.4267 5.79515 67.9892 5.49219C68.5715 5.1778 68.509 4.91486 67.9807 4.61476C66.8984 4.00027 65.8105 3.39721 64.7566 2.73699C64.1601 2.36544 63.6516 2.37402 63.0949 2.78272C62.7824 3.01423 62.4217 3.17714 62.0836 3.37435C42.9098 14.5781 23.7331 25.7818 4.5592 36.9855C3.46842 37.6228 3.46558 37.6257 4.56772 38.2716C4.63021 38.3088 4.68986 38.3431 4.75236 38.3774C5.89995 39.0147 7.01061 40.0665 8.20365 40.1722C9.46771 40.2837 10.5698 39.0376 11.7231 38.3574C12.5554 37.8686 13.2343 37.8286 14.0836 38.3316C17.6571 40.4552 21.2646 42.5216 24.8608 44.6109C27.5337 46.1657 30.2152 47.7033 32.8712 49.2838C34.1778 50.0612 34.1466 50.993 32.8371 51.7761C32.2264 52.1391 31.6128 52.4963 30.985 52.8336C30.4595 53.1165 30.4823 53.3395 30.9907 53.6196C31.8599 54.0997 32.7746 54.5313 33.5643 55.1258C34.6636 55.9575 35.5498 55.7974 36.7088 55.1172C51.9627 46.1457 67.2506 37.2341 82.5272 28.3055C86.5154 25.9761 90.5035 23.6439 94.4889 21.3089C95.5654 20.6772 95.5626 20.6601 94.4605 20.0113C93.543 19.4711 92.5999 18.9652 91.7051 18.3907C91.0915 17.9992 90.5689 17.9706 89.9411 18.3765C89.0179 18.9738 88.0408 19.4883 87.0863 20.0399C86.7824 20.2114 86.4756 20.3971 86.1007 20.38ZM14.024 54.1026C14.0126 54.1026 14.0041 54.1026 13.9927 54.1026C13.9927 58.0296 14.0155 61.9566 13.9729 65.8808C13.9643 66.7096 14.2427 67.1698 14.95 67.5699C18.6229 69.662 22.2815 71.7799 25.9175 73.9377C26.7782 74.4493 26.8747 74.2007 26.8719 73.3489C26.8548 67.5299 26.8662 61.7137 26.8833 55.8946C26.8946 52.0905 26.5679 52.7678 29.5506 51.053C30.3516 50.5928 30.2067 50.3499 29.5108 49.9498C24.7102 47.1831 19.9239 44.3879 15.1318 41.6041C14.1064 41.0097 14.0297 41.044 14.0268 42.2186C14.0211 46.1771 14.024 50.1413 14.024 54.1026ZM7.04754 55.3115C7.05606 55.3115 7.06742 55.3115 7.07595 55.3115C7.07595 52.1734 6.87995 49.018 7.1356 45.8999C7.35148 43.2847 6.71235 41.507 4.14163 40.6524C3.78088 40.5324 3.45138 40.2866 3.13039 40.0665C2.48842 39.6264 2.2839 39.8236 2.28674 40.5609C2.29242 48.6579 2.28958 56.7549 2.2697 64.8547C2.2697 65.4349 2.4941 65.775 2.977 66.0437C4.00245 66.6124 5.00517 67.2183 6.01925 67.8043C6.99357 68.3673 7.04186 68.3444 7.0447 67.1983C7.05038 63.2313 7.04754 59.2729 7.04754 55.3115ZM33.8909 70.9053C33.9051 70.9053 33.9165 70.9053 33.9307 70.9053C33.9307 66.9783 33.908 63.0513 33.9478 59.1242C33.9563 58.2582 33.6779 57.7323 32.9138 57.3465C31.9963 56.8835 31.1327 56.3119 30.2351 55.8089C29.329 55.3001 29.187 55.3887 29.1443 56.4691C29.133 56.7549 29.1387 57.0407 29.1387 57.3265C29.133 63.8944 29.1131 70.4651 29.1301 77.033C29.133 78.4163 28.6416 80.0083 29.3432 81.1287C30.0619 82.2748 31.6668 82.6749 32.8854 83.398C33.8654 83.981 33.8881 83.9582 33.8881 82.7949C33.8938 78.8308 33.8909 74.8666 33.8909 70.9053ZM9.44782 55.1401C9.40237 55.1401 9.35977 55.1401 9.31432 55.1401C9.31432 57.638 9.31432 60.136 9.31432 62.634C9.31432 64.2402 9.30295 65.8465 9.32284 67.4499C9.32568 67.75 9.15809 68.2587 9.81994 68.0958C11.0045 67.8071 11.7288 66.9068 11.7288 65.6893C11.7373 57.981 11.7458 50.2756 11.7544 42.5673C11.7544 42.2815 11.7572 41.9957 11.7402 41.7128C11.7231 41.4241 11.6265 41.2583 11.2715 41.3298C10.2972 41.5184 9.4535 42.4787 9.4535 43.4762C9.44498 47.3632 9.44782 51.2531 9.44782 55.1401Z" fill="url(#paint0_linear_146_231)"/>
<path d="M96.7301 32.864C96.7301 32.1866 96.7074 31.5064 96.7358 30.8291C96.7613 30.2203 97.0994 29.803 97.7101 29.7458C98.3776 29.683 98.8662 30.0802 98.9031 30.709C98.9827 32.0952 98.9798 33.4899 98.9258 34.879C98.9003 35.5192 98.4344 35.9336 97.7811 35.9165C97.1164 35.8965 96.7642 35.4506 96.7358 34.7932C96.7102 34.1473 96.7301 33.5042 96.7301 32.864Z" fill="url(#paint1_linear_146_231)"/>
<path d="M77.8715 26.036C77.8374 26.5534 77.5335 26.8849 77.1159 27.1278C72.9829 29.5486 68.847 31.9637 64.714 34.3874C64.1743 34.7046 63.663 34.7361 63.1119 34.416C60.5071 32.8955 57.8824 31.4092 55.2947 29.8602C54.2635 29.2428 54.2692 28.3025 55.3174 27.6794C59.4362 25.2358 63.5835 22.835 67.7165 20.4113C68.296 20.0712 68.8499 20.0969 69.4237 20.4313C71.9688 21.9118 74.5197 23.3866 77.0648 24.8642C77.5108 25.1272 77.8602 25.4644 77.8715 26.036ZM57.9307 28.7627C59.8935 29.9059 61.6661 30.9377 63.4386 31.9751C63.7425 32.1524 64.0266 32.1609 64.3362 31.978C65.1571 31.4864 65.9866 31.0063 66.8132 30.5232C67.1825 30.306 67.3586 29.9888 67.3557 29.5543C67.3501 27.7366 67.3557 25.9189 67.3557 24.104C67.3557 23.5524 67.1512 23.378 66.6428 23.6753C63.8022 25.3358 60.9588 26.9964 57.9307 28.7627ZM69.7276 25.9932C69.7276 26.5619 69.7447 27.1278 69.7248 27.6966C69.6935 28.5969 70.06 28.6541 70.736 28.2368C71.699 27.6451 72.6704 27.0707 73.659 26.5191C74.2612 26.1818 74.4089 25.9074 73.6845 25.5444C73.1505 25.2758 72.642 24.95 72.1222 24.6499C69.7304 23.2666 69.7305 23.2666 69.7276 25.9932Z" fill="url(#paint2_linear_146_231)"/>
<path d="M50.2044 26.6934C49.8379 26.6763 49.5226 26.5162 49.213 26.3361C46.7559 24.9128 44.2903 23.5038 41.8417 22.0604C40.4555 21.243 40.4555 20.3399 41.836 19.5282C45.7844 17.2074 49.7527 14.9238 53.6954 12.5887C54.4993 12.1143 55.1697 12.1229 55.9622 12.5973C58.3369 14.0206 60.7514 15.3754 63.1346 16.7873C64.5237 17.6075 64.5209 18.4907 63.129 19.311C59.155 21.6575 55.1697 23.9839 51.1872 26.319C50.8804 26.5019 50.5765 26.6877 50.2044 26.6934ZM44.2164 20.8115C46.2048 21.9518 48.0086 22.9922 49.818 24.0268C50.1305 24.204 50.4373 24.1097 50.727 23.9382C51.5252 23.4723 52.3149 22.9922 53.1216 22.5435C53.5477 22.3062 53.6954 21.9661 53.6926 21.4917C53.6784 19.7082 53.6699 17.9219 53.6983 16.1356C53.7096 15.4068 53.4994 15.3468 52.9114 15.6983C51.1133 16.7758 49.2925 17.8133 47.4831 18.8737C46.452 19.4796 45.4294 20.0912 44.2164 20.8115ZM55.9537 18.002C55.9537 18.7136 55.9622 19.4253 55.9508 20.1369C55.9423 20.64 56.0843 20.8 56.5644 20.5142C57.7489 19.8083 58.9448 19.1166 60.1407 18.4278C60.5469 18.1934 60.6861 17.9877 60.1748 17.6961C58.9732 17.0159 57.7802 16.3243 56.5928 15.6212C56.144 15.3554 55.9452 15.4411 55.9537 15.9784C55.9622 16.6501 55.9537 17.3246 55.9537 18.002Z" fill="url(#paint3_linear_146_231)"/>
<path d="M30.5476 38.1601C30.1726 38.1629 29.8715 37.9714 29.5648 37.7914C27.1077 36.368 24.6449 34.959 22.1992 33.5185C20.8215 32.7068 20.8272 31.8208 22.2134 31.0034C26.0964 28.7198 30.0022 26.4705 33.8739 24.164C34.817 23.601 35.6067 23.6381 36.5327 24.204C38.8051 25.5873 41.1287 26.8849 43.4268 28.2311C44.8925 29.0885 44.9124 29.9716 43.4779 30.8148C39.5636 33.1155 35.6407 35.4049 31.7179 37.6942C31.3515 37.9085 30.9993 38.1658 30.5476 38.1601ZM34.0841 30.366C34.0841 29.44 34.0728 28.5111 34.087 27.5851C34.0983 26.9421 33.8767 26.8306 33.3314 27.1507C30.6669 28.7141 27.9996 30.2689 25.3238 31.8094C24.7074 32.1638 24.7557 32.3981 25.3465 32.7268C26.8946 33.5928 28.4285 34.4846 29.9568 35.3906C30.3715 35.6364 30.7095 35.6278 31.1384 35.402C34.0813 33.8501 34.0841 33.8586 34.087 30.4718C34.0841 30.4375 34.0841 30.4003 34.0841 30.366ZM36.348 29.5172C36.348 30.1917 36.3566 30.8662 36.3452 31.5407C36.3367 32.1295 36.5639 32.2209 37.0497 31.9351C38.1433 31.2864 39.2369 30.6404 40.3476 30.0202C40.9867 29.663 40.8788 29.3914 40.3248 29.0742C39.4045 28.5512 38.4955 28.0053 37.5809 27.4737C36.3509 26.7591 36.3509 26.762 36.348 28.2396C36.3452 28.6655 36.3452 29.0913 36.348 29.5172Z" fill="url(#paint4_linear_146_231)"/>
<path d="M44.2448 46.1084C43.9068 46.1227 43.6228 45.9741 43.3444 45.8112C40.8248 44.3507 38.2995 42.8988 35.7913 41.4183C34.6011 40.7152 34.6125 39.7692 35.8254 39.0546C39.8647 36.6739 43.9182 34.3216 47.9603 31.9409C48.6222 31.5522 49.213 31.5865 49.855 31.9637C52.3064 33.4013 54.7777 34.8047 57.2206 36.2509C58.5982 37.0683 58.5755 37.9714 57.1978 38.7803C53.4 41.0096 49.5993 43.236 45.7958 45.4539C45.3101 45.7397 44.8442 46.0913 44.2448 46.1084ZM47.7444 38.2572C47.7444 37.3655 47.7302 36.4709 47.7501 35.5792C47.7643 34.9418 47.5655 34.819 47.0059 35.1476C44.3727 36.6996 41.7338 38.2372 39.0864 39.7634C38.4813 40.1121 38.487 40.3579 39.0892 40.7009C40.6345 41.5783 42.1655 42.4786 43.6938 43.3818C44.0687 43.6019 44.3897 43.5961 44.7874 43.3989C47.7416 41.9499 47.7444 41.9556 47.7416 38.6859C47.7444 38.543 47.7444 38.4001 47.7444 38.2572ZM50.0055 37.4941C50.0055 38.1686 50.0084 38.8431 50.0055 39.5177C50.0055 39.9721 50.1504 40.2407 50.6333 39.9635C51.8576 39.2604 53.0733 38.5402 54.2919 37.8257C54.6413 37.6227 54.6442 37.4141 54.2948 37.2083C53.0762 36.4967 51.8547 35.785 50.6333 35.0733C50.176 34.8075 49.9913 34.9619 49.9998 35.4677C50.0112 36.1451 50.0055 36.8196 50.0055 37.4941Z" fill="url(#paint5_linear_146_231)"/>
<defs>
<linearGradient id="paint0_linear_146_231" x1="-28.2441" y1="-26.1" x2="133.052" y2="-7.35125" gradientUnits="userSpaceOnUse">
<stop stop-color="#316EE8"/>
<stop offset="0.453125" stop-color="#3691FB"/>
<stop offset="0.958333" stop-color="#316EE8"/>
</linearGradient>
<linearGradient id="paint1_linear_146_231" x1="-28.2441" y1="-26.1" x2="133.052" y2="-7.35125" gradientUnits="userSpaceOnUse">
<stop stop-color="#316EE8"/>
<stop offset="0.453125" stop-color="#3691FB"/>
<stop offset="0.958333" stop-color="#316EE8"/>
</linearGradient>
<linearGradient id="paint2_linear_146_231" x1="-28.2441" y1="-26.1" x2="133.052" y2="-7.35125" gradientUnits="userSpaceOnUse">
<stop stop-color="#316EE8"/>
<stop offset="0.453125" stop-color="#3691FB"/>
<stop offset="0.958333" stop-color="#316EE8"/>
</linearGradient>
<linearGradient id="paint3_linear_146_231" x1="-28.2441" y1="-26.1" x2="133.052" y2="-7.35125" gradientUnits="userSpaceOnUse">
<stop stop-color="#316EE8"/>
<stop offset="0.453125" stop-color="#3691FB"/>
<stop offset="0.958333" stop-color="#316EE8"/>
</linearGradient>
<linearGradient id="paint4_linear_146_231" x1="-28.2441" y1="-26.1" x2="133.052" y2="-7.35125" gradientUnits="userSpaceOnUse">
<stop stop-color="#316EE8"/>
<stop offset="0.453125" stop-color="#3691FB"/>
<stop offset="0.958333" stop-color="#316EE8"/>
</linearGradient>
<linearGradient id="paint5_linear_146_231" x1="-28.2441" y1="-26.1" x2="133.052" y2="-7.35125" gradientUnits="userSpaceOnUse">
<stop stop-color="#316EE8"/>
<stop offset="0.453125" stop-color="#3691FB"/>
<stop offset="0.958333" stop-color="#316EE8"/>
</linearGradient>
</defs>
</svg>
