<svg width="90" height="82" viewBox="0 0 90 82" fill="none" xmlns="http://www.w3.org/2000/svg">
<path fill-rule="evenodd" clip-rule="evenodd" d="M15.7335 50.4457C15.347 50.917 15.4171 51.6112 15.8901 51.9964L39.4708 71.1971C39.9437 71.5823 40.6405 71.5124 41.027 71.0411C41.4134 70.5699 41.3433 69.8756 40.8704 69.4905L17.2897 50.2897C16.8167 49.9046 16.12 49.9744 15.7335 50.4457Z" fill="url(#paint0_linear_346_2071)"/>
<path fill-rule="evenodd" clip-rule="evenodd" d="M15.1485 58.6244C14.7608 59.0947 14.8291 59.7891 15.3011 60.1754L33.0518 74.7044C33.5238 75.0907 34.2207 75.0227 34.6084 74.5524C34.9961 74.0821 34.9278 73.3876 34.4558 73.0013L16.7051 58.4723C16.2331 58.086 15.5362 58.1541 15.1485 58.6244Z" fill="url(#paint1_linear_346_2071)"/>
<path fill-rule="evenodd" clip-rule="evenodd" d="M15.2949 67.1916C14.9059 67.6608 14.9723 68.3554 15.4432 68.743L25.6178 77.1182C26.0887 77.5058 26.7858 77.4397 27.1748 76.9704C27.5638 76.5012 27.4974 75.8066 27.0265 75.419L16.8519 67.0438C16.381 66.6562 15.6839 66.7223 15.2949 67.1916Z" fill="url(#paint2_linear_346_2071)"/>
<path fill-rule="evenodd" clip-rule="evenodd" d="M73.578 2.2513C73.7766 2.17216 74.0012 2.19322 74.1815 2.30786L87.4816 10.767C87.6755 10.8904 87.7915 11.1051 87.788 11.3343L87.1868 51.1776C87.1827 51.4455 87.0167 51.6846 86.7665 51.7828L15.5191 79.75C15.3146 79.8302 15.0836 79.8044 14.9021 79.6811L2.50163 71.2564C2.32034 71.1332 2.21188 70.9287 2.21188 70.7101V31.1437C2.21188 30.8733 2.37707 30.6302 2.62899 30.5298L73.578 2.2513ZM75.3716 0.450068C74.5904 -0.0467328 73.6169 -0.13799 72.7565 0.204937L1.80752 28.4834C0.715836 28.9186 0 29.9721 0 31.1437V70.7101C0 71.6575 0.470017 72.5437 1.25559 73.0774L13.656 81.5021C14.4427 82.0366 15.4439 82.1483 16.3298 81.8006L87.5772 53.8334C88.6616 53.4078 89.3809 52.3719 89.3984 51.2107L89.9997 11.3675C90.0147 10.3741 89.5121 9.4438 88.6716 8.90925L75.3716 0.450068Z" fill="url(#paint3_linear_346_2071)"/>
<path fill-rule="evenodd" clip-rule="evenodd" d="M88.6555 9.29447C88.411 8.73676 87.759 8.48218 87.1993 8.72586L74.1008 14.4285C73.5411 14.6722 73.2857 15.3218 73.5302 15.8795C73.7747 16.4372 74.4267 16.6918 74.9864 16.4481L88.0849 10.7455C88.6446 10.5018 88.9001 9.85217 88.6555 9.29447Z" fill="url(#paint4_linear_346_2071)"/>
<path fill-rule="evenodd" clip-rule="evenodd" d="M71.0024 16.8964C70.7575 16.3389 70.1054 16.0846 69.5459 16.3285L63.1049 19.1364C62.5453 19.3804 62.2901 20.0301 62.5349 20.5877C62.7798 21.1453 63.4319 21.3996 63.9914 21.1556L70.4324 18.3477C70.992 18.1038 71.2472 17.454 71.0024 16.8964Z" fill="url(#paint5_linear_346_2071)"/>
<path fill-rule="evenodd" clip-rule="evenodd" d="M60.1291 21.6152C59.886 21.0568 59.2347 20.8006 58.6744 21.0428L16.6307 39.2174C15.5797 39.6717 14.8996 40.7043 14.8996 41.8459V80.4857C14.8996 81.0943 15.3948 81.5877 16.0056 81.5877C16.6164 81.5877 17.1115 81.0943 17.1115 80.4857V41.8459C17.1115 41.5824 17.2684 41.3441 17.511 41.2393L59.5547 23.0647C60.115 22.8225 60.3722 22.1735 60.1291 21.6152Z" fill="url(#paint6_linear_346_2071)"/>
<path fill-rule="evenodd" clip-rule="evenodd" d="M2.05703 30.2658C1.69584 30.7566 1.80233 31.4462 2.29488 31.8061L14.6048 40.8009C15.0974 41.1608 15.7895 41.0547 16.1507 40.5639C16.5119 40.0731 16.4054 39.3834 15.9128 39.0235L3.60287 30.0288C3.11031 29.6689 2.41822 29.775 2.05703 30.2658Z" fill="url(#paint7_linear_346_2071)"/>
<defs>
<linearGradient id="paint0_linear_346_2071" x1="-25.6765" y1="-24.6" x2="121.093" y2="-8.14507" gradientUnits="userSpaceOnUse">
<stop stop-color="#316EE8"/>
<stop offset="0.453125" stop-color="#3691FB"/>
<stop offset="0.958333" stop-color="#316EE8"/>
</linearGradient>
<linearGradient id="paint1_linear_346_2071" x1="-25.6765" y1="-24.6" x2="121.093" y2="-8.14507" gradientUnits="userSpaceOnUse">
<stop stop-color="#316EE8"/>
<stop offset="0.453125" stop-color="#3691FB"/>
<stop offset="0.958333" stop-color="#316EE8"/>
</linearGradient>
<linearGradient id="paint2_linear_346_2071" x1="-25.6765" y1="-24.6" x2="121.093" y2="-8.14507" gradientUnits="userSpaceOnUse">
<stop stop-color="#316EE8"/>
<stop offset="0.453125" stop-color="#3691FB"/>
<stop offset="0.958333" stop-color="#316EE8"/>
</linearGradient>
<linearGradient id="paint3_linear_346_2071" x1="-25.6765" y1="-24.6" x2="121.093" y2="-8.14507" gradientUnits="userSpaceOnUse">
<stop stop-color="#316EE8"/>
<stop offset="0.453125" stop-color="#3691FB"/>
<stop offset="0.958333" stop-color="#316EE8"/>
</linearGradient>
<linearGradient id="paint4_linear_346_2071" x1="-25.6765" y1="-24.6" x2="121.093" y2="-8.14507" gradientUnits="userSpaceOnUse">
<stop stop-color="#316EE8"/>
<stop offset="0.453125" stop-color="#3691FB"/>
<stop offset="0.958333" stop-color="#316EE8"/>
</linearGradient>
<linearGradient id="paint5_linear_346_2071" x1="-25.6765" y1="-24.6" x2="121.093" y2="-8.14507" gradientUnits="userSpaceOnUse">
<stop stop-color="#316EE8"/>
<stop offset="0.453125" stop-color="#3691FB"/>
<stop offset="0.958333" stop-color="#316EE8"/>
</linearGradient>
<linearGradient id="paint6_linear_346_2071" x1="-25.6765" y1="-24.6" x2="121.093" y2="-8.14507" gradientUnits="userSpaceOnUse">
<stop stop-color="#316EE8"/>
<stop offset="0.453125" stop-color="#3691FB"/>
<stop offset="0.958333" stop-color="#316EE8"/>
</linearGradient>
<linearGradient id="paint7_linear_346_2071" x1="-25.6765" y1="-24.6" x2="121.093" y2="-8.14507" gradientUnits="userSpaceOnUse">
<stop stop-color="#316EE8"/>
<stop offset="0.453125" stop-color="#3691FB"/>
<stop offset="0.958333" stop-color="#316EE8"/>
</linearGradient>
</defs>
</svg>
