<svg width="101" height="81" viewBox="0 0 101 81" fill="none" xmlns="http://www.w3.org/2000/svg">
<path d="M50.7135 42.6456C51.0532 42.6456 51.3363 42.4766 51.5911 42.3359C54.1955 40.8439 56.7999 39.3519 59.3761 37.8317C60.7632 37.0154 60.7632 36.1427 59.3761 35.3263C56.8849 33.8624 54.3654 32.4549 51.8459 30.991C51.1381 30.5688 50.487 30.5406 49.7793 30.9629C47.2598 32.4549 44.712 33.8906 42.1924 35.3826C40.6921 36.2553 40.6921 37.128 42.1924 38.0006C44.6553 39.4363 47.1465 40.8439 49.6377 42.2796C49.9491 42.4766 50.2888 42.6737 50.7135 42.6456ZM50.6569 40.1964C50.487 40.1401 50.3455 40.0838 50.2322 40.0275C48.5337 39.0422 46.8068 38.0569 45.1083 37.0717C44.4289 36.6775 44.9384 36.4805 45.2781 36.2834C46.9201 35.3263 48.562 34.3692 50.2039 33.412C50.6569 33.1305 51.0532 33.1868 51.4778 33.4402C53.0631 34.3692 54.6485 35.27 56.2621 36.1708C56.8566 36.5086 56.8566 36.7338 56.2621 37.0717C54.5635 38.0288 52.8933 39.0141 51.223 39.9712C51.0249 40.0275 50.8267 40.112 50.6569 40.1964Z" fill="url(#paint0_linear_346_2072)"/>
<path d="M63.311 35.2418C63.8206 35.27 64.132 35.1011 64.4434 34.904C67.0478 33.412 69.6523 31.92 72.2284 30.3999C73.5306 29.6398 73.5589 28.7108 72.2567 27.9507C69.6806 26.4587 67.1045 24.9949 64.5566 23.5029C63.9338 23.1369 63.396 23.1088 62.7732 23.4747C60.1121 25.023 57.4511 26.5432 54.8183 28.0915C53.601 28.8234 53.5727 29.6961 54.7617 30.3999C57.3661 31.9482 60.0272 33.4402 62.6599 34.9322C62.8864 35.1292 63.1695 35.2137 63.311 35.2418ZM63.5658 25.755C63.7923 25.8394 63.9905 25.8957 64.1603 25.9802C65.8305 26.9091 67.4725 27.8663 69.1427 28.7953C69.6523 29.0768 69.6523 29.302 69.1427 29.5835C67.4159 30.5688 65.7173 31.5541 64.0188 32.5393C63.5941 32.7927 63.2544 32.7083 62.8581 32.483C61.3011 31.5822 59.7441 30.6814 58.1871 29.8087C57.3944 29.3583 57.6492 29.1049 58.272 28.7671C59.8007 27.8944 61.3294 26.9936 62.8581 26.1209C63.0563 25.9802 63.311 25.8676 63.5658 25.755Z" fill="url(#paint1_linear_346_2072)"/>
<path d="M60.0838 17.9571C60.4518 17.9571 60.7632 17.7601 61.0746 17.5912C63.5941 16.1273 66.1419 14.6635 68.6615 13.1996C70.1618 12.3269 70.1618 11.4824 68.6331 10.6097C66.1986 9.20218 63.7357 7.82278 61.3011 6.35893C60.5084 5.88036 59.829 5.88036 59.0364 6.35893C56.5452 7.82278 54.0257 9.25848 51.5344 10.6942C50.0624 11.5669 50.0624 12.4395 51.5628 13.3122C53.9973 14.7198 56.4602 16.1273 58.8948 17.5349C59.2628 17.7601 59.6309 17.9853 60.0838 17.9571ZM66.3401 11.9047C64.2452 13.1152 62.3768 14.1849 60.5367 15.2546C60.1121 15.508 59.7441 15.3954 59.3761 15.1702C57.8191 14.2694 56.2621 13.3685 54.7051 12.4677C54.1106 12.1299 53.9124 11.9328 54.6484 11.5106C56.2904 10.6097 57.8757 9.65259 59.4893 8.72361C59.829 8.52655 60.1687 8.35765 60.5651 8.58285C62.4335 9.68074 64.3019 10.7505 66.3401 11.9047Z" fill="url(#paint2_linear_346_2072)"/>
<path d="M21.5551 40.1401C22.008 40.1683 22.3478 39.9712 22.6875 39.7742C25.2636 38.2821 27.8397 36.8183 30.3875 35.3263C31.6898 34.5662 31.6615 33.6372 30.3592 32.8772C27.8397 31.4133 25.3202 30.0058 22.829 28.5419C22.1213 28.1196 21.4702 28.0915 20.7341 28.5138C18.1297 30.0339 15.5253 31.4978 12.9491 33.0461C11.7035 33.778 11.7035 34.6788 12.9775 35.4389C15.497 36.9309 18.0448 38.3666 20.5926 39.8305C20.904 39.9994 21.2154 40.1683 21.5551 40.1401ZM27.9247 34.1158C25.8298 35.3263 23.9614 36.396 22.1213 37.4658C21.6967 37.7191 21.3286 37.6347 20.9323 37.3813C19.3753 36.4805 17.8183 35.5797 16.2613 34.707C15.6668 34.3692 15.497 34.144 16.233 33.7498C17.9032 32.8209 19.5452 31.8637 21.1871 30.9066C21.4985 30.7095 21.8099 30.5969 22.1779 30.8221C24.018 31.8637 25.8864 32.9335 27.9247 34.1158Z" fill="url(#paint3_linear_346_2072)"/>
<path d="M34.2093 32.7364C34.7472 32.7927 35.0586 32.5956 35.37 32.4267C38.0027 30.9066 40.6354 29.4146 43.2682 27.8663C44.4855 27.1344 44.4855 26.2617 43.2682 25.5579C40.6921 24.0377 38.0593 22.5739 35.4549 21.0537C34.8321 20.6878 34.2659 20.7159 33.6431 21.0537C30.982 22.602 28.321 24.1222 25.6599 25.6705C24.5559 26.318 24.4993 27.247 25.575 27.8944C28.2361 29.4709 30.9537 31.0192 33.6431 32.5393C33.8696 32.6801 34.1244 32.7083 34.2093 32.7364ZM28.2361 26.8247C30.2743 25.6424 32.1144 24.5726 33.9545 23.531C34.3508 23.3058 34.7188 23.2777 35.1435 23.5029C36.7571 24.4319 38.3707 25.3608 40.0126 26.2898C40.5222 26.5713 40.6354 26.8247 40.041 27.1344C38.3424 28.0915 36.6722 29.0768 35.0019 30.0339C34.6905 30.2028 34.3791 30.3436 34.0111 30.1465C32.1427 29.0486 30.2743 27.9789 28.2361 26.8247Z" fill="url(#paint4_linear_346_2072)"/>
<path d="M38.1726 38.0288C37.6913 38.0569 37.3799 38.1977 37.0685 38.3948C34.4641 39.8868 31.8596 41.3788 29.2835 42.8989C27.9813 43.659 27.9813 44.588 29.3118 45.348C31.803 46.8119 34.3225 48.2194 36.842 49.6833C37.5498 50.1056 38.2009 50.1337 38.9086 49.6833C41.4847 48.1631 44.1175 46.6993 46.6936 45.1791C47.9392 44.4472 47.9392 43.5182 46.6653 42.7863C44.0608 41.2662 41.4564 39.8023 38.852 38.3103C38.5972 38.1695 38.3141 38.0851 38.1726 38.0288ZM44.1741 43.9968C42.1358 45.1791 40.2674 46.2489 38.399 47.3468C37.9744 47.6001 37.6064 47.5438 37.21 47.3186C35.6247 46.3896 34.0394 45.4888 32.4258 44.588C31.8313 44.2502 31.8313 43.9968 32.4258 43.659C34.096 42.73 35.738 41.7729 37.3799 40.8157C37.7479 40.6187 38.0876 40.5342 38.484 40.7594C40.3524 41.801 42.1641 42.8426 44.1741 43.9968Z" fill="url(#paint5_linear_346_2072)"/>
<path d="M47.4296 13.3685C46.9767 13.3685 46.6653 13.5374 46.3539 13.7345C43.8061 15.1983 41.2866 16.6622 38.7387 18.126C37.2384 18.9987 37.2384 19.8714 38.767 20.7441C41.2016 22.1516 43.6645 23.5592 46.0991 24.9667C46.8351 25.4171 47.5146 25.4453 48.2789 24.9949C50.8267 23.4747 53.4028 22.039 55.979 20.5189C57.2529 19.7588 57.2812 18.858 56.0356 18.126C53.4595 16.6059 50.8267 15.142 48.2223 13.65C47.9675 13.4811 47.6561 13.3404 47.4296 13.3685ZM53.5444 19.3084C51.4212 20.5189 49.4679 21.6449 47.5429 22.7428C47.2032 22.9399 46.9201 22.771 46.6653 22.602C45.0517 21.6731 43.438 20.7441 41.7961 19.8151C41.2582 19.5054 41.2299 19.2802 41.7961 18.9706C43.4664 18.0416 45.08 17.0563 46.7502 16.0992C47.0616 15.9303 47.373 15.7332 47.741 15.9584C49.6094 17.0563 51.5061 18.126 53.5444 19.3084Z" fill="url(#paint6_linear_346_2072)"/>
<path d="M66.7647 21.9264C66.7364 22.4613 67.0478 22.771 67.4725 23.0243C70.1618 24.5726 72.8512 26.1209 75.5406 27.6692C76.0501 27.9507 76.5597 27.9507 77.0409 27.6411C79.7586 26.0646 82.5046 24.5163 85.194 22.9117C86.2697 22.2642 86.2697 21.3353 85.194 20.6878C82.5612 19.1395 79.8719 17.6193 77.2108 16.071C76.6729 15.7614 76.1351 15.7895 75.5972 16.0992C72.9078 17.6475 70.2185 19.1958 67.5291 20.7441C67.1045 21.0256 66.7364 21.3353 66.7647 21.9264ZM82.5895 21.8138C80.5513 22.9962 78.6829 24.0659 76.8145 25.1356C76.3898 25.389 76.0501 25.3327 75.6255 25.1075C74.0402 24.1785 72.4549 23.2495 70.8696 22.3768C70.2468 22.0109 70.3317 21.7857 70.8696 21.4479C72.5115 20.5189 74.1817 19.5617 75.8237 18.6046C76.1917 18.3794 76.5597 18.3512 76.9277 18.5765C78.7678 19.618 80.6079 20.6596 82.5895 21.8138Z" fill="url(#paint7_linear_346_2072)"/>
<path fill-rule="evenodd" clip-rule="evenodd" d="M60.5411 0.326875C59.8953 -0.0410004 59.1031 -0.040092 58.4581 0.329255L1.98273 32.6699C0.56792 33.4801 0.575748 35.5232 1.99675 36.3225L39.9004 57.6433V78.2546C39.9004 79.8774 41.6624 80.887 43.0624 80.0663L99.0624 47.2387C99.7054 46.8618 100.1 46.1724 100.1 45.4271V22.8606L60.5411 0.326875ZM40.9932 55.7339L3.22889 34.4914L59.5018 2.26676L96.7896 23.5066L40.9932 55.7339ZM97.9004 25.4056V45.3698L42.1004 78.0801V57.635L97.9004 25.4056ZM3.07599 34.579C3.07614 34.5789 3.07584 34.5791 3.07599 34.579V34.579Z" fill="url(#paint8_linear_346_2072)"/>
<path fill-rule="evenodd" clip-rule="evenodd" d="M2.00039 51.9C1.39288 51.9 0.900394 52.3925 0.900394 53V57.4224C0.900394 58.1729 1.3009 58.8664 1.95098 59.2414L38.951 80.5876C40.351 81.3953 42.1004 80.3849 42.1004 78.7686V58C42.1004 57.3925 41.6079 56.9 41.0004 56.9C40.3929 56.9 39.9004 57.3925 39.9004 58V78.5954L3.10039 57.3647V53C3.10039 52.3925 2.60791 51.9 2.00039 51.9Z" fill="url(#paint9_linear_346_2072)"/>
<path fill-rule="evenodd" clip-rule="evenodd" d="M2.00039 33.4C1.39288 33.4 0.900391 33.8925 0.900391 34.5V41C0.900391 41.6075 1.39288 42.1 2.00039 42.1C2.6079 42.1 3.10039 41.6075 3.10039 41V34.5C3.10039 33.8925 2.6079 33.4 2.00039 33.4Z" fill="url(#paint10_linear_346_2072)"/>
<path fill-rule="evenodd" clip-rule="evenodd" d="M2.00039 43.9C1.39288 43.9 0.900391 44.3925 0.900391 45L0.900391 49C0.900391 49.6075 1.39288 50.1 2.00039 50.1C2.6079 50.1 3.10039 49.6075 3.10039 49L3.10039 45C3.10039 44.3925 2.6079 43.9 2.00039 43.9Z" fill="url(#paint11_linear_346_2072)"/>
<defs>
<linearGradient id="paint0_linear_346_2072" x1="-27.4008" y1="-24.1944" x2="133.87" y2="-3.97449" gradientUnits="userSpaceOnUse">
<stop stop-color="#316EE8"/>
<stop offset="0.453125" stop-color="#3691FB"/>
<stop offset="0.958333" stop-color="#316EE8"/>
</linearGradient>
<linearGradient id="paint1_linear_346_2072" x1="-27.4008" y1="-24.1944" x2="133.87" y2="-3.97449" gradientUnits="userSpaceOnUse">
<stop stop-color="#316EE8"/>
<stop offset="0.453125" stop-color="#3691FB"/>
<stop offset="0.958333" stop-color="#316EE8"/>
</linearGradient>
<linearGradient id="paint2_linear_346_2072" x1="-27.4008" y1="-24.1944" x2="133.87" y2="-3.97449" gradientUnits="userSpaceOnUse">
<stop stop-color="#316EE8"/>
<stop offset="0.453125" stop-color="#3691FB"/>
<stop offset="0.958333" stop-color="#316EE8"/>
</linearGradient>
<linearGradient id="paint3_linear_346_2072" x1="-27.4008" y1="-24.1944" x2="133.87" y2="-3.97449" gradientUnits="userSpaceOnUse">
<stop stop-color="#316EE8"/>
<stop offset="0.453125" stop-color="#3691FB"/>
<stop offset="0.958333" stop-color="#316EE8"/>
</linearGradient>
<linearGradient id="paint4_linear_346_2072" x1="-27.4008" y1="-24.1944" x2="133.87" y2="-3.97449" gradientUnits="userSpaceOnUse">
<stop stop-color="#316EE8"/>
<stop offset="0.453125" stop-color="#3691FB"/>
<stop offset="0.958333" stop-color="#316EE8"/>
</linearGradient>
<linearGradient id="paint5_linear_346_2072" x1="-27.4008" y1="-24.1944" x2="133.87" y2="-3.97449" gradientUnits="userSpaceOnUse">
<stop stop-color="#316EE8"/>
<stop offset="0.453125" stop-color="#3691FB"/>
<stop offset="0.958333" stop-color="#316EE8"/>
</linearGradient>
<linearGradient id="paint6_linear_346_2072" x1="-27.4008" y1="-24.1944" x2="133.87" y2="-3.97449" gradientUnits="userSpaceOnUse">
<stop stop-color="#316EE8"/>
<stop offset="0.453125" stop-color="#3691FB"/>
<stop offset="0.958333" stop-color="#316EE8"/>
</linearGradient>
<linearGradient id="paint7_linear_346_2072" x1="-27.4008" y1="-24.1944" x2="133.87" y2="-3.97449" gradientUnits="userSpaceOnUse">
<stop stop-color="#316EE8"/>
<stop offset="0.453125" stop-color="#3691FB"/>
<stop offset="0.958333" stop-color="#316EE8"/>
</linearGradient>
<linearGradient id="paint8_linear_346_2072" x1="-27.4008" y1="-24.1944" x2="133.87" y2="-3.97449" gradientUnits="userSpaceOnUse">
<stop stop-color="#316EE8"/>
<stop offset="0.453125" stop-color="#3691FB"/>
<stop offset="0.958333" stop-color="#316EE8"/>
</linearGradient>
<linearGradient id="paint9_linear_346_2072" x1="-27.4008" y1="-24.1944" x2="133.87" y2="-3.97449" gradientUnits="userSpaceOnUse">
<stop stop-color="#316EE8"/>
<stop offset="0.453125" stop-color="#3691FB"/>
<stop offset="0.958333" stop-color="#316EE8"/>
</linearGradient>
<linearGradient id="paint10_linear_346_2072" x1="-27.4008" y1="-24.1944" x2="133.87" y2="-3.97449" gradientUnits="userSpaceOnUse">
<stop stop-color="#316EE8"/>
<stop offset="0.453125" stop-color="#3691FB"/>
<stop offset="0.958333" stop-color="#316EE8"/>
</linearGradient>
<linearGradient id="paint11_linear_346_2072" x1="-27.4008" y1="-24.1944" x2="133.87" y2="-3.97449" gradientUnits="userSpaceOnUse">
<stop stop-color="#316EE8"/>
<stop offset="0.453125" stop-color="#3691FB"/>
<stop offset="0.958333" stop-color="#316EE8"/>
</linearGradient>
</defs>
</svg>
