<svg width="43" height="47" viewBox="0 0 43 47" fill="none" xmlns="http://www.w3.org/2000/svg">
<path fill-rule="evenodd" clip-rule="evenodd" d="M24.2464 23.3819C24.616 23.2353 25.0342 23.2708 25.3731 23.4775L29.138 25.7746C29.5075 26 29.7324 26.3982 29.7324 26.8269V30.4024C29.7324 30.9106 29.4175 31.367 28.9385 31.5534L17.811 35.8819C17.3889 36.0461 16.9099 35.9724 16.5585 35.6893L13.531 33.2505C13.2437 33.0191 13.075 32.6739 13.0702 32.3079L13.0179 28.261C13.0166 28.1626 13.0391 28.0654 13.0835 27.9774C13.152 27.8417 13.2685 27.7355 13.411 27.679L24.2464 23.3819ZM24.9336 24.179C24.8206 24.1101 24.6812 24.0983 24.558 24.1471L13.8554 28.3916L13.9059 32.2974C13.9075 32.4194 13.9638 32.5345 14.0595 32.6116L17.087 35.0504C17.2041 35.1448 17.3638 35.1693 17.5045 35.1146L28.632 30.7861C28.7917 30.724 28.8966 30.5718 28.8966 30.4024V26.8269C28.8966 26.684 28.8216 26.5513 28.6985 26.4761L24.9336 24.179Z" fill="#316EE8"/>
<path fill-rule="evenodd" clip-rule="evenodd" d="M23.3404 28.7779C23.4227 28.9907 23.3147 29.229 23.0991 29.3103L17.9834 31.2381C17.8234 31.2984 17.7168 31.449 17.7146 31.6181L17.6638 35.5241C17.6609 35.7518 17.4714 35.9341 17.2406 35.9312C17.0099 35.9282 16.8252 35.7412 16.8282 35.5135L16.879 31.6075C16.8856 31.1003 17.2051 30.6485 17.6853 30.4676L22.8009 28.5398C23.0165 28.4585 23.258 28.5652 23.3404 28.7779Z" fill="#316EE8"/>
<path fill-rule="evenodd" clip-rule="evenodd" d="M26.834 27.5858C26.9164 27.7986 26.8083 28.0369 26.5927 28.1182L24.449 28.926C24.2334 29.0073 23.9919 28.9007 23.9095 28.6879C23.8272 28.4751 23.9353 28.2368 24.1509 28.1555L26.2946 27.3477C26.5102 27.2664 26.7517 27.3731 26.834 27.5858Z" fill="#316EE8"/>
<path fill-rule="evenodd" clip-rule="evenodd" d="M29.5459 26.4394C29.6282 26.6521 29.5202 26.8905 29.3046 26.9717L28.2327 27.3757C28.0171 27.4569 27.7756 27.3503 27.6933 27.1375C27.611 26.9248 27.719 26.6864 27.9346 26.6052L29.0065 26.2012C29.2221 26.12 29.4636 26.2266 29.5459 26.4394ZM17.3095 30.6403C17.5402 30.6432 17.7249 30.8302 17.7219 31.0579L17.6638 35.5241C17.6609 35.7518 17.4714 35.9341 17.2406 35.9312C17.0099 35.9282 16.8252 35.7412 16.8282 35.5135L16.8862 31.0473C16.8892 30.8196 17.0787 30.6374 17.3095 30.6403Z" fill="#316EE8"/>
<path fill-rule="evenodd" clip-rule="evenodd" d="M13.2642 27.9004C13.4059 27.7206 13.6684 27.6882 13.8506 27.8281L17.5823 30.6925C17.7644 30.8323 17.7972 31.0914 17.6556 31.2712C17.5139 31.451 17.2513 31.4833 17.0691 31.3435L13.3375 28.4791C13.1553 28.3393 13.1225 28.0802 13.2642 27.9004Z" fill="#316EE8"/>
<path fill-rule="evenodd" clip-rule="evenodd" d="M37.0178 6.58694C37.3059 6.57198 37.5517 6.79032 37.5669 7.07462C37.6007 7.70818 37.7027 8.72462 37.8972 9.69792C37.9945 10.1844 38.1129 10.6501 38.2534 11.0473C38.3967 11.4526 38.5503 11.7491 38.7001 11.9265C38.8902 12.1516 39.0765 12.359 39.2538 12.5471C39.6359 12.9527 39.7193 13.5055 39.5962 13.9669C39.4724 14.4312 39.116 14.8792 38.5395 15.0043C35.3207 15.7029 30.1356 16.7559 26.2543 17.3031C23.2619 17.7249 18.976 17.5122 15.1097 17.1513C11.5675 16.8206 8.33156 16.3606 6.68417 16.1264C6.52709 16.1041 6.38445 16.0838 6.25737 16.0659C4.73717 15.8516 3.58424 15.5115 2.82101 15.2121C1.95051 14.8706 1.88107 13.8732 2.33886 13.2722C2.92255 12.5058 3.62222 11.4299 3.95525 10.444C4.20114 9.716 4.36846 9.10239 4.46571 8.61118C4.56496 8.10979 4.58379 7.77147 4.55929 7.57804C4.52351 7.29554 4.72656 7.03791 5.01282 7.0026C5.29907 6.96729 5.56014 7.16767 5.59592 7.45016C5.64107 7.80658 5.59722 8.27241 5.49102 8.80885C5.3828 9.35548 5.20189 10.0134 4.94633 10.77C4.55992 11.914 3.78036 13.0954 3.17397 13.8916C3.1065 13.9802 3.09327 14.0734 3.10618 14.137C3.1172 14.1913 3.14561 14.23 3.20695 14.2541C3.89047 14.5222 4.96317 14.842 6.40511 15.0453C6.53268 15.0633 6.67557 15.0836 6.83269 15.1059C8.48029 15.3401 11.6926 15.7968 15.2081 16.1249C19.0725 16.4857 23.2486 16.6854 26.1066 16.2825C29.9475 15.741 35.1012 14.6949 38.3151 13.9974C38.4328 13.9719 38.5404 13.8754 38.586 13.7044C38.6324 13.5305 38.5906 13.3573 38.4887 13.2492C38.2993 13.0482 38.1005 12.8268 37.8976 12.5865C37.6296 12.2691 37.4262 11.837 37.267 11.3871C37.105 10.929 36.9753 10.4127 36.8723 9.89744C36.6664 8.86724 36.5595 7.80113 36.5236 7.12881C36.5085 6.84451 36.7297 6.60191 37.0178 6.58694Z" fill="#316EE8"/>
<path fill-rule="evenodd" clip-rule="evenodd" d="M5.67399 18.5764C5.94511 18.6737 6.08497 18.9695 5.98638 19.2371C5.71267 19.9799 5.13025 21.8179 4.96994 23.2417C4.80497 24.7069 4.20703 35.3639 3.9277 40.5324L2.88449 40.4775C3.16234 35.3363 3.76231 24.6318 3.93164 23.1278C4.10563 21.5824 4.72113 19.654 5.00459 18.8847C5.10317 18.6172 5.40288 18.4792 5.67399 18.5764Z" fill="#316EE8"/>
<path fill-rule="evenodd" clip-rule="evenodd" d="M38.0129 40.2239C39.3315 40.0963 40.565 39.9894 41.0151 39.9894C41.2914 39.9894 41.5113 40.1171 41.6673 40.2599C41.8203 40.3998 41.9408 40.579 42.0379 40.7592C42.2325 41.1206 42.3883 41.5926 42.5137 42.0789C42.7667 43.0596 42.9268 44.2229 42.9979 44.9945L43 45.0178V45.6597C43 46.3999 42.392 47 41.6419 47H1.31671C0.565967 47 -0.0518679 46.391 0.00344755 45.6248C0.0353804 45.1824 0.0876796 44.5665 0.170138 43.7527C0.313706 42.3359 0.849356 41.2845 1.26948 40.7081C1.54558 40.3293 1.99301 40.198 2.38345 40.2341L8.67832 40.8165L8.58081 41.8429L2.28594 41.2605C2.18083 41.2508 2.13209 41.2901 2.11757 41.3101C1.79284 41.7556 1.33306 42.6375 1.20965 43.8553C1.128 44.6611 1.07661 45.2671 1.0455 45.698C1.03522 45.8405 1.1443 45.969 1.31671 45.969H41.6419C41.815 45.969 41.9553 45.8306 41.9553 45.6597V45.0647C41.8861 44.3245 41.7335 43.2331 41.5013 42.3332C41.383 41.8744 41.2515 41.4959 41.1154 41.243C41.0505 41.1225 40.997 41.0544 40.9624 41.0209C40.531 41.0288 39.4037 41.1252 38.1148 41.2499C36.7857 41.3785 35.3254 41.5329 34.3867 41.6358C34.1 41.6673 33.8417 41.4634 33.8099 41.1804C33.778 40.8975 33.9846 40.6426 34.2714 40.6112C35.2131 40.5079 36.678 40.353 38.0129 40.2239Z" fill="#316EE8"/>
<path fill-rule="evenodd" clip-rule="evenodd" d="M35.6241 17.7597C35.0437 16.8328 34.3715 15.9786 33.9343 15.4808L34.7238 14.8056C35.192 15.3388 35.8988 16.2373 36.5128 17.2177C37.1149 18.1791 37.6776 19.2962 37.7739 20.2468C37.9422 21.907 38.8205 34.4292 39.2379 40.4699C39.2575 40.7539 39.0401 40.9999 38.7523 41.0192C38.4645 41.0386 38.2152 40.824 38.1956 40.54C37.7772 34.484 36.9005 21.9882 36.7344 20.3493C36.6636 19.6503 36.2165 18.7056 35.6241 17.7597Z" fill="#316EE8"/>
<path fill-rule="evenodd" clip-rule="evenodd" d="M7.71115 5.57056C7.71115 5.57056 7.71165 5.57068 7.58487 6.07075L7.71165 5.57068C7.99151 5.63978 8.16162 5.91968 8.0916 6.19586C8.02209 6.47003 7.74207 6.63747 7.46421 6.57229C7.46277 6.57199 7.4594 6.57131 7.45419 6.57039C7.44143 6.56812 7.41775 6.56436 7.38428 6.56094C7.31725 6.55409 7.21179 6.54868 7.07672 6.55894C6.8085 6.5793 6.41842 6.66168 5.97305 6.92523C5.6576 7.1119 5.62878 7.26799 5.62373 7.33125C5.61553 7.43398 5.66025 7.54021 5.6977 7.60332C5.70254 7.61147 5.70862 7.62157 5.71546 7.63295C5.73446 7.66451 5.75938 7.70592 5.78012 7.74282C5.86154 7.88768 5.98851 8.04269 6.41357 8.32234C6.50043 8.37948 6.75874 8.48992 7.21842 8.63352C7.65596 8.7702 8.22365 8.92153 8.88131 9.07423C10.1962 9.37955 11.8494 9.68548 13.5015 9.88928C16.8016 10.2964 21.9895 10.2973 24.8911 10.0928C26.35 9.98997 28.8968 9.78467 31.205 9.47754C32.3605 9.3238 33.4443 9.14606 34.2978 8.94566C34.7251 8.84533 35.0832 8.74195 35.3588 8.63739C35.6496 8.52702 35.7919 8.43586 35.8417 8.38674C36.483 7.75379 36.547 7.33556 36.5448 7.24575C36.5436 7.1987 36.5364 7.16762 36.5303 7.15126C36.53 7.15046 36.5208 7.12713 36.4846 7.09408C36.449 7.06159 36.3802 7.01341 36.2548 6.97215C35.7723 6.81343 35.1049 6.63848 34.8307 6.57083C34.5508 6.50178 34.3807 6.22191 34.4506 5.94572C34.5206 5.66952 34.8042 5.5016 35.0841 5.57065C35.367 5.64046 36.0647 5.82291 36.5851 5.9941C37.0958 6.16208 37.3899 6.47538 37.5092 6.79123C37.5657 6.941 37.586 7.09091 37.5892 7.2211C37.6006 7.69169 37.3398 8.36625 36.5804 9.11574C36.369 9.32437 36.0542 9.47806 35.7337 9.59966C35.398 9.72706 34.9905 9.84276 34.5396 9.94863C33.6367 10.1606 32.5136 10.3437 31.3446 10.4993C29.004 10.8107 26.4318 11.0178 24.9655 11.1212C22.0169 11.329 16.7578 11.33 13.3719 10.9123C11.681 10.7037 9.99115 10.3911 8.64204 10.0778C7.96772 9.92122 7.37318 9.76325 6.90314 9.61642C6.45525 9.4765 6.06063 9.3292 5.83408 9.18015C5.33818 8.8539 5.06078 8.58847 4.86655 8.24289C4.85341 8.21952 4.84195 8.2005 4.82704 8.17576C4.81829 8.16124 4.80835 8.14476 4.7962 8.12427C4.71274 7.98363 4.54973 7.65781 4.58226 7.25029C4.61794 6.80329 4.87831 6.37094 5.4358 6.04104C6.03577 5.68601 6.58591 5.5622 6.99658 5.53101C7.20096 5.51549 7.36961 5.52297 7.49183 5.53545C7.55299 5.5417 7.60271 5.54922 7.63971 5.55581C7.65821 5.5591 7.67356 5.56217 7.6856 5.56474C7.69162 5.56602 7.69681 5.56718 7.70116 5.56818L7.70705 5.56956L7.70951 5.57016L7.71062 5.57043L7.71115 5.57056Z" fill="#316EE8"/>
<path fill-rule="evenodd" clip-rule="evenodd" d="M20.0692 1.18898C18.967 1.41147 17.905 1.80984 17.3901 2.01312C17.0255 2.15702 16.4208 2.50828 15.782 2.91587C15.1671 3.30823 14.5593 3.72755 14.1808 3.99857L10.4392 7.28079C10.2236 7.46993 9.89339 7.45076 9.70173 7.23798C9.51007 7.0252 9.5295 6.69938 9.74511 6.51024L13.5251 3.19439L13.5458 3.17954C13.9352 2.90008 14.5699 2.46159 15.2148 2.05011C15.8471 1.64668 16.5308 1.2419 17.0021 1.05589C17.5318 0.846779 18.6637 0.420382 19.8598 0.178934C20.4577 0.0582392 21.091 -0.0203565 21.6844 0.00463692C22.2728 0.0294206 22.8699 0.158057 23.35 0.496462C24.1467 1.0581 24.5538 1.57369 24.8913 2.07334C24.9564 2.16978 25.0174 2.26269 25.0767 2.35327C25.3217 2.72689 25.5406 3.06077 25.923 3.43813C26.3648 3.87416 26.8543 4.10001 27.4228 4.29517C27.5662 4.34439 27.7207 4.39313 27.8827 4.44422C28.3361 4.58726 28.848 4.74878 29.3392 4.99111C30.0049 5.31962 30.9233 5.90763 31.7024 6.51742C32.0929 6.8231 32.4607 7.14373 32.7493 7.44958C33.0193 7.73577 33.2861 8.07626 33.3732 8.42004C33.4762 8.8265 33.4593 9.10923 33.4157 9.32951C33.4064 9.37663 33.3962 9.41868 33.389 9.44869L33.3882 9.45223C33.3849 9.46578 33.3824 9.47613 33.3805 9.48431C33.4264 9.73267 33.2814 9.98291 33.0317 10.0651C32.758 10.1551 32.4622 10.0091 32.3709 9.73903C32.3152 9.57394 32.3287 9.42902 32.3462 9.33115C32.3539 9.28829 32.3639 9.24637 32.3708 9.21803L32.3717 9.21414C32.3795 9.18167 32.3853 9.15753 32.3904 9.1318C32.406 9.0531 32.4239 8.92344 32.3597 8.67008C32.3423 8.60148 32.2435 8.42649 31.9847 8.15209C31.7443 7.89735 31.42 7.61229 31.0532 7.32517C30.3175 6.74935 29.4598 6.2033 28.872 5.91323C28.4581 5.70903 28.0634 5.58455 27.6364 5.44992C27.4577 5.39356 27.2734 5.33542 27.0796 5.26892C26.4468 5.0517 25.7871 4.76206 25.1843 4.16713C24.7166 3.70565 24.431 3.26841 24.1816 2.88669C24.1272 2.80345 24.0745 2.72285 24.0221 2.64522C23.7328 2.217 23.4085 1.80472 22.7427 1.33539C22.4915 1.15831 22.1223 1.05498 21.6398 1.03466C21.1624 1.01455 20.6204 1.07771 20.0692 1.18898Z" fill="#316EE8"/>

</svg>
