<svg width="39" height="44" viewBox="0 0 39 44" fill="none" xmlns="http://www.w3.org/2000/svg">
<path fill-rule="evenodd" clip-rule="evenodd" d="M5.19265 0.969163C5.09559 0.969163 5.00485 1.01699 4.95041 1.09685L1.08641 6.76517C0.935363 6.98674 0.632166 7.04468 0.409198 6.89459C0.186229 6.74449 0.127922 6.44319 0.278966 6.22162L4.14297 0.553293C4.37886 0.207264 4.77206 0 5.19265 0H32.135C32.66 0 33.1307 0.321577 33.3188 0.80871L38.5384 14.3318C38.5919 14.4705 38.6203 14.6175 38.6223 14.766L38.9999 42.5292C39.0094 43.2317 38.4391 43.8062 37.7322 43.8062H1.4629C0.762687 43.8062 0.195053 43.2421 0.195053 42.5463V31.304C0.195053 31.0363 0.413374 30.8194 0.682686 30.8194C0.951998 30.8194 1.17032 31.0363 1.17032 31.304V42.5463C1.17032 42.7068 1.30131 42.837 1.4629 42.837H37.7322C37.8953 42.837 38.0269 42.7044 38.0247 42.5423L37.6472 14.7791C37.6467 14.7448 37.6401 14.7109 37.6278 14.6789L32.4082 1.15579C32.3648 1.04337 32.2562 0.969163 32.135 0.969163H5.19265Z" fill="#316EE8"/>
<path fill-rule="evenodd" clip-rule="evenodd" d="M0.487633 21.5154C0.756945 21.5154 0.975265 21.7324 0.975265 22V27.6211C0.975265 27.8888 0.756945 28.1057 0.487633 28.1057C0.218321 28.1057 0 27.8888 0 27.6211V22C0 21.7324 0.218321 21.5154 0.487633 21.5154Z" fill="#316EE8"/>
<path fill-rule="evenodd" clip-rule="evenodd" d="M4.58674 6.05058C4.83284 6.15927 4.94368 6.44564 4.8343 6.6902L1.00048 15.2623C0.983856 15.2995 0.975265 15.3397 0.975265 15.3804V18.511C0.975265 18.7786 0.756945 18.9956 0.487633 18.9956C0.218321 18.9956 0 18.7786 0 18.511V15.3804C0 15.2041 0.0372268 15.0298 0.109274 14.8687L3.94309 6.29659C4.05247 6.05202 4.34064 5.94188 4.58674 6.05058Z" fill="#316EE8"/>
<path fill-rule="evenodd" clip-rule="evenodd" d="M0.195053 6.49339C0.195053 6.22577 0.413374 6.00881 0.682686 6.00881H29.5505C29.8199 6.00881 30.0382 6.22577 30.0382 6.49339C30.0382 6.76102 29.8199 6.97797 29.5505 6.97797H0.682686C0.413374 6.97797 0.195053 6.76102 0.195053 6.49339Z" fill="#316EE8"/>
<path fill-rule="evenodd" clip-rule="evenodd" d="M17.7974 19.8481C18.1424 19.7103 18.5329 19.7436 18.8492 19.938L22.3639 22.0974C22.7088 22.3093 22.9188 22.6836 22.9188 23.0866V26.4478C22.9188 26.9255 22.6248 27.3546 22.1776 27.5298L11.7896 31.5988C11.3956 31.7532 10.9485 31.6839 10.6204 31.4178L7.79414 29.1252C7.5259 28.9076 7.3684 28.5831 7.36398 28.2391L7.31512 24.4347C7.31394 24.3423 7.33494 24.2509 7.37638 24.1681C7.44027 24.0406 7.54906 23.9407 7.68211 23.8876L17.7974 19.8481ZM18.4389 20.5975C18.3335 20.5327 18.2033 20.5215 18.0883 20.5675L8.09698 24.5575L8.14413 28.2292C8.1456 28.3439 8.1981 28.452 8.28751 28.5246L11.1138 30.8172C11.2231 30.9059 11.3722 30.929 11.5035 30.8775L21.8915 26.8084C22.0406 26.7501 22.1385 26.607 22.1385 26.4478V23.0866C22.1385 22.9522 22.0686 22.8275 21.9536 22.7568L18.4389 20.5975Z" fill="#316EE8"/>
<path fill-rule="evenodd" clip-rule="evenodd" d="M16.9516 24.9207C17.0284 25.1207 16.9276 25.3448 16.7263 25.4211L11.9506 27.2334C11.8012 27.2901 11.7018 27.4316 11.6997 27.5906L11.6523 31.2625C11.6495 31.4765 11.4726 31.6479 11.2572 31.6451C11.0418 31.6424 10.8694 31.4666 10.8721 31.2525L10.9196 27.5806C10.9257 27.1039 11.2241 26.6791 11.6723 26.5091L16.448 24.6968C16.6492 24.6204 16.8747 24.7207 16.9516 24.9207Z" fill="#316EE8"/>
<path fill-rule="evenodd" clip-rule="evenodd" d="M20.213 23.8C20.2899 24 20.189 24.2241 19.9878 24.3005L17.9865 25.0599C17.7852 25.1363 17.5598 25.0361 17.4829 24.836C17.4061 24.636 17.5069 24.412 17.7082 24.3356L19.7094 23.5762C19.9107 23.4998 20.1362 23.6 20.213 23.8Z" fill="#316EE8"/>
<path fill-rule="evenodd" clip-rule="evenodd" d="M22.7447 22.7223C22.8216 22.9223 22.7207 23.1464 22.5194 23.2228L21.5188 23.6025C21.3175 23.6788 21.0921 23.5786 21.0152 23.3786C20.9383 23.1786 21.0392 22.9545 21.2405 22.8782L22.2411 22.4984C22.4424 22.4221 22.6678 22.5223 22.7447 22.7223ZM11.3215 26.6714C11.5369 26.6741 11.7093 26.8499 11.7065 27.064L11.6523 31.2625C11.6495 31.4765 11.4726 31.6479 11.2572 31.6451C11.0418 31.6424 10.8694 31.4666 10.8721 31.2525L10.9264 27.054C10.9291 26.84 11.106 26.6686 11.3215 26.6714Z" fill="#316EE8"/>
<path fill-rule="evenodd" clip-rule="evenodd" d="M7.54504 24.0958C7.67732 23.9268 7.92242 23.8963 8.09248 24.0278L11.5761 26.7205C11.7462 26.8519 11.7768 27.0955 11.6445 27.2645C11.5123 27.4335 11.2672 27.4639 11.0971 27.3325L7.61346 24.6398C7.4434 24.5083 7.41277 24.2648 7.54504 24.0958Z" fill="#316EE8"/>
<path fill-rule="evenodd" clip-rule="evenodd" d="M29.9302 10.3092C30.1795 10.4105 30.2989 10.6935 30.1969 10.9412L28.4995 15.0644C28.4851 15.0993 28.4777 15.1367 28.4777 15.1745V43.5154C28.4777 43.783 28.2693 43.5 28 43.5C27.7307 43.5 27.5025 43.783 27.5025 43.5154V15.1745C27.5025 15.0109 27.5345 14.8489 27.5969 14.6974L29.2943 10.5742C29.3962 10.3265 29.681 10.2079 29.9302 10.3092Z" fill="#316EE8"/>

</svg>
