<svg width="56" height="38" viewBox="0 0 56 38" fill="none" xmlns="http://www.w3.org/2000/svg">
<path fill-rule="evenodd" clip-rule="evenodd" d="M35.6576 1.12649C35.5672 1.06781 35.4533 1.05768 35.3539 1.09949L2.51165 14.9035C2.40427 14.9487 2.32954 15.0476 2.31591 15.1626L1.97244 18.0631C1.96505 18.1255 1.97618 18.1886 2.00446 18.2448L2.23001 18.693C2.32758 18.8868 2.37838 19.1006 2.37838 19.3174V19.4031C2.37838 19.7734 2.23031 20.1285 1.96674 20.3903L1.88687 20.4697C1.86222 20.4942 1.8417 20.5225 1.82611 20.5534L1.51921 21.1632C1.50362 21.1942 1.49316 21.2275 1.48823 21.2618L1.08328 24.0779C1.08181 24.0881 1.08108 24.0984 1.08108 24.1086C1.08108 24.1767 1.11329 24.2409 1.16807 24.2819L17.9815 36.8611C18.0738 36.9302 18.1962 36.9453 18.3027 36.9006L54.7207 21.6338C54.8408 21.5835 54.9189 21.4665 54.9189 21.337V19.0392C54.9189 19.0045 54.9133 18.9701 54.9023 18.9373L54.5337 17.8387C54.5288 17.8242 54.5229 17.8101 54.5161 17.7965L54.2616 17.2908C54.1043 16.9783 54.0707 16.6187 54.1673 16.2828L54.474 15.2162C54.4823 15.1875 54.4865 15.1577 54.4865 15.1277V14.5299C54.4865 14.4445 54.4523 14.3625 54.3915 14.3021L51.465 11.3947C51.4492 11.379 51.4318 11.365 51.413 11.3528L35.6576 1.12649ZM34.9326 0.110353C35.3636 -0.0708043 35.8571 -0.0269385 36.2489 0.227357L52.0043 10.4537C52.0855 10.5063 52.1609 10.5672 52.2294 10.6353L55.1559 13.5427C55.4195 13.8045 55.5676 14.1596 55.5676 14.5299V15.1277C55.5676 15.2575 55.5494 15.3866 55.5135 15.5113L55.2068 16.5779C55.1845 16.6554 55.1922 16.7384 55.2285 16.8105L55.483 17.3161C55.5128 17.3752 55.5382 17.4363 55.5593 17.499L55.9279 18.5976C55.9756 18.74 56 18.8891 56 19.0392V21.337C56 21.8983 55.6616 22.4051 55.141 22.6234L18.723 37.8902C18.2615 38.0836 17.7312 38.0184 17.3311 37.7191L0.517716 25.1398C0.191722 24.8959 0 24.514 0 24.1086C0 24.0475 0.00436422 23.9865 0.0130598 23.9261L0.418017 21.1099C0.439379 20.9613 0.48471 20.8171 0.552264 20.6829L0.859166 20.0731C0.92672 19.9389 1.01561 19.8164 1.12243 19.7102L1.2023 19.6309C1.26313 19.5705 1.2973 19.4885 1.2973 19.4031V19.3174C1.2973 19.2674 1.28557 19.218 1.26306 19.1733L1.03751 18.7251C0.914977 18.4817 0.86675 18.2079 0.898764 17.9376L1.24224 15.0371C1.30127 14.5386 1.6251 14.11 2.09041 13.9144L34.9326 0.110353Z" fill="#316EE8"/>
<path fill-rule="evenodd" clip-rule="evenodd" d="M17.9387 26.5717C18.0921 26.3898 18.3648 26.3658 18.5479 26.5181L19.092 26.9709L26.6631 33.5523C26.8429 33.7085 26.8611 33.98 26.7038 34.1585C26.5466 34.3371 26.2734 34.3552 26.0936 34.1989L18.5296 27.6236L17.9926 27.1768C17.8095 27.0245 17.7854 26.7536 17.9387 26.5717Z" fill="#316EE8"/>
<path fill-rule="evenodd" clip-rule="evenodd" d="M17.9548 29.5408C18.1181 29.3677 18.3918 29.3589 18.566 29.5212L19.4255 30.3217L23.748 34.0792L24.4003 34.6732C24.5764 34.8336 24.5883 35.1053 24.4269 35.2802C24.2655 35.4551 23.992 35.4669 23.8159 35.3066L23.1709 34.7192L18.8448 30.9586L17.9745 30.148C17.8003 29.9858 17.7915 29.7139 17.9548 29.5408Z" fill="#316EE8"/>
<path fill-rule="evenodd" clip-rule="evenodd" d="M17.9651 32.5534C18.118 32.3711 18.3907 32.3465 18.5741 32.4984L22.2228 35.5191C22.4063 35.671 22.431 35.9419 22.2781 36.1242C22.1253 36.3064 21.8526 36.3311 21.6691 36.1792L18.0205 33.1585C17.837 33.0066 17.8122 32.7357 17.9651 32.5534Z" fill="#316EE8"/>
<path fill-rule="evenodd" clip-rule="evenodd" d="M52.2765 10.9459C52.3993 11.2163 52.2782 11.5343 52.0061 11.6563L47.5737 13.6432C47.3016 13.7652 46.9814 13.6449 46.8586 13.3746C46.7359 13.1043 46.8569 12.7862 47.129 12.6642L51.5615 10.6773C51.8336 10.5553 52.1537 10.6756 52.2765 10.9459ZM1.60809 14.515C1.77679 14.2703 2.11321 14.2078 2.35951 14.3754L17.7531 24.8501C17.8443 24.9122 17.961 24.9238 18.0628 24.881L30.2759 19.7477L30.2796 19.7461L34.0634 18.1888C34.3392 18.0753 34.6554 18.2054 34.7697 18.4794C34.8839 18.7534 34.753 19.0675 34.4772 19.1811L30.6971 20.7368L30.6934 20.7384L18.484 25.8702C18.043 26.0555 17.5373 26.0051 17.1422 25.7362L1.7486 15.2615C1.5023 15.0939 1.43939 14.7597 1.60809 14.515Z" fill="#316EE8"/>
<path fill-rule="evenodd" clip-rule="evenodd" d="M44.4978 14.3944C44.6141 14.6676 44.4856 14.9827 44.2106 15.0982L37.8863 17.7564C37.6114 17.872 37.2942 17.7442 37.1779 17.4711C37.0615 17.198 37.1901 16.8828 37.4651 16.7673L43.7894 14.1091C44.0643 13.9935 44.3815 14.1213 44.4978 14.3944Z" fill="#316EE8"/>
<path fill-rule="evenodd" clip-rule="evenodd" d="M18.5946 25.3439V37.8025H17.5135V25.3439H18.5946Z" fill="#316EE8"/>

</svg>
