<svg width="198" height="46" viewBox="0 0 198 46" fill="none" xmlns="http://www.w3.org/2000/svg">
<path d="M57.9485 32.8651H65.0702C68.2944 32.8651 70.8445 31.3294 70.8445 27.844C70.8445 24.3585 68.4868 22.9203 65.0702 22.9203H60.5229V18.8011H68.7031V16.315H57.9482V32.8651H57.9485ZM60.5232 30.3791V25.2847H64.8778C66.2252 25.2847 68.0778 25.5771 68.0778 27.7953C68.0778 30.0135 66.2252 30.3791 64.8778 30.3791H60.5232ZM76.5949 30.3791V25.2847H84.0055V22.7983H76.5949V18.8008H85.9062V16.3147H73.9725V32.8648H86.0505V30.3788H76.5949V30.3791ZM87.7587 32.8651H90.8144L93.2925 26.8204L96.324 19.6056L99.3315 26.8204L101.81 32.8651H104.865L97.6953 16.315H94.9282L87.7584 32.8651H87.7587ZM107.536 32.8651H114.658C117.881 32.8651 120.432 31.3294 120.432 27.844C120.432 24.3585 118.074 22.9203 114.658 22.9203H110.158V16.315H107.536V32.8651ZM121.635 32.8651H124.257V16.315H121.635V32.8651ZM110.11 30.3791V25.2847H114.465C115.813 25.2847 117.665 25.5771 117.665 27.7953C117.665 30.0135 115.813 30.3791 114.465 30.3791H110.11ZM153.057 32.8651H155.751V24.8949L163.907 32.8651H167.444L158.494 23.9442L166.843 16.315H163.33L155.751 23.1885V16.315H153.057V32.8651ZM172.761 33.231C175.167 33.231 176.106 32.2317 177.405 28.9899L182.458 16.3153H179.57C179.57 16.3153 177.525 21.7995 175.865 25.9675L171.077 16.3153H168.118L174.758 28.9899C174.446 29.7698 174.085 30.7205 172.497 30.7205C171.197 30.7205 170.091 29.7943 170.091 29.7943V32.3049C170.091 32.3049 171.294 33.2313 172.761 33.2313L172.761 33.231ZM185.104 32.8651H192.226C195.45 32.8651 198 31.3294 198 27.844C198 24.3585 195.642 22.9203 192.226 22.9203H187.679V18.8011H195.859V16.315H185.104V32.8651ZM187.679 30.3791V25.2847H192.033C193.381 25.2847 195.233 25.5771 195.233 27.7953C195.233 30.0135 193.381 30.3791 192.033 30.3791H187.679Z" fill="black"/>
<path d="M128.588 32.8652H131.403L139.872 20.0932V32.8652H142.47V16.3151H139.631L131.186 28.8679V16.3151H128.588V32.8652Z" fill="black"/>
<path d="M139.253 12.36H131.805V14.9926H139.253V12.36Z" fill="black"/>
<path fill-rule="evenodd" clip-rule="evenodd" d="M33.406 6.52465V19.5471L27.8206 16.2982L22.262 13.0224L16.7031 16.2982L11.1445 19.5471V6.52465L16.7031 3.24859L22.262 0L27.8206 3.24859L33.406 6.52465Z" fill="black"/>
<path fill-rule="evenodd" clip-rule="evenodd" d="M44.5232 26.0449V39.0945L38.9643 42.3434L33.4057 45.5919L27.8203 42.3434L22.2617 39.0945L27.8203 35.8184L33.4057 32.5695V19.5471L38.9643 22.796L44.5232 26.0449Z" fill="#FF6600"/>
<path fill-rule="evenodd" clip-rule="evenodd" d="M22.2614 39.0945L16.7026 42.3434L11.144 45.5919L5.55858 42.3434L0 39.0945V26.0449L5.55858 22.796L11.144 19.5471V32.5695L16.7026 35.8184L22.2614 39.0945Z" fill="#316EE8"/>
<path fill-rule="evenodd" clip-rule="evenodd" d="M33.4055 32.5698V19.5471L27.82 16.2985L22.2615 13.0224L16.7026 16.2985L11.1172 19.5471V32.5698L16.7026 29.3209L22.2615 26.072L27.82 29.3209L33.4055 32.5698Z" fill="#E6E6E6"/>
<path fill-rule="evenodd" clip-rule="evenodd" d="M33.4055 19.5471V32.5695L27.82 35.8184L22.2615 39.0945L16.7026 35.8184L11.1172 32.5695V19.5471L16.7026 22.796L22.2615 26.0449L27.82 22.796L33.4055 19.5471Z" fill="white"/>
</svg>
