<svg width="360" height="163" viewBox="0 0 360 163" fill="none" xmlns="http://www.w3.org/2000/svg">
<rect width="360" height="163" fill="#316EE8"/>
<mask id="mask0_147_5833" style="mask-type:alpha" maskUnits="userSpaceOnUse" x="0" y="0" width="360" height="163">
<rect width="360" height="163" fill="#EA0C00"/>
</mask>
<g mask="url(#mask0_147_5833)">
<path d="M348.154 85.9118C351.18 87.4316 354.11 89.1889 356.923 91.1499C362 94.6917 366.601 98.7827 370.769 103.373C376.325 109.494 380.884 116.302 384.468 123.778C386.734 128.505 388.528 133.411 389.948 138.462C390.058 138.85 390.021 138.996 389.562 138.996C379.973 138.984 370.383 138.983 360.794 139C360.285 139.001 360.196 138.733 360.076 138.359C357.973 131.847 354.96 125.807 350.836 120.36C344.576 112.094 336.696 106.095 326.8 102.948C324.025 102.066 321.183 101.506 318.3 101.145C317.958 101.103 317.855 101.211 317.884 101.534C317.899 101.698 317.887 101.865 317.887 102.031C317.887 114.084 317.887 126.139 317.887 138.192C317.887 138.986 317.887 138.984 317.09 138.986C313.259 139.004 309.429 138.938 305.609 138.631C291.121 137.464 277.458 133.602 265.022 125.807C259.164 122.136 253.887 117.739 249.18 112.645C240.038 102.753 233.731 91.1822 229.391 78.4541C227.051 71.5918 225.363 64.5629 224.193 57.4023C223.4 52.5444 222.833 47.6642 222.47 42.7554C222.249 39.7617 222.15 36.763 222.004 33.7655C221.976 33.1889 222.083 32.9988 222.709 33C231.848 33.0236 240.987 33.0199 250.125 33.0062C250.602 33.005 250.778 33.0758 250.787 33.6276C250.864 37.9324 251.143 42.2248 251.612 46.506C252.458 54.2234 253.96 61.7953 256.416 69.161C258.553 75.5685 261.368 81.6442 265.159 87.2328C269.573 93.7385 274.974 99.1916 281.853 103.039C284.325 104.422 286.921 105.513 289.654 106.265C290.196 106.414 290.316 106.31 290.313 105.763C290.297 101.31 290.305 96.8577 290.305 92.405C290.305 72.8954 290.305 53.3858 290.306 33.8761C290.306 32.8608 290.209 33.0211 291.151 33.0199C299.819 33.0149 308.486 33.0236 317.154 33.0037C317.736 33.0025 317.9 33.1293 317.899 33.7419C317.879 47.2243 317.884 60.7079 317.884 74.1903C317.884 74.9745 317.882 74.9521 318.669 74.8316C324.567 73.9207 329.657 71.209 334.307 67.5765C341.454 61.9942 346.877 54.9553 351.136 46.9584C353.426 42.6573 355.245 38.1611 356.542 33.4536C356.632 33.128 356.766 33.0075 357.124 33.0087C365.873 33.0211 374.622 33.0186 383.373 33.0199C383.492 33.0199 383.613 33.0423 383.875 33.0684C379.292 55.7793 366.944 73.0296 348.154 85.9118Z" fill="#6A98F4"/>
</g>
</svg>
