<?xml version="1.0" standalone="no"?>
<!DOCTYPE svg PUBLIC "-//W3C//DTD SVG 20010904//EN"
 "http://www.w3.org/TR/2001/REC-SVG-20010904/DTD/svg10.dtd">
<svg version="1.0" xmlns="http://www.w3.org/2000/svg"
 width="122.000000pt" height="122.000000pt" viewBox="0 0 122.000000 122.000000"
 preserveAspectRatio="xMidYMid meet">
<metadata>
Created by potrace 1.14, written by Peter Selinger 2001-2017
</metadata>
<g transform="translate(0.000000,122.000000) scale(0.100000,-0.100000)"
fill="#000000" stroke="none">
<path d="M467 1134 l-147 -86 0 -173 0 -174 113 65 c61 37 128 75 147 86 l35
20 128 -76 c71 -42 137 -81 148 -87 18 -9 19 -4 19 164 l0 173 -127 74 c-71
41 -137 80 -148 87 -19 11 -36 4 -168 -73z"/>
<path d="M163 607 l-142 -82 -1 -171 0 -172 128 -75 c70 -41 137 -79 149 -86
19 -10 39 -1 162 71 78 45 141 85 141 88 0 3 -65 43 -145 89 l-145 83 -2 169
-3 168 -142 -82z"/>
<path d="M910 518 l0 -173 -140 -80 c-77 -44 -140 -82 -140 -85 0 -3 63 -43
140 -87 l139 -82 146 86 145 85 0 172 0 171 -103 59 c-56 33 -121 71 -144 84
l-43 24 0 -174z"/>
</g>
</svg>
