<svg width="384" height="36" viewBox="0 0 384 36" fill="none" xmlns="http://www.w3.org/2000/svg">
<path fill-rule="evenodd" clip-rule="evenodd" d="M0.25 1.5C0.25 1.08579 0.585786 0.75 1 0.75H5.88889C6.3031 0.75 6.63889 1.08579 6.63889 1.5C6.63889 1.91421 6.3031 2.25 5.88889 2.25H1C0.585786 2.25 0.25 1.91421 0.25 1.5ZM14.9167 1.5C14.9167 1.08579 15.2525 0.75 15.6667 0.75H25.4444C25.8587 0.75 26.1944 1.08579 26.1944 1.5C26.1944 1.91421 25.8587 2.25 25.4444 2.25H15.6667C15.2525 2.25 14.9167 1.91421 14.9167 1.5ZM34.4722 1.5C34.4722 1.08579 34.808 0.75 35.2222 0.75H45C45.4142 0.75 45.75 1.08579 45.75 1.5C45.75 1.91421 45.4142 2.25 45 2.25H35.2222C34.808 2.25 34.4722 1.91421 34.4722 1.5ZM54.0278 1.5C54.0278 1.08579 54.3636 0.75 54.7778 0.75H64.5556C64.9698 0.75 65.3056 1.08579 65.3056 1.5C65.3056 1.91421 64.9698 2.25 64.5556 2.25H54.7778C54.3636 2.25 54.0278 1.91421 54.0278 1.5ZM73.5833 1.5C73.5833 1.08579 73.9191 0.75 74.3333 0.75H84.1111C84.5253 0.75 84.8611 1.08579 84.8611 1.5C84.8611 1.91421 84.5253 2.25 84.1111 2.25H74.3333C73.9191 2.25 73.5833 1.91421 73.5833 1.5ZM93.1389 1.5C93.1389 1.08579 93.4747 0.75 93.8889 0.75H103.667C104.081 0.75 104.417 1.08579 104.417 1.5C104.417 1.91421 104.081 2.25 103.667 2.25H93.8889C93.4747 2.25 93.1389 1.91421 93.1389 1.5ZM112.694 1.5C112.694 1.08579 113.03 0.75 113.444 0.75H123.222C123.636 0.75 123.972 1.08579 123.972 1.5C123.972 1.91421 123.636 2.25 123.222 2.25H113.444C113.03 2.25 112.694 1.91421 112.694 1.5ZM132.25 1.5C132.25 1.08579 132.586 0.75 133 0.75H142.778C143.192 0.75 143.528 1.08579 143.528 1.5C143.528 1.91421 143.192 2.25 142.778 2.25H133C132.586 2.25 132.25 1.91421 132.25 1.5ZM151.806 1.5C151.806 1.08579 152.141 0.75 152.556 0.75H162.333C162.748 0.75 163.083 1.08579 163.083 1.5C163.083 1.91421 162.748 2.25 162.333 2.25H152.556C152.141 2.25 151.806 1.91421 151.806 1.5ZM171.361 1.5C171.361 1.08579 171.697 0.75 172.111 0.75H181.889C182.303 0.75 182.639 1.08579 182.639 1.5C182.639 1.91421 182.303 2.25 181.889 2.25H172.111C171.697 2.25 171.361 1.91421 171.361 1.5ZM190.917 1.5C190.917 1.08579 191.252 0.75 191.667 0.75H201.444C201.859 0.75 202.194 1.08579 202.194 1.5C202.194 1.91421 201.859 2.25 201.444 2.25H191.667C191.252 2.25 190.917 1.91421 190.917 1.5ZM210.472 1.5C210.472 1.08579 210.808 0.75 211.222 0.75H221C221.414 0.75 221.75 1.08579 221.75 1.5C221.75 1.91421 221.414 2.25 221 2.25H211.222C210.808 2.25 210.472 1.91421 210.472 1.5ZM230.028 1.5C230.028 1.08579 230.364 0.75 230.778 0.75H240.555C240.97 0.75 241.305 1.08579 241.305 1.5C241.305 1.91421 240.97 2.25 240.555 2.25H230.778C230.364 2.25 230.028 1.91421 230.028 1.5ZM249.583 1.5C249.583 1.08579 249.919 0.75 250.333 0.75H260.111C260.525 0.75 260.861 1.08579 260.861 1.5C260.861 1.91421 260.525 2.25 260.111 2.25H250.333C249.919 2.25 249.583 1.91421 249.583 1.5ZM269.139 1.5C269.139 1.08579 269.475 0.75 269.889 0.75H279.667C280.081 0.75 280.417 1.08579 280.417 1.5C280.417 1.91421 280.081 2.25 279.667 2.25H269.889C269.475 2.25 269.139 1.91421 269.139 1.5ZM288.694 1.5C288.694 1.08579 289.03 0.75 289.444 0.75H299.222C299.636 0.75 299.972 1.08579 299.972 1.5C299.972 1.91421 299.636 2.25 299.222 2.25H289.444C289.03 2.25 288.694 1.91421 288.694 1.5ZM308.25 1.5C308.25 1.08579 308.586 0.75 309 0.75H318.778C319.192 0.75 319.528 1.08579 319.528 1.5C319.528 1.91421 319.192 2.25 318.778 2.25H309C308.586 2.25 308.25 1.91421 308.25 1.5ZM327.805 1.5C327.805 1.08579 328.141 0.75 328.555 0.75H338.333C338.747 0.75 339.083 1.08579 339.083 1.5C339.083 1.91421 338.747 2.25 338.333 2.25H328.555C328.141 2.25 327.805 1.91421 327.805 1.5ZM347.361 1.5C347.361 1.08579 347.697 0.75 348.111 0.75H353C353.214 0.75 353.417 0.840985 353.559 1.00015L357.247 5.12515C357.523 5.43396 357.496 5.90809 357.187 6.18415C356.879 6.46021 356.404 6.43366 356.128 6.12485L352.664 2.25H348.111C347.697 2.25 347.361 1.91421 347.361 1.5ZM363.563 13.3158C363.871 13.0398 364.346 13.0663 364.622 13.3752L371.997 21.6252C372.273 21.934 372.246 22.4081 371.937 22.6842C371.629 22.9602 371.154 22.9337 370.878 22.6248L363.503 14.3748C363.227 14.066 363.254 13.5919 363.563 13.3158ZM378.313 29.8158C378.621 29.5398 379.096 29.5663 379.372 29.8751L383.059 34.0002C383.335 34.309 383.309 34.7831 383 35.0592C382.691 35.3352 382.217 35.3087 381.941 34.9998L378.253 30.8748C377.977 30.566 378.004 30.0919 378.313 29.8158Z" fill="#C9DBE9"/>
</svg>
