<svg width="360" height="163" viewBox="0 0 360 163" fill="none" xmlns="http://www.w3.org/2000/svg">
<rect width="360" height="163" fill="#EA0C00"/>
<mask id="mask0_147_5832" style="mask-type:alpha" maskUnits="userSpaceOnUse" x="0" y="0" width="360" height="163">
<rect width="360" height="163" fill="#EA0C00"/>
</mask>
<g mask="url(#mask0_147_5832)">
<path d="M315.753 30.0715C304.992 30.0715 297.164 29.8863 289.342 30.112C275.529 30.5057 261.703 30.8588 247.944 32.3176C238.394 33.3307 231.011 39.4033 228.518 48.3704C226.826 54.472 226.11 60.7241 225.646 66.9993C224.791 78.6236 224.941 90.271 225.212 101.901C225.429 110.92 226.194 119.928 228.332 128.773C230.56 138.001 238.677 144.514 248.462 145.417C259.915 146.476 271.38 147.02 282.863 147.483C301.813 148.253 320.769 148.022 339.713 147.692C352.388 147.472 365.076 146.783 377.709 145.417C387.735 144.334 395.25 138.505 397.683 129.196C399.26 123.152 400.001 116.987 400.441 110.77C401.296 98.7055 400.952 86.6297 400.814 74.5655C400.718 66.2699 399.893 57.9801 397.966 49.8408C395.539 39.5712 388.102 33.2902 377.233 32.2598C366.16 31.212 355.05 30.8415 343.934 30.3725C333.559 29.9268 323.19 30.3262 315.753 30.0715ZM290.721 90.5836C290.721 82.3459 290.715 74.1082 290.721 65.8647C290.721 63.2191 290.763 63.196 293.286 64.4522C296.424 66.0152 299.543 67.613 302.68 69.1702C316.096 75.8506 329.512 82.5195 342.922 89.2116C343.555 89.5242 344.494 89.6631 344.494 90.5604C344.494 91.2261 343.747 91.4056 343.23 91.6603C326.423 100.06 309.605 108.437 292.817 116.86C290.986 117.78 290.685 117.207 290.697 115.505C290.745 107.209 290.721 98.8965 290.721 90.5836Z" fill="#F13C32"/>
</g>
</svg>
