<svg width="30" height="30" viewBox="0 0 30 30" fill="none" xmlns="http://www.w3.org/2000/svg">
<circle cx="14.6752" cy="14.6752" r="14.1752" stroke="currentColor"/>
<path d="M19.0147 14.9917C19.3029 15.1351 19.5819 15.3008 19.8498 15.4858C20.3333 15.82 20.7715 16.2059 21.1685 16.639C21.6976 17.2164 22.1318 17.8586 22.4732 18.5639C22.689 19.0099 22.8598 19.4728 22.9951 19.9492C23.0055 19.9858 23.002 19.9996 22.9583 19.9996C22.0451 19.9985 21.1317 19.9984 20.2185 20C20.17 20.0001 20.1615 19.9748 20.1501 19.9395C19.9498 19.3252 19.6628 18.7554 19.2701 18.2415C18.6739 17.4617 17.9234 16.8958 16.9809 16.5989C16.7166 16.5157 16.446 16.4628 16.1714 16.4288C16.1389 16.4248 16.129 16.435 16.1318 16.4655C16.1332 16.481 16.1321 16.4967 16.1321 16.5124C16.1321 17.6495 16.1321 18.7867 16.1321 19.9238C16.1321 19.9987 16.1321 19.9985 16.0562 19.9987C15.6913 20.0004 15.3266 19.9941 14.9627 19.9652C13.583 19.8551 12.2818 19.4907 11.0973 18.7554C10.5395 18.4091 10.0369 17.9943 9.58861 17.5137C8.71787 16.5805 8.11727 15.4889 7.70391 14.2881C7.48108 13.6407 7.3203 12.9776 7.20882 12.3021C7.13329 11.8438 7.07931 11.3834 7.04477 10.9203C7.02369 10.6379 7.01432 10.355 7.00039 10.0722C6.99769 10.0178 7.00788 9.99988 7.06749 10C7.93788 10.0022 8.80827 10.0019 9.67854 10.0006C9.72398 10.0005 9.74072 10.0072 9.74166 10.0592C9.74892 10.4653 9.7755 10.8703 9.82023 11.2742C9.9008 12.0022 10.0438 12.7165 10.2777 13.4114C10.4813 14.0159 10.7493 14.5891 11.1104 15.1163C11.5308 15.73 12.0451 16.2445 12.7003 16.6075C12.9358 16.7379 13.1829 16.8409 13.4433 16.9118C13.4949 16.9259 13.5063 16.916 13.506 16.8644C13.5045 16.4444 13.5052 16.0243 13.5052 15.6042C13.5052 13.7637 13.5052 11.9232 13.5053 10.0827C13.5053 9.98687 13.4961 10.002 13.5858 10.0019C14.4113 10.0014 15.2367 10.0022 16.0623 10.0004C16.1177 10.0002 16.1334 10.0122 16.1332 10.07C16.1314 11.3419 16.1318 12.614 16.1318 13.8859C16.1318 13.9599 16.1316 13.9577 16.2065 13.9464C16.7683 13.8604 17.2531 13.6046 17.6959 13.2619C18.3766 12.7353 18.893 12.0713 19.2986 11.3168C19.5168 10.9111 19.69 10.4869 19.8135 10.0428C19.8221 10.0121 19.8348 10.0007 19.8689 10.0008C20.7022 10.002 21.5355 10.0018 22.3688 10.0019C22.3802 10.0019 22.3917 10.004 22.4166 10.0064C21.9802 12.149 20.8042 13.7764 19.0147 14.9917Z" fill="currentColor"/>
</svg>
