<svg width="18" height="18" viewBox="0 0 18 18" fill="none" xmlns="http://www.w3.org/2000/svg">
<path d="M12.1515 9.3304H12.1587M8.94432 9.3304H8.95152M5.73712 9.3304H5.74432M14.6571 14.6559C12.2122 17.1011 8.59182 17.6294 5.62913 16.2592C5.19177 16.0831 4.83319 15.9408 4.4923 15.9408C3.54279 15.9464 2.36093 16.8671 1.74669 16.2536C1.13244 15.6393 2.05381 14.4565 2.05381 13.5012C2.05381 13.1603 1.91713 12.8081 1.74106 12.3699C0.370265 9.4077 0.899287 5.78615 3.34421 3.34177C6.46528 0.219546 11.536 0.219546 14.6571 3.34096C17.7838 6.46801 17.7782 11.5345 14.6571 14.6559Z" stroke="#8CAEF3" stroke-width="2" stroke-linecap="round" stroke-linejoin="round"/>
</svg>
