<svg width="15" height="17" viewBox="0 0 15 17" fill="none" xmlns="http://www.w3.org/2000/svg">
<path fill-rule="evenodd" clip-rule="evenodd" d="M1 7.28252C1.0122 3.80097 3.93222 0.988209 7.52207 1.00004C11.1119 1.01187 14.0122 3.84381 14 7.32536V7.39675C13.9558 9.65987 12.6529 11.7517 11.0555 13.3865C10.1419 14.3066 9.12174 15.1211 8.01527 15.8139C7.71941 16.062 7.28056 16.062 6.98469 15.8139C5.33521 14.7726 3.8875 13.458 2.70781 11.9301C1.65637 10.5978 1.0594 8.98072 1 7.30394V7.28252Z" stroke="#316EE8" stroke-width="1.5" stroke-linecap="round" stroke-linejoin="round"/>
<path d="M9.58321 7.40389C9.58321 8.51972 8.65052 9.42428 7.49998 9.42428C6.34944 9.42428 5.41675 8.51972 5.41675 7.40389C5.41675 6.28806 6.34944 5.3835 7.49998 5.3835C8.65052 5.3835 9.58321 6.28806 9.58321 7.40389Z" stroke="#316EE8" stroke-width="1.5" stroke-linecap="round" stroke-linejoin="round"/>
</svg>
