<svg width="25" height="25" viewBox="0 0 25 25" fill="none" xmlns="http://www.w3.org/2000/svg">
<path fill-rule="evenodd" clip-rule="evenodd" d="M12.75 0C13.5784 0 14.25 0.671573 14.25 1.5V23C14.25 23.8284 13.5784 24.5 12.75 24.5C11.9216 24.5 11.25 23.8284 11.25 23V1.5C11.25 0.671573 11.9216 0 12.75 0Z" fill="currentColor"/>
<path fill-rule="evenodd" clip-rule="evenodd" d="M25 12.25C25 13.0784 24.3284 13.75 23.5 13.75L2 13.75C1.17157 13.75 0.5 13.0784 0.5 12.25C0.5 11.4216 1.17157 10.75 2 10.75L23.5 10.75C24.3284 10.75 25 11.4216 25 12.25Z" fill="currentColor"/>
</svg>
