<svg width="30" height="30" viewBox="0 0 30 30" fill="none" xmlns="http://www.w3.org/2000/svg">
<path d="M29.0125 14.6752C29.0125 22.504 22.6661 28.8504 14.8373 28.8504C7.00857 28.8504 0.662109 22.504 0.662109 14.6752C0.662109 6.84646 7.00857 0.5 14.8373 0.5C22.6661 0.5 29.0125 6.84646 29.0125 14.6752Z" stroke="currentColor"/>
<path d="M15.0787 9.64699C14.1287 9.64699 13.4376 9.63073 12.747 9.65055C11.5275 9.68511 10.3068 9.71611 9.09206 9.84418C8.24889 9.93312 7.59712 10.4662 7.37702 11.2535C7.22763 11.7891 7.16437 12.338 7.12344 12.8889C7.04794 13.9094 7.06123 14.9319 7.08516 15.9529C7.1043 16.7447 7.17181 17.5355 7.36054 18.3121C7.55724 19.1222 8.27388 19.6939 9.13778 19.7732C10.1489 19.8662 11.1612 19.914 12.175 19.9546C13.848 20.0222 15.5216 20.0019 17.1941 19.9729C18.3132 19.9536 19.4333 19.8931 20.5487 19.7732C21.4338 19.6782 22.0973 19.1664 22.3121 18.3492C22.4514 17.8186 22.5168 17.2774 22.5556 16.7315C22.6311 15.6724 22.6008 14.6123 22.5885 13.5531C22.58 12.8249 22.5072 12.0971 22.3371 11.3826C22.1228 10.481 21.4663 9.92956 20.5067 9.8391C19.529 9.74711 18.5482 9.71459 17.5668 9.67342C16.6508 9.63429 15.7353 9.66935 15.0787 9.64699ZM12.8688 14.9594C12.8688 14.2362 12.8682 13.513 12.8688 12.7893C12.8688 12.557 12.8725 12.555 13.0952 12.6653C13.3722 12.8025 13.6476 12.9428 13.9246 13.0795C15.109 13.666 16.2935 14.2514 17.4774 14.8389C17.5333 14.8664 17.6162 14.8786 17.6162 14.9573C17.6162 15.0158 17.5503 15.0315 17.5046 15.0539C16.0208 15.7913 14.5359 16.5267 13.0538 17.2662C12.8921 17.347 12.8656 17.2967 12.8666 17.1473C12.8709 16.419 12.8688 15.6892 12.8688 14.9594Z" fill="currentColor"/>
</svg>
