<svg width="16" height="16" viewBox="0 0 16 16" fill="none" xmlns="http://www.w3.org/2000/svg">
<path d="M14.9996 11.4819V13.5894C15.0028 14.3951 14.2784 15.0679 13.465 14.9945C6.44446 15 1 9.50499 1.00549 2.53159C0.932236 1.72251 1.60167 1.00082 2.40631 1.00007H4.51809C4.85971 0.996713 5.1909 1.11745 5.44992 1.33977C6.18634 1.97183 6.66001 4.11716 6.47776 4.96999C6.33547 5.63584 5.66427 6.10167 5.20794 6.5571C6.21002 8.31592 7.66919 9.7722 9.4315 10.7723C9.88783 10.3169 10.3546 9.647 11.0218 9.50499C11.8776 9.32283 14.0367 9.79717 14.6663 10.5387C14.8895 10.8016 15.0081 11.1373 14.9996 11.4819Z" stroke="currentColor" stroke-width="1.5" stroke-linecap="round" stroke-linejoin="round"/>
</svg>
