<svg width="17" height="17" viewBox="0 0 17 17" fill="none" xmlns="http://www.w3.org/2000/svg">
<path fill-rule="evenodd" clip-rule="evenodd" d="M7.76687 2.48514C6.87655 1.99145 5.73675 1.83703 4.03356 2.19706L4.03309 2.19716C2.79346 2.45858 2 3.59302 2 5.25015V10.1159C2 12.6996 2.68694 13.7397 3.56489 14.2647C4.05734 14.5592 4.70425 14.7516 5.549 14.8636C6.39397 14.9757 7.37201 15 8.5 15C10.8137 15 12.3995 14.8688 13.4318 14.246C14.3154 13.713 15 12.6678 15 10.1159C15 9.38801 14.9995 8.55193 14.8535 7.72591C14.708 6.9022 14.4312 6.17627 13.9423 5.63412L13.9423 5.6341C13.6138 5.2698 13.2024 5.17818 12.4646 5.17916C12.3714 5.17928 12.262 5.18137 12.1437 5.18363C11.8625 5.189 11.5307 5.19533 11.2452 5.17855C10.8052 5.1527 10.2784 5.07027 9.78255 4.78035M8.73652 0.735918C7.29038 -0.0658917 5.61772 -0.181929 3.6204 0.240204ZM8.73677 0.736056C9.58401 1.20564 9.90914 1.82983 10.1344 2.26231C10.1377 2.26868 10.141 2.27501 10.1443 2.28129C10.3414 2.65939 10.4495 2.85355 10.7918 3.0537L10.792 3.0538C10.8971 3.11523 11.0625 3.16437 11.3625 3.18199C11.5723 3.19432 11.7642 3.1903 11.996 3.18545C12.1333 3.18257 12.2846 3.1794 12.4619 3.17916C13.3069 3.17804 14.4934 3.25869 15.4276 4.29475C16.2608 5.21866 16.6415 6.35107 16.823 7.37789C17.0002 8.38072 17.0001 9.3664 17 10.0706L17 10.1159C17 13.0157 16.199 14.9125 14.4649 15.9586C12.8794 16.915 10.7151 17 8.5 17C7.36355 17 6.27187 16.977 5.28601 16.8463C4.29993 16.7155 3.35489 16.4694 2.53845 15.9812C0.798622 14.9408 0 13.0388 0 10.1159V5.25015C0 2.98979 1.15748 0.759847 3.61993 0.240303M8.37072 3.20565C8.1713 2.82301 8.0763 2.65661 7.76712 2.48528L7.76687 2.48514M8.37072 3.20565L8.37743 3.21852ZM8.37743 3.21852C8.60519 3.65564 8.93219 4.28322 9.78239 4.78025ZM3.75055 10.6856C3.75055 10.1333 4.19826 9.68557 4.75055 9.68557H12.2373C12.7896 9.68557 13.2373 10.1333 13.2373 10.6856C13.2373 11.2379 12.7896 11.6856 12.2373 11.6856H4.75055C4.19826 11.6856 3.75055 11.2379 3.75055 10.6856Z" fill="currentColor"/>
</svg>
