<svg width="176" height="118" viewBox="0 0 176 118" fill="none" xmlns="http://www.w3.org/2000/svg">
<path d="M90.753 0.0715179C79.9924 0.0715179 72.1644 -0.113724 64.3423 0.112045C50.5288 0.505692 36.7032 0.858818 22.9439 2.31763C13.3937 3.3307 6.01118 9.40333 3.51825 18.3704C1.82618 24.472 1.10961 30.7241 0.645948 36.9993C-0.209118 48.6236 -0.0585785 60.271 0.212393 71.901C0.42917 80.9202 1.19391 89.9278 3.33158 98.7734C5.55956 108.001 13.6767 114.514 23.4618 115.417C34.9148 116.476 46.3799 117.02 57.8631 117.483C76.813 118.253 95.769 118.022 114.713 117.692C127.388 117.472 140.076 116.783 152.709 115.417C162.735 114.334 170.25 108.505 172.683 99.196C174.26 93.1523 175.001 86.987 175.441 80.7697C176.296 68.7055 175.952 56.6297 175.814 44.5655C175.718 36.2699 174.893 27.9801 172.966 19.8408C170.539 9.57121 163.102 3.29019 152.233 2.25975C141.16 1.21195 130.05 0.841454 118.934 0.372543C108.559 -0.073204 98.1897 0.326233 90.753 0.0715179ZM65.7213 60.5836C65.7213 52.3459 65.7152 44.1082 65.7213 35.8647C65.7213 33.2191 65.7634 33.196 68.2865 34.4522C71.4237 36.0152 74.5429 37.613 77.6802 39.1702C91.0963 45.8506 104.512 52.5195 117.922 59.2116C118.555 59.5242 119.494 59.6631 119.494 60.5604C119.494 61.2261 118.747 61.4056 118.23 61.6603C101.423 70.0601 84.605 78.4367 67.8168 86.8597C65.9862 87.7801 65.6851 87.207 65.6972 85.5051C65.7454 77.2095 65.7213 68.8965 65.7213 60.5836Z" fill="#F13C32"/>
</svg>
