<svg width="21" height="18" viewBox="0 0 21 18" fill="none" xmlns="http://www.w3.org/2000/svg">
<path fill-rule="evenodd" clip-rule="evenodd" d="M8.35858 0.849016C9.68408 0.432372 11.0868 0.387202 12.4337 0.718372C13.7801 1.04944 15.0209 1.74423 16.0425 2.73096C17.0637 3.71732 17.833 4.96337 18.2845 6.3498C18.4128 6.74366 18.1974 7.16691 17.8036 7.29516C17.4097 7.42342 16.9865 7.2081 16.8582 6.81424C16.4798 5.65207 15.8386 4.6195 15.0004 3.80987C14.1625 3.00059 13.1555 2.44053 12.0755 2.17499C10.9959 1.90954 9.87269 1.94544 8.80838 2.27999C7.74359 2.61468 6.7672 3.2392 5.97338 4.10229C5.96808 4.10805 5.96269 4.11373 5.95721 4.11933L3.40923 6.72114H6.53409C6.9483 6.72114 7.28409 7.05693 7.28409 7.47114C7.28409 7.88536 6.9483 8.22114 6.53409 8.22114H1.625C1.21079 8.22114 0.875 7.88536 0.875 7.47114V2.13641C0.875 1.7222 1.21079 1.38641 1.625 1.38641C2.03921 1.38641 2.375 1.7222 2.375 2.13641V5.63337L4.87749 3.07801C5.84094 2.03348 7.03729 1.26434 8.35858 0.849016ZM13.9659 11.0276C13.9659 10.6134 14.3017 10.2776 14.7159 10.2776H19.625C20.0392 10.2776 20.375 10.6134 20.375 11.0276V16.3624C20.375 16.7766 20.0392 17.1124 19.625 17.1124C19.2108 17.1124 18.875 16.7766 18.875 16.3624V12.8654L16.3725 15.4208C15.409 16.4653 14.2127 17.2344 12.8914 17.6498C11.5659 18.0664 10.1632 18.1116 8.81634 17.7804C7.46988 17.4493 6.2291 16.7545 5.20752 15.7678C4.18631 14.7815 3.41696 13.5354 2.96549 12.149C2.83724 11.7551 3.05256 11.3319 3.44641 11.2036C3.84027 11.0754 4.26353 11.2907 4.39178 11.6845C4.77022 12.8467 5.41137 13.8793 6.24961 14.6889C7.08748 15.4982 8.09452 16.0582 9.17449 16.3238C10.2541 16.5892 11.3773 16.5533 12.4416 16.2188C13.5064 15.8841 14.4828 15.2596 15.2766 14.3965C15.2819 14.3907 15.2873 14.385 15.2928 14.3795L17.8408 11.7776H14.7159C14.3017 11.7776 13.9659 11.4418 13.9659 11.0276Z" fill="white"/>
</svg>
