<svg width="32" height="32" viewBox="0 0 32 32" fill="none" xmlns="http://www.w3.org/2000/svg">
<path d="M20.6667 18H17.7467C17.2401 18.4459 16.5828 18.6821 15.9083 18.6606C15.2338 18.6392 14.5928 18.3616 14.1156 17.8844C13.6384 17.4072 13.3609 16.7662 13.3394 16.0917C13.3179 15.4173 13.5541 14.7599 14 14.2533V9.33333C14 8.8029 14.2107 8.29419 14.5858 7.91912C14.9609 7.54405 15.4696 7.33333 16 7.33333C16.5304 7.33333 17.0391 7.54405 17.4142 7.91912C17.7893 8.29419 18 8.8029 18 9.33333V14H20.6667C21.1971 14 21.7058 14.2107 22.0809 14.5858C22.456 14.9609 22.6667 15.4696 22.6667 16C22.6667 16.5304 22.456 17.0391 22.0809 17.4142C21.7058 17.7893 21.1971 18 20.6667 18ZM16 0C15.4696 0 14.9609 0.210714 14.5858 0.585786C14.2107 0.960859 14 1.46957 14 2C14 2.53043 14.2107 3.03914 14.5858 3.41421C14.9609 3.78929 15.4696 4 16 4C19.1815 4.00353 22.2317 5.26894 24.4814 7.51862C26.7311 9.76829 27.9965 12.8185 28 16C28 16.5304 28.2107 17.0391 28.5858 17.4142C28.9609 17.7893 29.4696 18 30 18C30.5304 18 31.0391 17.7893 31.4142 17.4142C31.7893 17.0391 32 16.5304 32 16C31.9954 11.7579 30.3082 7.69095 27.3086 4.69136C24.3091 1.69177 20.2421 0.00458811 16 0V0ZM4 16.6667C4 16.2711 3.8827 15.8844 3.66294 15.5555C3.44318 15.2266 3.13082 14.9703 2.76537 14.8189C2.39992 14.6675 1.99778 14.6279 1.60982 14.7051C1.22186 14.7823 0.865492 14.9727 0.585787 15.2525C0.306082 15.5322 0.115601 15.8885 0.0384303 16.2765C-0.0387401 16.6644 0.000866572 17.0666 0.152242 17.432C0.303617 17.7975 0.559962 18.1098 0.88886 18.3296C1.21776 18.5494 1.60444 18.6667 2 18.6667C2.53043 18.6667 3.03914 18.456 3.41421 18.0809C3.78929 17.7058 4 17.1971 4 16.6667ZM8.98667 2.52533C8.5911 2.52533 8.20443 2.64263 7.87553 2.86239C7.54663 3.08216 7.29028 3.39451 7.13891 3.75997C6.98753 4.12542 6.94793 4.52755 7.0251 4.91551C7.10227 5.30348 7.29275 5.65984 7.57245 5.93955C7.85216 6.21925 8.20852 6.40973 8.59649 6.4869C8.98445 6.56407 9.38658 6.52447 9.75203 6.37309C10.1175 6.22172 10.4298 5.96537 10.6496 5.63647C10.8694 5.30758 10.9867 4.9209 10.9867 4.52533C10.9867 3.9949 10.776 3.48619 10.4009 3.11112C10.0258 2.73605 9.5171 2.52533 8.98667 2.52533ZM3.884 7.66667C3.48844 7.66667 3.10176 7.78397 2.77286 8.00373C2.44396 8.22349 2.18762 8.53585 2.03624 8.9013C1.88487 9.26675 1.84526 9.66889 1.92243 10.0568C1.9996 10.4448 2.19008 10.8012 2.46979 11.0809C2.74949 11.3606 3.10586 11.5511 3.49382 11.6282C3.88178 11.7054 4.28392 11.6658 4.64937 11.5144C5.01482 11.3631 5.32718 11.1067 5.54694 10.7778C5.7667 10.4489 5.884 10.0622 5.884 9.66667C5.884 9.40402 5.83227 9.14395 5.73176 8.9013C5.63125 8.65865 5.48393 8.43817 5.29821 8.25245C5.1125 8.06674 4.89202 7.91942 4.64937 7.81891C4.40672 7.7184 4.14665 7.66667 3.884 7.66667ZM8.98667 26.808C8.5911 26.808 8.20443 26.9253 7.87553 27.1451C7.54663 27.3648 7.29028 27.6772 7.13891 28.0426C6.98753 28.4081 6.94793 28.8102 7.0251 29.1982C7.10227 29.5861 7.29275 29.9425 7.57245 30.2222C7.85216 30.5019 8.20852 30.6924 8.59649 30.7696C8.98445 30.8467 9.38658 30.8071 9.75203 30.6558C10.1175 30.5044 10.4298 30.248 10.6496 29.9191C10.8694 29.5902 10.9867 29.2036 10.9867 28.808C10.9867 28.2776 10.776 27.7689 10.4009 27.3938C10.0258 27.0187 9.5171 26.808 8.98667 26.808ZM3.884 21.6667C3.48844 21.6667 3.10176 21.784 2.77286 22.0037C2.44396 22.2235 2.18762 22.5358 2.03624 22.9013C1.88487 23.2668 1.84526 23.6689 1.92243 24.0568C1.9996 24.4448 2.19008 24.8012 2.46979 25.0809C2.74949 25.3606 3.10586 25.5511 3.49382 25.6282C3.88178 25.7054 4.28392 25.6658 4.64937 25.5144C5.01482 25.3631 5.32718 25.1067 5.54694 24.7778C5.7667 24.4489 5.884 24.0622 5.884 23.6667C5.884 23.404 5.83227 23.144 5.73176 22.9013C5.63125 22.6587 5.48393 22.4382 5.29821 22.2525C5.1125 22.0667 4.89202 21.9194 4.64937 21.8189C4.40672 21.7184 4.14665 21.6667 3.884 21.6667ZM16 28C15.6044 28 15.2178 28.1173 14.8889 28.3371C14.56 28.5568 14.3036 28.8692 14.1522 29.2346C14.0009 29.6001 13.9613 30.0022 14.0384 30.3902C14.1156 30.7781 14.3061 31.1345 14.5858 31.4142C14.8655 31.6939 15.2219 31.8844 15.6098 31.9616C15.9978 32.0387 16.3999 31.9991 16.7654 31.8478C17.1308 31.6964 17.4432 31.44 17.6629 31.1111C17.8827 30.7822 18 30.3956 18 30C18 29.4696 17.7893 28.9609 17.4142 28.5858C17.0391 28.2107 16.5304 28 16 28ZM28.1413 21.0133C27.7458 21.0133 27.3591 21.1306 27.0302 21.3504C26.7013 21.5702 26.445 21.8825 26.2936 22.248C26.1422 22.6134 26.1026 23.0156 26.1798 23.4035C26.2569 23.7915 26.4474 24.1478 26.7271 24.4275C27.0068 24.7073 27.3632 24.8977 27.7512 24.9749C28.1391 25.0521 28.5412 25.0125 28.9067 24.8611C29.2722 24.7097 29.5845 24.4534 29.8043 24.1245C30.024 23.7956 30.1413 23.4089 30.1413 23.0133C30.1413 22.4829 29.9306 21.9742 29.5555 21.5991C29.1805 21.224 28.6718 21.0133 28.1413 21.0133ZM23 26.116C22.6044 26.116 22.2178 26.2333 21.8889 26.4531C21.56 26.6728 21.3036 26.9852 21.1522 27.3506C21.0009 27.7161 20.9613 28.1182 21.0384 28.5062C21.1156 28.8941 21.3061 29.2505 21.5858 29.5302C21.8655 29.8099 22.2219 30.0004 22.6098 30.0776C22.9978 30.1547 23.3999 30.1151 23.7654 29.9638C24.1308 29.8124 24.4432 29.556 24.6629 29.2271C24.8827 28.8982 25 28.5116 25 28.116C25 27.5856 24.7893 27.0769 24.4142 26.7018C24.0391 26.3267 23.5304 26.116 23 26.116Z" fill="#316EE8"/>
</svg>
