<svg width="24" height="24" viewBox="0 0 24 24" fill="none" xmlns="http://www.w3.org/2000/svg">
<path fill-rule="evenodd" clip-rule="evenodd" d="M2.13723 7.13102C4.40018 2.5474 9.52251 0.126727 14.5006 1.28846C19.4786 2.45018 23.0003 6.88812 23.0007 11.9999V13C23.0007 15.2091 21.2098 17 19.0007 17C16.7915 17 15.0007 15.2091 15.0007 13V12C15.0007 11.4477 15.4484 11 16.0007 11C16.5529 11 17.0007 11.4477 17.0007 12V13C17.0007 14.1046 17.8961 15 19.0007 15C20.1052 15 21.0007 14.1046 21.0007 13V12.0001C21.0007 12 21.0007 12.0001 21.0007 12.0001C21.0004 7.8177 18.119 4.18662 14.046 3.23612C9.97308 2.28562 5.78209 4.26617 3.93058 8.01641C2.07908 11.7666 3.05506 16.2981 6.28622 18.9537C9.51738 21.6092 14.1521 21.6889 17.4727 19.1461C17.9111 18.8103 18.5388 18.8935 18.8746 19.332C19.2104 19.7705 19.1271 20.3981 18.6887 20.7339C14.6302 23.8419 8.96554 23.7445 5.01634 20.4988C1.06715 17.2531 -0.125715 11.7146 2.13723 7.13102Z" fill="currentColor"/>
<path fill-rule="evenodd" clip-rule="evenodd" d="M7 12C7 9.23858 9.23858 7 12 7C14.7614 7 17 9.23858 17 12C17 14.7614 14.7614 17 12 17C9.23858 17 7 14.7614 7 12ZM12 9C10.3431 9 9 10.3431 9 12C9 13.6569 10.3431 15 12 15C13.6569 15 15 13.6569 15 12C15 10.3431 13.6569 9 12 9Z" fill="currentColor"/>
</svg>
