<svg width="16" height="16" viewBox="0 0 16 16" fill="none" xmlns="http://www.w3.org/2000/svg">
<path fill-rule="evenodd" clip-rule="evenodd" d="M15.4786 0.521461C15.628 0.670877 15.6673 0.898091 15.5769 1.08906L8.82688 15.3391C8.73647 15.5299 8.5359 15.6434 8.32574 15.6226C8.11558 15.6018 7.94116 15.4512 7.88994 15.2463L6.4627 9.53732L0.753745 8.11009C0.548863 8.05887 0.398256 7.88444 0.377446 7.67428C0.356636 7.46412 0.470111 7.26355 0.660969 7.17315L14.911 0.423145C15.1019 0.332688 15.3291 0.372044 15.4786 0.521461ZM2.35169 7.47879L6.99628 8.63994C7.17542 8.68473 7.3153 8.8246 7.36008 9.00375L8.52123 13.6483L14.0738 1.9262L2.35169 7.47879Z" fill="currentColor"/>
</svg>
