<svg width="168" height="106" viewBox="0 0 168 106" fill="none" xmlns="http://www.w3.org/2000/svg">
<path d="M126.154 52.9118C129.18 54.4316 132.11 56.1889 134.923 58.1499C140 61.6917 144.601 65.7827 148.769 70.3734C154.325 76.4938 158.884 83.3015 162.468 90.7778C164.734 95.5051 166.528 100.411 167.948 105.462C168.058 105.85 168.021 105.996 167.562 105.996C157.973 105.984 148.383 105.983 138.794 106C138.285 106.001 138.196 105.733 138.076 105.359C135.973 98.8468 132.96 92.8072 128.836 87.3603C122.576 79.0936 114.696 73.095 104.8 69.9484C102.025 69.066 99.1831 68.5056 96.2999 68.1452C95.958 68.1029 95.8548 68.211 95.8843 68.5341C95.899 68.6982 95.8867 68.8647 95.8867 69.0312C95.8867 81.0845 95.8867 93.139 95.8867 105.192C95.8867 105.986 95.8867 105.984 95.09 105.986C91.2588 106.004 87.4288 105.938 83.6086 105.631C69.121 104.464 55.4585 100.602 43.0217 92.8072C37.1642 89.1361 31.8871 84.7394 27.1804 79.6454C18.0376 69.7533 11.7314 58.1822 7.39111 45.4541C5.0513 38.5918 3.36316 31.5629 2.19264 24.4023C1.39959 19.5444 0.832777 14.6642 0.470065 9.75544C0.248749 6.7617 0.150387 3.763 0.00407222 0.765528C-0.024207 0.188901 0.0827623 -0.00123669 0.708595 6.0456e-06C9.84771 0.0236179 18.9868 0.0198897 28.1247 0.0062197C28.6018 0.00497697 28.7776 0.0758126 28.7874 0.627585C28.8637 4.93241 29.1428 9.2248 29.6124 13.506C30.4584 21.2234 31.9596 28.7953 34.4162 36.161C36.5532 42.5685 39.3676 48.6442 43.1594 54.2328C47.5735 60.7385 52.9736 66.1916 59.8528 70.0391C62.3254 71.4222 64.9209 72.5134 67.6542 73.2652C68.1964 73.4143 68.3157 73.31 68.3132 72.7632C68.2972 68.3104 68.3046 63.8577 68.3046 59.405C68.3046 39.8954 68.3046 20.3858 68.3058 0.876131C68.3058 -0.13918 68.2087 0.0211325 69.1505 0.0198897C77.8187 0.0149188 86.4857 0.0236179 95.1539 0.00373424C95.7355 0.00249151 95.9003 0.12925 95.899 0.741916C95.8794 14.2243 95.8843 27.7079 95.8843 41.1903C95.8843 41.9745 95.8818 41.9521 96.6687 41.8316C102.567 40.9207 107.657 38.209 112.307 34.5765C119.454 28.9942 124.877 21.9553 129.136 13.9584C131.426 9.65727 133.245 5.16107 134.542 0.453603C134.632 0.128007 134.766 0.00746243 135.124 0.00870516C143.873 0.0211325 152.622 0.018647 161.373 0.0198897C161.492 0.0198897 161.613 0.0422589 161.875 0.0683563C157.292 22.7793 144.944 40.0296 126.154 52.9118Z" fill="#6A98F4"/>
</svg>
