<svg width="19" height="26" viewBox="0 0 19 26" fill="none" xmlns="http://www.w3.org/2000/svg">
<path fill-rule="evenodd" clip-rule="evenodd" d="M3.69947 18.0164C2.25113 18.967 1.5 20.1484 1.5 21.2333C1.5 21.761 1.67329 22.1622 1.98543 22.4957C2.31409 22.8468 2.82729 23.1533 3.54195 23.3999C4.9804 23.8962 7.01485 24.0774 9.30568 24.0774C11.6077 24.0774 13.6413 23.8897 15.0757 23.3876C15.7882 23.1383 16.2995 22.8292 16.627 22.476C16.9385 22.1401 17.1114 21.7365 17.1114 21.2076C17.1114 20.1256 16.3574 18.9505 14.9049 18.0051C13.473 17.073 11.4782 16.4524 9.30568 16.4524C7.12161 16.4524 5.12773 17.0789 3.69947 18.0164ZM2.87639 16.7623C4.56602 15.6533 6.84998 14.9524 9.30568 14.9524C11.7479 14.9524 14.031 15.6464 15.7232 16.7479C17.3949 17.836 18.6114 19.4136 18.6114 21.2076C18.6114 22.1161 18.2947 22.8836 17.727 23.4959C17.1753 24.0909 16.4176 24.5072 15.5712 24.8034C13.8877 25.3926 11.6435 25.5774 9.30568 25.5774C6.98174 25.5774 4.73834 25.3995 3.05265 24.8178C2.20523 24.5254 1.44479 24.1131 0.890311 23.5207C0.319324 22.9107 0 22.1436 0 21.2333C0 19.4422 1.20683 17.8582 2.87639 16.7623Z" fill="#316EE8"/>
<path fill-rule="evenodd" clip-rule="evenodd" d="M3.06253 6.23282C3.06322 2.79078 5.85442 0 9.29662 0C12.7394 0 15.5296 2.79167 15.5296 6.23409C15.5296 9.67671 12.7392 12.467 9.29662 12.467H9.25831L9.25545 12.467C5.82339 12.4554 3.05159 9.66455 3.06253 6.23282ZM9.29662 1.5C6.68243 1.5 4.56253 3.6199 4.56253 6.23409V6.23663C4.55371 8.84024 6.65592 10.9575 9.25918 10.967H9.29648C11.9107 10.967 14.0296 8.84829 14.0296 6.23409C14.0296 3.61969 11.9106 1.5 9.29662 1.5Z" fill="#316EE8"/>
</svg>
