<svg width="18" height="18" viewBox="0 0 18 18" fill="none" xmlns="http://www.w3.org/2000/svg">
<path fill-rule="evenodd" clip-rule="evenodd" d="M13.9498 4.04803C11.2192 1.3172 6.78179 1.3172 4.05126 4.04874L4.05105 4.04895C1.91306 6.18648 1.44752 9.35486 2.64842 11.9499C2.65561 11.9655 2.6624 11.9812 2.66878 11.9971C2.675 12.0126 2.68132 12.0283 2.68774 12.0442C2.84401 12.4322 3.05363 12.9526 3.05363 13.5012C3.05363 13.8876 2.96238 14.2522 2.87674 14.5364C2.83259 14.6829 2.78407 14.8262 2.74105 14.9524L2.73023 14.9842C2.68997 15.1023 2.65519 15.2043 2.62429 15.3033C2.61274 15.3403 2.6026 15.3743 2.59372 15.4055C2.62439 15.3967 2.65773 15.3867 2.69396 15.3753C2.79438 15.3438 2.89818 15.3081 3.01865 15.2667L3.04312 15.2583C3.16868 15.2151 3.31132 15.1664 3.45694 15.1219C3.73925 15.0357 4.10199 14.9431 4.48619 14.9408L4.49212 14.9408C5.03619 14.9408 5.56112 15.1531 5.94087 15.3067C5.96184 15.3152 5.98237 15.3235 6.00244 15.3316C6.01802 15.3379 6.03345 15.3445 6.0487 15.3516C8.64449 16.552 11.8118 16.087 13.9498 13.9488C16.6808 11.2175 16.6855 6.7841 13.9498 4.04803ZM2.637 2.63458C6.14862 -0.878114 11.8525 -0.878044 15.3641 2.63389C18.8817 6.15191 18.8751 11.8515 15.3641 15.363C12.6188 18.1086 8.55818 18.7038 5.23301 17.1778C4.76323 16.9892 4.60096 16.9416 4.49491 16.9408C4.40424 16.9419 4.26385 16.9667 4.0409 17.0347C3.9326 17.0678 3.82031 17.106 3.69305 17.1497L3.66356 17.1599C3.54895 17.1993 3.42049 17.2435 3.29322 17.2834C3.02994 17.3661 2.67372 17.4641 2.30171 17.4643C1.89442 17.4646 1.42531 17.3461 1.03982 16.9611L1.03936 16.9607C0.653923 16.5752 0.53536 16.106 0.53536 15.6987C0.53536 15.3268 0.632995 14.9705 0.71516 14.7073C0.754272 14.582 0.797503 14.4552 0.836146 14.342C0.840129 14.3303 0.844063 14.3187 0.847939 14.3074C0.891299 14.1801 0.929153 14.0677 0.961784 13.9594C1.02971 13.734 1.05363 13.5925 1.05363 13.5012C1.05363 13.3923 1.00892 13.232 0.822149 12.7656C-0.704419 9.44083 -0.108191 5.37934 2.63679 2.63479C2.63686 2.63472 2.63693 2.63465 2.637 2.63458ZM4.73694 9.3304C4.73694 8.77812 5.18465 8.3304 5.73694 8.3304H5.74414C6.29642 8.3304 6.74414 8.77812 6.74414 9.3304C6.74414 9.88268 6.29642 10.3304 5.74414 10.3304H5.73694C5.18465 10.3304 4.73694 9.88268 4.73694 9.3304ZM7.94414 9.3304C7.94414 8.77812 8.39185 8.3304 8.94414 8.3304H8.95134C9.50362 8.3304 9.95134 8.77812 9.95134 9.3304C9.95134 9.88268 9.50362 10.3304 8.95134 10.3304H8.94414C8.39185 10.3304 7.94414 9.88268 7.94414 9.3304ZM11.1513 9.3304C11.1513 8.77812 11.5991 8.3304 12.1513 8.3304H12.1585C12.7108 8.3304 13.1585 8.77812 13.1585 9.3304C13.1585 9.88268 12.7108 10.3304 12.1585 10.3304H12.1513C11.5991 10.3304 11.1513 9.88268 11.1513 9.3304Z" fill="currentColor"/>
</svg>
