<svg width="13" height="14" viewBox="0 0 13 14" fill="none" xmlns="http://www.w3.org/2000/svg">
<path d="M1.05155 10.3402C1.10317 11.2583 1.70542 12.2102 2.89271 12.7156C4.0714 13.221 5.22428 13.0694 6.16207 12.2102C7.6849 10.8035 9.14751 9.32932 10.6359 7.88047C11.0919 7.43402 11.5479 6.98757 12.0039 6.54112C12.2792 6.27156 12.5975 6.25472 12.8298 6.46531C13.0707 6.68432 13.0535 7.02126 12.7696 7.29924C10.8768 9.15243 8.99265 11.014 7.08265 12.8504C5.85234 14.0381 4.05419 14.3161 2.47974 13.6254C0.948305 12.9515 -0.0497096 11.41 0.00191182 9.76735C0.0363261 8.73125 0.40628 7.80466 1.15479 7.06338C3.29708 4.94906 5.44797 2.84316 7.60747 0.745692C8.83778 -0.450457 11.0919 -0.164055 12.1502 1.29322C13.0535 2.53149 12.9159 4.13197 11.8146 5.21019C9.93044 7.05496 8.04625 8.89972 6.15347 10.7445C5.57703 11.3089 4.88874 11.5026 4.11442 11.2499C3.3401 11.0056 2.87551 10.4665 2.72924 9.68312C2.6174 9.07662 2.78087 8.51224 3.21104 8.07421C4.43275 6.86964 5.66306 5.67349 6.88477 4.47734C7.13427 4.23306 7.46981 4.23306 7.6849 4.46049C7.89999 4.67951 7.88279 4.9996 7.63328 5.24389C6.49761 6.37265 5.36194 7.48456 4.21766 8.59647C4.01118 8.79864 3.8305 9.01765 3.8305 9.32933C3.8219 9.67469 3.95095 9.95267 4.26068 10.1211C4.57901 10.298 4.89735 10.2896 5.20707 10.1127C5.31032 10.0538 5.39635 9.97794 5.48239 9.89371C7.38378 8.03209 9.29377 6.17048 11.1952 4.29202C12.1674 3.33173 11.9695 1.83233 10.7908 1.15845C10.0165 0.720421 9.02706 0.863622 8.33017 1.53751C6.56644 3.26434 4.7941 4.9996 3.02177 6.74328C2.626 7.13077 2.23024 7.51825 1.85168 7.92259C1.30105 8.49539 1.03434 9.18612 1.05155 10.3402Z" fill="currentColor"/>
</svg>
