<svg width="19" height="20" viewBox="0 0 19 20" fill="none" xmlns="http://www.w3.org/2000/svg">
<path fill-rule="evenodd" clip-rule="evenodd" d="M18.9912 3.44315V6.30531C19.0006 7.08351 18.7068 7.83365 18.1743 8.39067C17.6419 8.9477 16.9145 9.26597 16.1522 9.27546H14.9884C14.5941 9.23237 14.2951 8.89272 14.2951 8.48792C14.2951 8.08312 14.5941 7.74347 14.9884 7.70038H16.1169C16.4739 7.69801 16.8152 7.55035 17.0651 7.29015C17.3151 7.02994 17.453 6.67869 17.4483 6.31431V3.44315C17.4388 2.69661 16.8482 2.09378 16.1169 2.08408H13.3044C12.5691 2.08408 11.9731 2.69256 11.9731 3.44315V7.73638C11.9587 8.17172 11.6062 8.51556 11.1796 8.51042C10.9746 8.50574 10.7799 8.41743 10.6391 8.26523C10.4983 8.11303 10.423 7.9096 10.4302 7.70038V3.44315C10.4278 2.66341 10.7296 1.91478 11.2689 1.36257C11.8082 0.810365 12.5406 0.499996 13.3044 0.5H16.1169C17.692 0.538179 18.9586 1.83515 18.9912 3.44315ZM5.69559 0.5H2.88306C1.2948 0.509827 0.00962617 1.82178 0 3.44315V6.31431C0.00966866 7.9342 1.29622 9.24355 2.88306 9.24846H5.69559C6.45942 9.25085 7.19276 8.94278 7.73369 8.39226C8.27463 7.84173 8.57866 7.09405 8.57865 6.31431V3.44315C8.57381 1.81975 7.28585 0.504942 5.69559 0.5ZM7.02691 6.31431C7.03162 6.67869 6.89372 7.02994 6.64379 7.29015C6.39386 7.55035 6.05256 7.69801 5.69559 7.70038H2.88306C2.52078 7.7078 2.17118 7.56416 1.91496 7.30259C1.65873 7.04102 1.51802 6.68414 1.52529 6.31431V3.44315C1.52522 3.07798 1.66911 2.72814 1.92453 2.47247C2.17995 2.21681 2.52541 2.07683 2.88306 2.08408H5.69559C6.42886 2.08899 7.02211 2.6946 7.02691 3.44315V6.31431ZM13.3044 10.7515H16.1169C17.7038 10.7564 18.9903 12.0658 19 13.6857V16.5568C18.9904 18.1782 17.7052 19.4902 16.1169 19.5H13.3044C11.7176 19.4901 10.435 18.1768 10.4302 16.5568V13.6857C10.4302 12.0652 11.717 10.7515 13.3044 10.7515ZM17.0609 17.5205C17.3111 17.2651 17.4506 16.918 17.4483 16.5568V13.6857C17.4483 13.3252 17.308 12.9796 17.0583 12.7247C16.8087 12.4698 16.47 12.3266 16.1169 12.3266H13.3044C12.5691 12.3266 11.9731 12.9351 11.9731 13.6857V16.5568C11.9707 16.918 12.1102 17.2651 12.3604 17.5205C12.6106 17.7759 12.9506 17.9183 13.3044 17.9159H16.1169C16.4707 17.9183 16.8107 17.7759 17.0609 17.5205ZM0 16.5479V13.6857C-3.59358e-06 12.906 0.304028 12.1583 0.844962 11.6078C1.3859 11.0572 2.11924 10.7492 2.88306 10.7516H4.03805C4.33336 10.7193 4.62081 10.8619 4.77835 11.1189C4.9359 11.376 4.9359 11.7022 4.77835 11.9592C4.62081 12.2163 4.33336 12.3589 4.03805 12.3266H2.88306C2.14635 12.3266 1.54777 12.9337 1.54292 13.6857V16.5209C1.56166 17.2669 2.15217 17.8657 2.88306 17.8799H5.71322C6.06784 17.8823 6.40874 17.7402 6.66032 17.4851C6.9119 17.2299 7.05337 16.8829 7.05336 16.5209V12.2636C6.99586 11.9457 7.13341 11.624 7.40087 11.4509C7.66833 11.2778 8.01201 11.288 8.26917 11.4767C8.52633 11.6654 8.64534 11.9947 8.56984 12.3086V16.5479C8.56984 18.1733 7.27905 19.491 5.68677 19.491H2.88306C1.30456 19.4576 0.0327499 18.1593 0 16.5479Z" fill="white"/>
</svg>
