<svg width="30" height="30" viewBox="0 0 30 30" fill="none" xmlns="http://www.w3.org/2000/svg">
<circle cx="14.6752" cy="14.6752" r="14.6752" fill="#EA0C00"/>
<path d="M15.0123 10.0064C14.0623 10.0064 13.3712 9.9901 12.6806 10.0099C11.461 10.0445 10.2404 10.0755 9.02565 10.2036C8.18249 10.2925 7.53071 10.8256 7.31062 11.6128C7.16123 12.1485 7.09796 12.6974 7.05703 13.2483C6.98154 14.2688 6.99483 15.2913 7.01875 16.3123C7.03789 17.1041 7.10541 17.8949 7.29414 18.6715C7.49084 19.4816 8.20747 20.0533 9.07137 20.1326C10.0825 20.2256 11.0948 20.2734 12.1086 20.314C13.7816 20.3816 15.4552 20.3613 17.1277 20.3323C18.2468 20.313 19.3669 20.2525 20.4823 20.1326C21.3674 20.0375 22.0309 19.5258 22.2457 18.7086C22.385 18.178 22.4504 17.6367 22.4892 17.0909C22.5647 16.0318 22.5344 14.9716 22.5221 13.9125C22.5136 13.1842 22.4408 12.4565 22.2707 11.7419C22.0564 10.8404 21.3999 10.2889 20.4403 10.1985C19.4626 10.1065 18.4817 10.074 17.5004 10.0328C16.5844 9.99366 15.6689 10.0287 15.0123 10.0064ZM12.8023 15.3188C12.8023 14.5956 12.8018 13.8724 12.8023 13.1487C12.8023 12.9164 12.8061 12.9144 13.0288 13.0247C13.3058 13.1619 13.5812 13.3022 13.8582 13.4389C15.0426 14.0253 16.2271 14.6108 17.411 15.1983C17.4669 15.2257 17.5498 15.2379 17.5498 15.3167C17.5498 15.3752 17.4839 15.3909 17.4382 15.4133C15.9544 16.1507 14.4695 16.8861 12.9874 17.6255C12.8257 17.7064 12.7992 17.656 12.8002 17.5066C12.8045 16.7784 12.8023 16.0486 12.8023 15.3188Z" fill="white"/>
</svg>
