<svg width="50" height="41" viewBox="0 0 50 41" fill="none" xmlns="http://www.w3.org/2000/svg">
<path fill-rule="evenodd" clip-rule="evenodd" d="M2.97809 18.2107L3.33646 35.2517L4.80036 35.7385L4.26451 18.5583L2.97809 18.2107ZM5.26008 18.7811L5.78742 35.6886L6.7121 35.2889L6.34881 18.9951L5.26008 18.7811ZM4.85982 17.701L3.10975 17.2282C2.53674 17.0734 1.97499 17.5097 1.9874 18.0999L2.34999 35.3414C2.35784 35.7148 2.60081 36.043 2.95705 36.1615L5.33929 36.9536L7.16696 36.1635C7.49824 36.0203 7.70948 35.6921 7.70148 35.3331L7.33495 18.8944C7.3257 18.4796 7.02763 18.127 6.61826 18.0465L4.85982 17.701Z" fill="currentColor"/>
<path fill-rule="evenodd" clip-rule="evenodd" d="M10.4257 37.0933L7.26367 36.1109L7.55841 35.1731L10.7205 36.1556L10.4257 37.0933Z" fill="currentColor"/>
<path fill-rule="evenodd" clip-rule="evenodd" d="M17.2082 22.9131L17.5807 39.2066L19.1469 39.6857L18.5899 23.2566L17.2082 22.9131ZM19.5856 23.4621L20.1319 39.5761L21.1387 39.0755L20.7609 23.6746L19.5856 23.4621ZM19.1753 22.3894L17.3222 21.9287C16.7528 21.7872 16.2041 22.2232 16.2174 22.8067L16.5944 39.2997C16.6031 39.6804 16.8559 40.0128 17.222 40.1247L19.7079 40.8853L21.6368 39.9264C21.945 39.7731 22.1365 39.4565 22.1281 39.1139L21.7468 23.5707C21.7365 23.1516 21.4317 22.7973 21.0168 22.7223L19.1753 22.3894Z" fill="currentColor"/>
<path fill-rule="evenodd" clip-rule="evenodd" d="M10.8843 26.0554L11.1362 36.9573L11.9204 37.1946L11.5442 26.2177L10.8843 26.0554ZM12.5399 26.4211L12.9067 37.1243L13.4272 36.8978L13.0578 26.5137L12.5399 26.4211ZM12.1284 25.3492L10.996 25.0708C10.4271 24.9309 9.87994 25.3669 9.8934 25.9495L10.1499 37.0509C10.1587 37.4325 10.4128 37.7654 10.78 37.8765L12.4685 38.3875L13.8849 37.771C14.219 37.6256 14.4299 37.2921 14.4171 36.9298L14.0426 26.3998C14.0278 25.9838 13.7232 25.6345 13.3112 25.5608L12.1284 25.3492Z" fill="currentColor"/>
<path fill-rule="evenodd" clip-rule="evenodd" d="M28.3813 0.115535C28.569 0.00941856 28.7892 -0.0251508 29.0007 0.0182761L47.0336 3.72112L47.0367 3.72173L49.1312 4.13823C49.885 4.28812 50.1054 5.25407 49.4904 5.71266L47.0356 7.54323C46.8173 7.70601 46.5076 7.66202 46.3439 7.44498C46.1801 7.22794 46.2244 6.92003 46.4427 6.75725L48.7207 5.05853L46.8399 4.68451L46.8368 4.6839L28.8373 0.987932L1.1602 16.6319L4.73663 17.669L6.86288 17.8612C7.59237 17.9272 8.74523 18.0457 9.83673 18.1876C10.9075 18.3267 11.9796 18.4953 12.508 18.6704C13.4478 18.9819 15.3647 20.0099 16.3478 20.5611C16.6285 20.7184 16.7984 21.0131 16.7984 21.3294V21.7064L19.3768 22.3901L21.369 22.7502L21.8658 22.5032C22.0768 22.3984 22.321 22.3811 22.5447 22.4553L24.761 23.1898C25.0198 23.2756 25.1597 23.5538 25.0734 23.8111C24.9872 24.0685 24.7073 24.2076 24.4485 24.1218L22.2711 23.4002L21.7815 23.6436C21.6094 23.7292 21.414 23.7569 21.2247 23.7227L19.1607 23.3496L16.4704 22.6363C16.0811 22.5331 15.8103 22.1825 15.8103 21.7819V21.3877C14.7925 20.8188 13.0124 19.8732 12.1955 19.6025C11.7752 19.4632 10.8052 19.3042 9.70867 19.1618C8.63284 19.0219 7.49321 18.9047 6.77342 18.8397L4.63764 18.6466C4.58057 18.6415 4.52415 18.6308 4.46914 18.6149L0.659382 17.5101C-0.0949444 17.2913 -0.214205 16.2786 0.468877 15.8925L28.3813 0.115535ZM43.9723 9.21344C44.136 9.43048 44.0918 9.73839 43.8735 9.90117L40.7114 12.2591C40.4932 12.4219 40.1835 12.3779 40.0197 12.1609C39.856 11.9438 39.9003 11.6359 40.1186 11.4731L43.2806 9.11519C43.4989 8.95241 43.8086 8.99639 43.9723 9.21344Z" fill="currentColor"/>
<path fill-rule="evenodd" clip-rule="evenodd" d="M28.3813 0.115535C28.569 0.00941856 28.7892 -0.0251508 29.0007 0.0182761L47.0336 3.72112L47.0367 3.72173L49.1312 4.13823C49.885 4.28812 50.1054 5.25407 49.4904 5.71266L46.245 8.13271C46.0268 8.2955 45.7171 8.25151 45.5533 8.03447C45.3896 7.81742 45.4339 7.50952 45.6522 7.34673L48.7207 5.05853L46.8399 4.68451L46.8368 4.6839L28.8373 0.987932L1.1602 16.6319L4.73663 17.669L6.86288 17.8612C7.59237 17.9272 8.74523 18.0457 9.83673 18.1876C10.9075 18.3267 11.9796 18.4953 12.508 18.6704C13.4478 18.9819 15.3647 20.0099 16.3478 20.5611C16.6285 20.7184 16.7984 21.0131 16.7984 21.3294V21.7064L19.3768 22.3901L21.369 22.7502L21.8658 22.5032C22.0768 22.3984 22.321 22.3811 22.5447 22.4553L24.5154 23.1084L37.747 13.2416C37.9653 13.0788 38.275 13.1228 38.4387 13.3398C38.6024 13.5569 38.5582 13.8648 38.3399 14.0276L25.0668 23.9252C24.8334 24.0993 24.5289 24.1485 24.252 24.0567L22.2711 23.4002L21.7815 23.6436C21.6094 23.7292 21.414 23.7569 21.2247 23.7227L19.1607 23.3496L16.4704 22.6363C16.0811 22.5331 15.8103 22.1825 15.8103 21.7819V21.3877C14.7925 20.8188 13.0124 19.8732 12.1955 19.6025C11.7752 19.4632 10.8052 19.3042 9.70867 19.1618C8.63284 19.0219 7.49321 18.9047 6.77342 18.8397L4.63764 18.6466C4.58057 18.6415 4.52415 18.6308 4.46914 18.6149L0.659382 17.5101C-0.0949444 17.2913 -0.214205 16.2786 0.468877 15.8925L28.3813 0.115535Z" fill="currentColor"/>
<path fill-rule="evenodd" clip-rule="evenodd" d="M0.193862 32.9715L0 16.5878L0.988074 16.5762L1.181 32.8804L2.76485 33.1953L2.57106 34.1587L0.908718 33.8282C0.496875 33.7463 0.198803 33.3891 0.193862 32.9715Z" fill="currentColor"/>
<path fill-rule="evenodd" clip-rule="evenodd" d="M16.7498 38.8618L13.5878 37.8793L13.8825 36.9416L17.0446 37.924L16.7498 38.8618Z" fill="currentColor"/>
<path fill-rule="evenodd" clip-rule="evenodd" d="M49.5191 4.49773C49.7919 4.50497 50.0071 4.73069 49.9998 5.00189L49.6093 19.5624C49.6025 19.8151 49.4873 20.0528 49.2928 20.2155L24.6924 40.7924C24.4612 40.9858 24.1471 41.0492 23.8583 40.9609L21.495 40.2379C21.2342 40.1581 21.0878 39.8832 21.1681 39.6239C21.2483 39.3646 21.5248 39.2191 21.7856 39.2989L24.0974 40.0061L48.6227 19.4921L49.012 4.9757C49.0193 4.7045 49.2463 4.4905 49.5191 4.49773Z" fill="currentColor"/>

</svg>
