<svg width="50" height="39" viewBox="0 0 50 39" fill="none" xmlns="http://www.w3.org/2000/svg">
<path fill-rule="evenodd" clip-rule="evenodd" d="M34.8184 0.114348C35.2859 -0.0735102 35.8148 -0.0280126 36.2433 0.23692L49.2483 8.27734C49.7156 8.56624 50 9.07647 50 9.62585V22.7274C50 23.3786 49.6018 23.9635 48.996 24.2023L12.9358 38.4164C12.402 38.6268 11.7963 38.5324 11.3518 38.1696L0.753084 29.5179C0.389706 29.2213 0.176332 28.779 0.170347 28.31L0.000101946 14.9689C-0.00243708 14.7699 0.0424839 14.5732 0.131141 14.3951C0.267813 14.1204 0.500544 13.9055 0.78517 13.7912L34.8184 0.114348ZM35.602 1.27424C35.5031 1.2131 35.381 1.2026 35.2732 1.24595L1.23992 14.9228C1.23254 14.9257 1.22651 14.9313 1.22296 14.9384C1.22066 14.9431 1.2195 14.9482 1.21956 14.9533L1.38981 28.2944C1.39119 28.4026 1.44043 28.5047 1.52428 28.5732L12.123 37.2248C12.2256 37.3085 12.3654 37.3303 12.4886 37.2818L48.5487 23.0677C48.6886 23.0126 48.7804 22.8776 48.7804 22.7274V9.62585C48.7804 9.49907 48.7148 9.38133 48.607 9.31466L35.602 1.27424Z" fill="currentColor"/>
<path fill-rule="evenodd" clip-rule="evenodd" d="M32.8861 15.881C33.0062 16.1956 32.8485 16.5481 32.5339 16.6682L13.3306 24.0012C13.1905 24.0547 13.0972 24.1884 13.0953 24.3383L12.9253 37.5788C12.921 37.9155 12.6445 38.185 12.3078 38.1807C11.971 38.1763 11.7016 37.8998 11.7059 37.5631L11.8759 24.3227C11.8842 23.6728 12.2884 23.0938 12.8956 22.8619L32.0989 15.5289C32.4135 15.4088 32.7659 15.5664 32.8861 15.881Z" fill="currentColor"/>
<path fill-rule="evenodd" clip-rule="evenodd" d="M42.8864 12.0622C43.0066 12.3768 42.8489 12.7293 42.5343 12.8494L35.9487 15.3642C35.6341 15.4844 35.2816 15.3267 35.1615 15.0121C35.0414 14.6975 35.199 14.345 35.5136 14.2249L42.0992 11.7101C42.4139 11.59 42.7663 11.7476 42.8864 12.0622ZM12.5019 23.0582C12.8387 23.0625 13.1081 23.339 13.1038 23.6758L12.9253 37.5788C12.921 37.9155 12.6445 38.185 12.3078 38.1807C11.971 38.1763 11.7016 37.8998 11.7059 37.5631L11.8844 23.6601C11.8887 23.3234 12.1652 23.0539 12.5019 23.0582Z" fill="currentColor"/>
<path fill-rule="evenodd" clip-rule="evenodd" d="M49.4721 9.54742C49.5922 9.86203 49.4345 10.2145 49.1199 10.3346L45.8271 11.592C45.5125 11.7121 45.1601 11.5545 45.0399 11.2399C44.9198 10.9253 45.0774 10.5728 45.3921 10.4527L48.6849 9.19529C48.9995 9.07515 49.3519 9.2328 49.4721 9.54742ZM12.5019 23.0582C12.8387 23.0625 13.1081 23.339 13.1038 23.6758L12.9253 37.5788C12.921 37.9155 12.6445 38.185 12.3078 38.1807C11.971 38.1763 11.7016 37.8998 11.7059 37.5631L11.8844 23.6601C11.8887 23.3234 12.1652 23.0539 12.5019 23.0582Z" fill="currentColor"/>
<path fill-rule="evenodd" clip-rule="evenodd" d="M0.614353 14.2688C0.821118 14.003 1.20423 13.9551 1.47006 14.1619L12.9339 23.0787C13.1997 23.2855 13.2476 23.6686 13.0409 23.9344C12.8341 24.2002 12.451 24.2481 12.1851 24.0413L0.721292 15.1245C0.455466 14.9177 0.407588 14.5346 0.614353 14.2688Z" fill="currentColor"/>
<path fill-rule="evenodd" clip-rule="evenodd" d="M12.2534 26.0526C12.4308 25.8498 12.739 25.8293 12.9417 26.0067L21.7835 33.7433C21.9863 33.9207 22.0069 34.2289 21.8294 34.4316C21.652 34.6344 21.3438 34.6549 21.1411 34.4775L12.2993 26.7409C12.0965 26.5635 12.076 26.2553 12.2534 26.0526Z" fill="currentColor"/>
<path fill-rule="evenodd" clip-rule="evenodd" d="M11.9597 29.1882C12.144 28.9916 12.4527 28.9817 12.6493 29.1659L13.6188 30.0749L18.495 34.3415L19.2309 35.0161C19.4295 35.1981 19.4429 35.5067 19.2608 35.7053C19.0788 35.9039 18.7702 35.9173 18.5716 35.7353L17.844 35.0683L12.9637 30.7981L11.982 29.8777C11.7854 29.6934 11.7755 29.3847 11.9597 29.1882Z" fill="currentColor"/>
<path fill-rule="evenodd" clip-rule="evenodd" d="M11.9714 32.609C12.1438 32.4021 12.4514 32.3741 12.6584 32.5466L16.7744 35.9766C16.9814 36.1491 17.0094 36.4567 16.8369 36.6636C16.6644 36.8706 16.3568 36.8986 16.1498 36.7261L12.0338 33.2961C11.8268 33.1236 11.7989 32.816 11.9714 32.609Z" fill="currentColor"/>
<path fill-rule="evenodd" clip-rule="evenodd" d="M9.39146 15.7371C9.59556 15.4692 9.97817 15.4175 10.2461 15.6216L15.3682 19.5242C15.6361 19.7283 15.6878 20.1109 15.4837 20.3788C15.2796 20.6467 14.897 20.6984 14.6291 20.4943L9.50695 16.5917C9.23907 16.3876 9.18736 16.005 9.39146 15.7371Z" fill="currentColor"/>
<path fill-rule="evenodd" clip-rule="evenodd" d="M18.1723 12.3223C18.3764 12.0545 18.759 12.0028 19.0269 12.2069L24.149 16.1094C24.4169 16.3135 24.4686 16.6962 24.2645 16.964C24.0604 17.2319 23.6778 17.2836 23.4099 17.0795L18.2878 13.1769C18.0199 12.9728 17.9682 12.5902 18.1723 12.3223Z" fill="currentColor"/>
<path fill-rule="evenodd" clip-rule="evenodd" d="M27.9288 8.90757C28.1329 8.63969 28.5155 8.58799 28.7834 8.79209L33.9055 12.6947C34.1734 12.8988 34.2251 13.2814 34.021 13.5493C33.8169 13.8171 33.4343 13.8689 33.1664 13.6648L28.0442 9.76216C27.7764 9.55806 27.7247 9.17545 27.9288 8.90757Z" fill="currentColor"/>
<path fill-rule="evenodd" clip-rule="evenodd" d="M37.6852 5.49281C37.8893 5.22493 38.2719 5.17322 38.5398 5.37732L43.662 9.27991C43.9299 9.48401 43.9816 9.86662 43.7775 10.1345C43.5734 10.4024 43.1908 10.4541 42.9229 10.25L37.8007 6.3474C37.5328 6.1433 37.4811 5.76069 37.6852 5.49281Z" fill="currentColor"/>
<path fill-rule="evenodd" clip-rule="evenodd" d="M15.2453 9.88322C15.4494 9.61534 15.8321 9.56364 16.0999 9.76773L17.3805 10.7434C17.6484 10.9475 17.7001 11.3301 17.496 11.598C17.2919 11.8659 16.9092 11.9176 16.6414 11.7135L15.3608 10.7378C15.093 10.5337 15.0412 10.1511 15.2453 9.88322Z" fill="currentColor"/>
<path fill-rule="evenodd" clip-rule="evenodd" d="M25.0018 6.46845C25.2059 6.20057 25.5885 6.14887 25.8564 6.35297L27.1369 7.32862C27.4048 7.53271 27.4565 7.91533 27.2524 8.18321C27.0483 8.45109 26.6657 8.50279 26.3978 8.29869L25.1173 7.32304C24.8494 7.11895 24.7977 6.73633 25.0018 6.46845Z" fill="currentColor"/>
<path fill-rule="evenodd" clip-rule="evenodd" d="M6.46452 13.298C6.66862 13.0301 7.05123 12.9784 7.31911 13.1825L8.59965 14.1581C8.86753 14.3622 8.91923 14.7449 8.71513 15.0127C8.51103 15.2806 8.12842 15.3323 7.86054 15.1282L6.58001 14.1526C6.31213 13.9485 6.26042 13.5659 6.46452 13.298Z" fill="currentColor"/>
<path fill-rule="evenodd" clip-rule="evenodd" d="M34.7583 3.05369C34.9624 2.78581 35.345 2.7341 35.6129 2.9382L36.8934 3.91385C37.1613 4.11795 37.213 4.50056 37.0089 4.76844C36.8048 5.03632 36.4222 5.08802 36.1543 4.88393L34.8738 3.90828C34.6059 3.70418 34.5542 3.32157 34.7583 3.05369Z" fill="currentColor"/>
<path fill-rule="evenodd" clip-rule="evenodd" d="M10.8549 11.8345C11.059 11.5666 11.4416 11.5149 11.7095 11.719L16.8317 15.6216C17.0996 15.8257 17.1513 16.2083 16.9472 16.4762C16.7431 16.7441 16.3604 16.7958 16.0926 16.5917L10.9704 12.6891C10.7025 12.485 10.6508 12.1024 10.8549 11.8345Z" fill="currentColor"/>
<path fill-rule="evenodd" clip-rule="evenodd" d="M17.6845 17.2006C17.8886 16.9327 18.2712 16.881 18.5391 17.0851L19.8196 18.0607C20.0875 18.2648 20.1392 18.6474 19.9351 18.9153C19.731 19.1832 19.3484 19.2349 19.0805 19.0308L17.8 18.0552C17.5321 17.8511 17.4804 17.4685 17.6845 17.2006Z" fill="currentColor"/>
<path fill-rule="evenodd" clip-rule="evenodd" d="M20.1236 7.93192C20.3277 7.66404 20.7103 7.61234 20.9782 7.81644L26.1003 11.719C26.3682 11.9231 26.4199 12.3057 26.2158 12.5736C26.0117 12.8415 25.6291 12.8932 25.3612 12.6891L20.2391 8.78652C19.9712 8.58242 19.9195 8.1998 20.1236 7.93192Z" fill="currentColor"/>
<path fill-rule="evenodd" clip-rule="evenodd" d="M26.9531 13.298C27.1572 13.0301 27.5398 12.9784 27.8077 13.1825L29.0882 14.1581C29.3561 14.3622 29.4078 14.7449 29.2037 15.0127C28.9996 15.2806 28.617 15.3323 28.3491 15.1282L27.0686 14.1526C26.8007 13.9485 26.749 13.5659 26.9531 13.298Z" fill="currentColor"/>
<path fill-rule="evenodd" clip-rule="evenodd" d="M29.8801 4.51716C30.0842 4.24928 30.4668 4.19757 30.7346 4.40167L35.8568 8.30426C36.1247 8.50836 36.1764 8.89098 35.9723 9.15885C35.7682 9.42673 35.3856 9.47844 35.1177 9.27434L29.9955 5.37175C29.7277 5.16765 29.676 4.78504 29.8801 4.51716Z" fill="currentColor"/>
<path fill-rule="evenodd" clip-rule="evenodd" d="M36.7096 9.88322C36.9137 9.61534 37.2963 9.56364 37.5642 9.76773L38.8447 10.7434C39.1126 10.9475 39.1643 11.3301 38.9602 11.598C38.7561 11.8659 38.3735 11.9176 38.1056 11.7135L36.8251 10.7378C36.5572 10.5337 36.5055 10.1511 36.7096 9.88322Z" fill="currentColor"/>
</svg>
