<svg width="50" height="39" viewBox="0 0 50 39" fill="none" xmlns="http://www.w3.org/2000/svg">
<path fill-rule="evenodd" clip-rule="evenodd" d="M16.4972 16.3743C16.8388 16.1116 16.95 15.8331 16.95 15.6163C16.95 15.3995 16.8388 15.121 16.4972 14.8582C16.1543 14.5945 15.6286 14.3967 14.9987 14.3967C14.3688 14.3967 13.843 14.5945 13.5001 14.8582C13.1586 15.121 13.0474 15.3995 13.0474 15.6163C13.0474 15.8331 13.1586 16.1116 13.5001 16.3743C13.843 16.6381 14.3688 16.8358 14.9987 16.8358C15.6286 16.8358 16.1543 16.6381 16.4972 16.3743ZM14.9987 18.0554C16.7499 18.0554 18.1695 16.9634 18.1695 15.6163C18.1695 14.2692 16.7499 13.1772 14.9987 13.1772C13.2475 13.1772 11.8278 14.2692 11.8278 15.6163C11.8278 16.9634 13.2475 18.0554 14.9987 18.0554Z" fill="currentColor"/>
<path fill-rule="evenodd" clip-rule="evenodd" d="M25.7659 12.9596C26.1074 12.6968 26.2186 12.4183 26.2186 12.2015C26.2186 11.9847 26.1074 11.7062 25.7659 11.4435C25.423 11.1797 24.8972 10.982 24.2673 10.982C23.6374 10.982 23.1116 11.1797 22.7688 11.4435C22.4272 11.7062 22.316 11.9847 22.316 12.2015C22.316 12.4183 22.4272 12.6968 22.7688 12.9596C23.1116 13.2233 23.6374 13.4211 24.2673 13.4211C24.8972 13.4211 25.423 13.2233 25.7659 12.9596ZM24.2673 14.6406C26.0185 14.6406 27.4382 13.5486 27.4382 12.2015C27.4382 10.8544 26.0185 9.7624 24.2673 9.7624C22.5161 9.7624 21.0965 10.8544 21.0965 12.2015C21.0965 13.5486 22.5161 14.6406 24.2673 14.6406Z" fill="currentColor"/>
<path fill-rule="evenodd" clip-rule="evenodd" d="M35.0345 9.05699C35.3761 8.79425 35.4873 8.51573 35.4873 8.29893C35.4873 8.08213 35.3761 7.8036 35.0345 7.54086C34.6916 7.27711 34.1659 7.07937 33.536 7.07937C32.9061 7.07937 32.3803 7.27711 32.0374 7.54086C31.6959 7.8036 31.5847 8.08213 31.5847 8.29893C31.5847 8.51573 31.6959 8.79425 32.0374 9.05699C32.3803 9.32075 32.9061 9.51849 33.536 9.51849C34.1659 9.51849 34.6916 9.32075 35.0345 9.05699ZM33.536 10.738C35.2872 10.738 36.7068 9.64602 36.7068 8.29893C36.7068 6.95184 35.2872 5.85981 33.536 5.85981C31.7848 5.85981 30.3651 6.95184 30.3651 8.29893C30.3651 9.64602 31.7848 10.738 33.536 10.738Z" fill="currentColor"/>
<path fill-rule="evenodd" clip-rule="evenodd" d="M34.8184 0.114348C35.2859 -0.0735102 35.8148 -0.0280126 36.2433 0.23692L49.2483 8.27734C49.7156 8.56624 50 9.07647 50 9.62585V22.7274C50 23.3786 49.6018 23.9635 48.996 24.2023L12.9358 38.4164C12.402 38.6268 11.7963 38.5324 11.3518 38.1696L0.753084 29.5179C0.389706 29.2213 0.176332 28.779 0.170347 28.31L0.000101946 14.9689C-0.00243708 14.7699 0.0424839 14.5732 0.131141 14.3951C0.267813 14.1204 0.500544 13.9055 0.78517 13.7912L34.8184 0.114348ZM35.602 1.27424C35.5031 1.2131 35.381 1.2026 35.2732 1.24595L1.23992 14.9228C1.23254 14.9257 1.22651 14.9313 1.22296 14.9384C1.22066 14.9431 1.2195 14.9482 1.21956 14.9533L1.38981 28.2944C1.39119 28.4026 1.44043 28.5047 1.52428 28.5732L12.123 37.2248C12.2256 37.3085 12.3654 37.3303 12.4886 37.2818L48.5487 23.0677C48.6886 23.0126 48.7804 22.8776 48.7804 22.7274V9.62585C48.7804 9.49907 48.7148 9.38133 48.607 9.31466L35.602 1.27424Z" fill="currentColor"/>
<path fill-rule="evenodd" clip-rule="evenodd" d="M32.8861 15.881C33.0062 16.1956 32.8485 16.5481 32.5339 16.6682L13.3306 24.0012C13.1905 24.0547 13.0972 24.1884 13.0953 24.3383L12.9253 37.5788C12.921 37.9155 12.6445 38.185 12.3078 38.1807C11.971 38.1763 11.7016 37.8998 11.7059 37.5631L11.8759 24.3227C11.8842 23.6728 12.2884 23.0938 12.8956 22.8619L32.0989 15.5289C32.4135 15.4088 32.7659 15.5664 32.8861 15.881Z" fill="currentColor"/>
<path fill-rule="evenodd" clip-rule="evenodd" d="M42.8864 12.0622C43.0066 12.3768 42.8489 12.7293 42.5343 12.8494L35.9487 15.3642C35.6341 15.4844 35.2816 15.3267 35.1615 15.0121C35.0414 14.6975 35.199 14.345 35.5136 14.2249L42.0992 11.7101C42.4139 11.59 42.7663 11.7476 42.8864 12.0622ZM12.5019 23.0582C12.8387 23.0625 13.1081 23.339 13.1038 23.6758L12.9253 37.5788C12.921 37.9155 12.6445 38.185 12.3078 38.1807C11.971 38.1763 11.7016 37.8998 11.7059 37.5631L11.8844 23.6601C11.8887 23.3234 12.1652 23.0539 12.5019 23.0582Z" fill="currentColor"/>
<path fill-rule="evenodd" clip-rule="evenodd" d="M49.4721 9.54742C49.5922 9.86203 49.4345 10.2145 49.1199 10.3346L45.8271 11.592C45.5125 11.7121 45.1601 11.5545 45.0399 11.2399C44.9198 10.9253 45.0774 10.5728 45.3921 10.4527L48.6849 9.19529C48.9995 9.07515 49.3519 9.2328 49.4721 9.54742ZM12.5019 23.0582C12.8387 23.0625 13.1081 23.339 13.1038 23.6758L12.9253 37.5788C12.921 37.9155 12.6445 38.185 12.3078 38.1807C11.971 38.1763 11.7016 37.8998 11.7059 37.5631L11.8844 23.6601C11.8887 23.3234 12.1652 23.0539 12.5019 23.0582Z" fill="currentColor"/>
<path fill-rule="evenodd" clip-rule="evenodd" d="M0.614353 14.2688C0.821118 14.003 1.20423 13.9551 1.47006 14.1619L12.9339 23.0787C13.1997 23.2855 13.2476 23.6686 13.0409 23.9344C12.8341 24.2002 12.451 24.2481 12.1851 24.0413L0.721292 15.1245C0.455466 14.9177 0.407588 14.5346 0.614353 14.2688Z" fill="currentColor"/>
<path fill-rule="evenodd" clip-rule="evenodd" d="M12.2534 26.0526C12.4308 25.8498 12.739 25.8293 12.9417 26.0067L21.7835 33.7433C21.9863 33.9207 22.0069 34.2289 21.8294 34.4316C21.652 34.6344 21.3438 34.6549 21.1411 34.4775L12.2993 26.7409C12.0965 26.5635 12.076 26.2553 12.2534 26.0526Z" fill="currentColor"/>
<path fill-rule="evenodd" clip-rule="evenodd" d="M11.9597 29.1882C12.144 28.9916 12.4527 28.9817 12.6493 29.1659L13.6188 30.0749L18.495 34.3415L19.2309 35.0161C19.4295 35.1981 19.4429 35.5067 19.2608 35.7053C19.0788 35.9039 18.7702 35.9173 18.5716 35.7353L17.844 35.0683L12.9637 30.7981L11.982 29.8777C11.7854 29.6934 11.7755 29.3847 11.9597 29.1882Z" fill="currentColor"/>
<path fill-rule="evenodd" clip-rule="evenodd" d="M11.9714 32.609C12.1438 32.4021 12.4514 32.3741 12.6584 32.5466L16.7744 35.9766C16.9814 36.1491 17.0094 36.4567 16.8369 36.6636C16.6644 36.8706 16.3568 36.8986 16.1498 36.7261L12.0338 33.2961C11.8268 33.1236 11.7989 32.816 11.9714 32.609Z" fill="currentColor"/>

</svg>
