<svg width="24" height="24" viewBox="0 0 24 24" fill="none" xmlns="http://www.w3.org/2000/svg">
<ellipse cx="11.8967" cy="11.9058" rx="11.8967" ry="11.9058" fill="white"/>
<path d="M15.4148 12.1625C15.6484 12.2788 15.8746 12.4133 16.0918 12.5634C16.4838 12.8345 16.839 13.1476 17.1608 13.4989C17.5898 13.9674 17.9418 14.4884 18.2185 15.0606C18.3934 15.4224 18.5319 15.7979 18.6416 16.1845C18.65 16.2142 18.6472 16.2254 18.6118 16.2254C17.8714 16.2244 17.131 16.2243 16.3907 16.2257C16.3514 16.2258 16.3445 16.2052 16.3352 16.1766C16.1729 15.6782 15.9402 15.2159 15.6218 14.7991C15.1386 14.1664 14.5302 13.7072 13.7661 13.4664C13.5518 13.3989 13.3325 13.356 13.1099 13.3284C13.0835 13.3252 13.0755 13.3334 13.0778 13.3582C13.0789 13.3707 13.078 13.3835 13.078 13.3962C13.078 14.3187 13.078 15.2413 13.078 16.1639C13.078 16.2246 13.078 16.2244 13.0164 16.2246C12.7207 16.226 12.425 16.2209 12.13 16.1974C11.0115 16.1081 9.95664 15.8125 8.99645 15.2159C8.54421 14.935 8.13678 14.5985 7.7734 14.2086C7.06752 13.4515 6.58063 12.5659 6.24554 11.5917C6.06489 11.0665 5.93455 10.5285 5.84418 9.98046C5.78295 9.60866 5.73919 9.23514 5.71119 8.85944C5.6941 8.63031 5.68651 8.4008 5.67521 8.17138C5.67303 8.12725 5.68129 8.1127 5.7296 8.11279C6.4352 8.1146 7.1408 8.11432 7.8463 8.11327C7.88314 8.11317 7.89671 8.1186 7.89747 8.16083C7.90335 8.4903 7.9249 8.81883 7.96117 9.1465C8.02648 9.73716 8.14238 10.3167 8.33205 10.8804C8.49703 11.3708 8.71432 11.8359 9.00708 12.2636C9.34787 12.7615 9.76479 13.1789 10.2959 13.4733C10.4868 13.5792 10.6872 13.6627 10.8982 13.7203C10.9401 13.7317 10.9493 13.7237 10.9491 13.6818C10.9479 13.341 10.9484 13.0002 10.9484 12.6595C10.9484 11.1663 10.9484 9.67305 10.9485 8.17985C10.9485 8.10214 10.941 8.11441 11.0138 8.11432C11.683 8.11393 12.3521 8.1146 13.0214 8.11308C13.0663 8.11298 13.079 8.12269 13.0789 8.16958C13.0774 9.20147 13.0778 10.2335 13.0778 11.2654C13.0778 11.3254 13.0776 11.3237 13.1383 11.3144C13.5937 11.2447 13.9867 11.0372 14.3457 10.7592C14.8975 10.3319 15.3162 9.79318 15.645 9.18112C15.8218 8.85193 15.9622 8.5078 16.0624 8.14751C16.0693 8.12259 16.0797 8.11336 16.1073 8.11346C16.7828 8.11441 17.4583 8.11422 18.1339 8.11432C18.1431 8.11432 18.1524 8.11603 18.1726 8.11802C17.8188 9.85624 16.8655 11.1765 15.4148 12.1625Z" fill="#316EE8"/>
</svg>
