<svg width="24" height="24" viewBox="0 0 24 24" fill="none" xmlns="http://www.w3.org/2000/svg">
<ellipse cx="11.8625" cy="11.884" rx="11.8625" ry="11.884" fill="white"/>
<path d="M12.1351 8.10304C11.3671 8.10304 10.8085 8.08987 10.2503 8.10592C9.26446 8.13391 8.27779 8.15901 7.29585 8.26272C6.61429 8.33475 6.08744 8.76647 5.90953 9.40397C5.78877 9.83775 5.73764 10.2822 5.70455 10.7284C5.64352 11.5548 5.65427 12.3828 5.6736 13.2096C5.68908 13.8508 5.74365 14.4912 5.89621 15.1201C6.05521 15.7761 6.63449 16.2391 7.33281 16.3033C8.15016 16.3786 8.96837 16.4173 9.78788 16.4502C11.1402 16.5049 12.493 16.4885 13.845 16.465C14.7496 16.4494 15.655 16.4004 16.5566 16.3033C17.2721 16.2263 17.8084 15.8119 17.982 15.1501C18.0946 14.7204 18.1475 14.2821 18.1789 13.8401C18.2399 12.9824 18.2154 12.1239 18.2055 11.2663C18.1986 10.6765 18.1398 10.0871 18.0022 9.5085C17.8291 8.7784 17.2983 8.33187 16.5227 8.25861C15.7324 8.18412 14.9395 8.15778 14.1462 8.12444C13.4058 8.09275 12.6658 8.12115 12.1351 8.10304ZM10.3487 12.405C10.3487 11.8194 10.3482 11.2337 10.3487 10.6477C10.3487 10.4596 10.3517 10.458 10.5317 10.5473C10.7556 10.6584 10.9782 10.772 11.2021 10.8827C12.1596 11.3576 13.117 11.8317 14.074 12.3075C14.1192 12.3297 14.1862 12.3396 14.1862 12.4034C14.1862 12.4507 14.1329 12.4635 14.096 12.4816C12.8966 13.0787 11.6963 13.6743 10.4982 14.2731C10.3676 14.3385 10.3461 14.2978 10.347 14.1768C10.3504 13.587 10.3487 12.996 10.3487 12.405Z" fill="#EA0C00"/>
</svg>
