<svg xmlns="http://www.w3.org/2000/svg" xmlns:xlink="http://www.w3.org/1999/xlink"><defs><style>
    .sprite-symbol-usage {display: none;}
    .sprite-symbol-usage:target {display: inline;}
  </style><symbol viewBox="0 0 14 15" fill="none" id="icon-calendar">
<path d="M9.33333 0H10.8889V1.5H14V15H0V1.5H3.11111V0H4.66667V1.5H9.33333V0ZM4.66667 3H1.55556V4.5H12.4444V3H4.66667ZM1.55556 6V13.5H12.4444V6H1.55556ZM3.11111 7.5H4.66667V9H3.11111V7.5ZM7.77778 7.5H6.22222V9H7.77778V7.5ZM9.33333 7.5H10.8889V9H9.33333V7.5ZM4.66667 10.5H3.11111V12H4.66667V10.5ZM6.22222 10.5H7.77778V12H6.22222V10.5ZM10.8889 10.5H9.33333V12H10.8889V10.5Z" fill="#FF6600" />
</symbol><symbol viewBox="0 0 19 20" fill="none" id="icon-catalog">
<path fill-rule="evenodd" clip-rule="evenodd" d="M18.9912 3.44315V6.30531C19.0006 7.08351 18.7068 7.83365 18.1743 8.39067C17.6419 8.9477 16.9145 9.26597 16.1522 9.27546H14.9884C14.5941 9.23237 14.2951 8.89272 14.2951 8.48792C14.2951 8.08312 14.5941 7.74347 14.9884 7.70038H16.1169C16.4739 7.69801 16.8152 7.55035 17.0651 7.29015C17.3151 7.02994 17.453 6.67869 17.4483 6.31431V3.44315C17.4388 2.69661 16.8482 2.09378 16.1169 2.08408H13.3044C12.5691 2.08408 11.9731 2.69256 11.9731 3.44315V7.73638C11.9587 8.17172 11.6062 8.51556 11.1796 8.51042C10.9746 8.50574 10.7799 8.41743 10.6391 8.26523C10.4983 8.11303 10.423 7.9096 10.4302 7.70038V3.44315C10.4278 2.66341 10.7296 1.91478 11.2689 1.36257C11.8082 0.810365 12.5406 0.499996 13.3044 0.5H16.1169C17.692 0.538179 18.9586 1.83515 18.9912 3.44315ZM5.69559 0.5H2.88306C1.2948 0.509827 0.00962617 1.82178 0 3.44315V6.31431C0.00966866 7.9342 1.29622 9.24355 2.88306 9.24846H5.69559C6.45942 9.25085 7.19276 8.94278 7.73369 8.39226C8.27463 7.84173 8.57866 7.09405 8.57865 6.31431V3.44315C8.57381 1.81975 7.28585 0.504942 5.69559 0.5ZM7.02691 6.31431C7.03162 6.67869 6.89372 7.02994 6.64379 7.29015C6.39386 7.55035 6.05256 7.69801 5.69559 7.70038H2.88306C2.52078 7.7078 2.17118 7.56416 1.91496 7.30259C1.65873 7.04102 1.51802 6.68414 1.52529 6.31431V3.44315C1.52522 3.07798 1.66911 2.72814 1.92453 2.47247C2.17995 2.21681 2.52541 2.07683 2.88306 2.08408H5.69559C6.42886 2.08899 7.02211 2.6946 7.02691 3.44315V6.31431ZM13.3044 10.7515H16.1169C17.7038 10.7564 18.9903 12.0658 19 13.6857V16.5568C18.9904 18.1782 17.7052 19.4902 16.1169 19.5H13.3044C11.7176 19.4901 10.435 18.1768 10.4302 16.5568V13.6857C10.4302 12.0652 11.717 10.7515 13.3044 10.7515ZM17.0609 17.5205C17.3111 17.2651 17.4506 16.918 17.4483 16.5568V13.6857C17.4483 13.3252 17.308 12.9796 17.0583 12.7247C16.8087 12.4698 16.47 12.3266 16.1169 12.3266H13.3044C12.5691 12.3266 11.9731 12.9351 11.9731 13.6857V16.5568C11.9707 16.918 12.1102 17.2651 12.3604 17.5205C12.6106 17.7759 12.9506 17.9183 13.3044 17.9159H16.1169C16.4707 17.9183 16.8107 17.7759 17.0609 17.5205ZM0 16.5479V13.6857C-3.59358e-06 12.906 0.304028 12.1583 0.844962 11.6078C1.3859 11.0572 2.11924 10.7492 2.88306 10.7516H4.03805C4.33336 10.7193 4.62081 10.8619 4.77835 11.1189C4.9359 11.376 4.9359 11.7022 4.77835 11.9592C4.62081 12.2163 4.33336 12.3589 4.03805 12.3266H2.88306C2.14635 12.3266 1.54777 12.9337 1.54292 13.6857V16.5209C1.56166 17.2669 2.15217 17.8657 2.88306 17.8799H5.71322C6.06784 17.8823 6.40874 17.7402 6.66032 17.4851C6.9119 17.2299 7.05337 16.8829 7.05336 16.5209V12.2636C6.99586 11.9457 7.13341 11.624 7.40087 11.4509C7.66833 11.2778 8.01201 11.288 8.26917 11.4767C8.52633 11.6654 8.64534 11.9947 8.56984 12.3086V16.5479C8.56984 18.1733 7.27905 19.491 5.68677 19.491H2.88306C1.30456 19.4576 0.0327499 18.1593 0 16.5479Z" fill="white" />
</symbol><symbol viewBox="0 0 13 14" fill="none" id="icon-clip">
<path d="M1.05155 10.3402C1.10317 11.2583 1.70542 12.2102 2.89271 12.7156C4.0714 13.221 5.22428 13.0694 6.16207 12.2102C7.6849 10.8035 9.14751 9.32932 10.6359 7.88047C11.0919 7.43402 11.5479 6.98757 12.0039 6.54112C12.2792 6.27156 12.5975 6.25472 12.8298 6.46531C13.0707 6.68432 13.0535 7.02126 12.7696 7.29924C10.8768 9.15243 8.99265 11.014 7.08265 12.8504C5.85234 14.0381 4.05419 14.3161 2.47974 13.6254C0.948305 12.9515 -0.0497096 11.41 0.00191182 9.76735C0.0363261 8.73125 0.40628 7.80466 1.15479 7.06338C3.29708 4.94906 5.44797 2.84316 7.60747 0.745692C8.83778 -0.450457 11.0919 -0.164055 12.1502 1.29322C13.0535 2.53149 12.9159 4.13197 11.8146 5.21019C9.93044 7.05496 8.04625 8.89972 6.15347 10.7445C5.57703 11.3089 4.88874 11.5026 4.11442 11.2499C3.3401 11.0056 2.87551 10.4665 2.72924 9.68312C2.6174 9.07662 2.78087 8.51224 3.21104 8.07421C4.43275 6.86964 5.66306 5.67349 6.88477 4.47734C7.13427 4.23306 7.46981 4.23306 7.6849 4.46049C7.89999 4.67951 7.88279 4.9996 7.63328 5.24389C6.49761 6.37265 5.36194 7.48456 4.21766 8.59647C4.01118 8.79864 3.8305 9.01765 3.8305 9.32933C3.8219 9.67469 3.95095 9.95267 4.26068 10.1211C4.57901 10.298 4.89735 10.2896 5.20707 10.1127C5.31032 10.0538 5.39635 9.97794 5.48239 9.89371C7.38378 8.03209 9.29377 6.17048 11.1952 4.29202C12.1674 3.33173 11.9695 1.83233 10.7908 1.15845C10.0165 0.720421 9.02706 0.863622 8.33017 1.53751C6.56644 3.26434 4.7941 4.9996 3.02177 6.74328C2.626 7.13077 2.23024 7.51825 1.85168 7.92259C1.30105 8.49539 1.03434 9.18612 1.05155 10.3402Z" fill="#0B1321" />
</symbol><symbol viewBox="0 0 18 18" fill="none" id="icon-dialog">
<path fill-rule="evenodd" clip-rule="evenodd" d="M13.9498 4.04803C11.2192 1.3172 6.78179 1.3172 4.05126 4.04874L4.05105 4.04895C1.91306 6.18648 1.44752 9.35486 2.64842 11.9499C2.65561 11.9655 2.6624 11.9812 2.66878 11.9971C2.675 12.0126 2.68132 12.0283 2.68774 12.0442C2.84401 12.4322 3.05363 12.9526 3.05363 13.5012C3.05363 13.8876 2.96238 14.2522 2.87674 14.5364C2.83259 14.6829 2.78407 14.8262 2.74105 14.9524L2.73023 14.9842C2.68997 15.1023 2.65519 15.2043 2.62429 15.3033C2.61274 15.3403 2.6026 15.3743 2.59372 15.4055C2.62439 15.3967 2.65773 15.3867 2.69396 15.3753C2.79438 15.3438 2.89818 15.3081 3.01865 15.2667L3.04312 15.2583C3.16868 15.2151 3.31132 15.1664 3.45694 15.1219C3.73925 15.0357 4.10199 14.9431 4.48619 14.9408L4.49212 14.9408C5.03619 14.9408 5.56112 15.1531 5.94087 15.3067C5.96184 15.3152 5.98237 15.3235 6.00244 15.3316C6.01802 15.3379 6.03345 15.3445 6.0487 15.3516C8.64449 16.552 11.8118 16.087 13.9498 13.9488C16.6808 11.2175 16.6855 6.7841 13.9498 4.04803ZM2.637 2.63458C6.14862 -0.878114 11.8525 -0.878044 15.3641 2.63389C18.8817 6.15191 18.8751 11.8515 15.3641 15.363C12.6188 18.1086 8.55818 18.7038 5.23301 17.1778C4.76323 16.9892 4.60096 16.9416 4.49491 16.9408C4.40424 16.9419 4.26385 16.9667 4.0409 17.0347C3.9326 17.0678 3.82031 17.106 3.69305 17.1497L3.66356 17.1599C3.54895 17.1993 3.42049 17.2435 3.29322 17.2834C3.02994 17.3661 2.67372 17.4641 2.30171 17.4643C1.89442 17.4646 1.42531 17.3461 1.03982 16.9611L1.03936 16.9607C0.653923 16.5752 0.53536 16.106 0.53536 15.6987C0.53536 15.3268 0.632995 14.9705 0.71516 14.7073C0.754272 14.582 0.797503 14.4552 0.836146 14.342C0.840129 14.3303 0.844063 14.3187 0.847939 14.3074C0.891299 14.1801 0.929153 14.0677 0.961784 13.9594C1.02971 13.734 1.05363 13.5925 1.05363 13.5012C1.05363 13.3923 1.00892 13.232 0.822149 12.7656C-0.704419 9.44083 -0.108191 5.37934 2.63679 2.63479C2.63686 2.63472 2.63693 2.63465 2.637 2.63458ZM4.73694 9.3304C4.73694 8.77812 5.18465 8.3304 5.73694 8.3304H5.74414C6.29642 8.3304 6.74414 8.77812 6.74414 9.3304C6.74414 9.88268 6.29642 10.3304 5.74414 10.3304H5.73694C5.18465 10.3304 4.73694 9.88268 4.73694 9.3304ZM7.94414 9.3304C7.94414 8.77812 8.39185 8.3304 8.94414 8.3304H8.95134C9.50362 8.3304 9.95134 8.77812 9.95134 9.3304C9.95134 9.88268 9.50362 10.3304 8.95134 10.3304H8.94414C8.39185 10.3304 7.94414 9.88268 7.94414 9.3304ZM11.1513 9.3304C11.1513 8.77812 11.5991 8.3304 12.1513 8.3304H12.1585C12.7108 8.3304 13.1585 8.77812 13.1585 9.3304C13.1585 9.88268 12.7108 10.3304 12.1585 10.3304H12.1513C11.5991 10.3304 11.1513 9.88268 11.1513 9.3304Z" fill="currentColor" />
</symbol><symbol viewBox="0 0 34 34" fill="none" id="icon-dialog-plate">
<path opacity="0.2" fill-rule="evenodd" clip-rule="evenodd" d="M28.2199 28.218C23.1696 33.2706 15.6871 34.3623 9.56528 31.531C8.66153 31.1672 2.81212 32.7871 1.5429 31.5194C0.273669 30.25 1.89509 24.3998 1.53127 23.4959C-1.30124 17.3749 -0.208106 9.88977 4.84388 4.83875C11.293 -1.61292 21.7708 -1.61292 28.2199 4.83875C34.6824 11.3004 34.6691 21.768 28.2199 28.218Z" fill="#316EE8" />
</symbol><symbol viewBox="0 0 16 16" fill="none" id="icon-direction">
<path fill-rule="evenodd" clip-rule="evenodd" d="M15.4786 0.521461C15.628 0.670877 15.6673 0.898091 15.5769 1.08906L8.82688 15.3391C8.73647 15.5299 8.5359 15.6434 8.32574 15.6226C8.11558 15.6018 7.94116 15.4512 7.88994 15.2463L6.4627 9.53732L0.753745 8.11009C0.548863 8.05887 0.398256 7.88444 0.377446 7.67428C0.356636 7.46412 0.470111 7.26355 0.660969 7.17315L14.911 0.423145C15.1019 0.332688 15.3291 0.372044 15.4786 0.521461ZM2.35169 7.47879L6.99628 8.63994C7.17542 8.68473 7.3153 8.8246 7.36008 9.00375L8.52123 13.6483L14.0738 1.9262L2.35169 7.47879Z" fill="currentColor" />
</symbol><symbol viewBox="0 0 13 10" fill="none" id="icon-done">
<path fill-rule="evenodd" clip-rule="evenodd" d="M12.687 0.273304C13.0883 0.6527 13.1061 1.28562 12.7267 1.68696L5.1642 9.68696C4.97531 9.88678 4.71247 10 4.4375 10C4.16253 10 3.8997 9.88678 3.7108 9.68696L0.273304 6.0506C-0.106092 5.64925 -0.0882987 5.01634 0.313046 4.63694C0.71439 4.25755 1.3473 4.27534 1.7267 4.67668L4.4375 7.54431L11.2733 0.313046C11.6527 -0.0882987 12.2856 -0.106092 12.687 0.273304Z" fill="white" />
</symbol><symbol viewBox="0 0 20 20" fill="none" id="icon-download">
<path fill-rule="evenodd" clip-rule="evenodd" d="M10 0C10.5523 5.96046e-08 11 0.447715 11 1L11 10.5858L14.2929 7.29289C14.6834 6.90237 15.3166 6.90237 15.7071 7.29289C16.0976 7.68342 16.0976 8.31658 15.7071 8.70711L10.7071 13.7071C10.5196 13.8946 10.2652 14 10 14C9.73478 14 9.48043 13.8946 9.29289 13.7071L4.29289 8.70711C3.90237 8.31658 3.90237 7.68342 4.29289 7.29289C4.68342 6.90237 5.31658 6.90237 5.70711 7.29289L9 10.5858L9 1C9 0.447715 9.44772 0 10 0ZM1 12C1.55228 12 2 12.4477 2 13V17C2 17.2652 2.10536 17.5196 2.29289 17.7071C2.48043 17.8946 2.73478 18 3 18H17C17.2652 18 17.5196 17.8946 17.7071 17.7071C17.8946 17.5196 18 17.2652 18 17V13C18 12.4477 18.4477 12 19 12C19.5523 12 20 12.4477 20 13V17C20 17.7957 19.6839 18.5587 19.1213 19.1213C18.5587 19.6839 17.7957 20 17 20H3C2.20435 20 1.44129 19.6839 0.87868 19.1213C0.316071 18.5587 0 17.7957 0 17L1.78814e-07 13C1.78814e-07 12.4477 0.447715 12 1 12Z" fill="currentColor" />
</symbol><symbol viewBox="0 0 24 24" fill="none" id="icon-email">
<path fill-rule="evenodd" clip-rule="evenodd" d="M2.13723 7.13102C4.40018 2.5474 9.52251 0.126727 14.5006 1.28846C19.4786 2.45018 23.0003 6.88812 23.0007 11.9999V13C23.0007 15.2091 21.2098 17 19.0007 17C16.7915 17 15.0007 15.2091 15.0007 13V12C15.0007 11.4477 15.4484 11 16.0007 11C16.5529 11 17.0007 11.4477 17.0007 12V13C17.0007 14.1046 17.8961 15 19.0007 15C20.1052 15 21.0007 14.1046 21.0007 13V12.0001C21.0007 12 21.0007 12.0001 21.0007 12.0001C21.0004 7.8177 18.119 4.18662 14.046 3.23612C9.97308 2.28562 5.78209 4.26617 3.93058 8.01641C2.07908 11.7666 3.05506 16.2981 6.28622 18.9537C9.51738 21.6092 14.1521 21.6889 17.4727 19.1461C17.9111 18.8103 18.5388 18.8935 18.8746 19.332C19.2104 19.7705 19.1271 20.3981 18.6887 20.7339C14.6302 23.8419 8.96554 23.7445 5.01634 20.4988C1.06715 17.2531 -0.125715 11.7146 2.13723 7.13102Z" fill="currentColor" />
<path fill-rule="evenodd" clip-rule="evenodd" d="M7 12C7 9.23858 9.23858 7 12 7C14.7614 7 17 9.23858 17 12C17 14.7614 14.7614 17 12 17C9.23858 17 7 14.7614 7 12ZM12 9C10.3431 9 9 10.3431 9 12C9 13.6569 10.3431 15 12 15C13.6569 15 15 13.6569 15 12C15 10.3431 13.6569 9 12 9Z" fill="currentColor" />
</symbol><symbol viewBox="0 0 17 17" fill="none" id="icon-folder">
<path fill-rule="evenodd" clip-rule="evenodd" d="M7.76687 2.48514C6.87655 1.99145 5.73675 1.83703 4.03356 2.19706L4.03309 2.19716C2.79346 2.45858 2 3.59302 2 5.25015V10.1159C2 12.6996 2.68694 13.7397 3.56489 14.2647C4.05734 14.5592 4.70425 14.7516 5.549 14.8636C6.39397 14.9757 7.37201 15 8.5 15C10.8137 15 12.3995 14.8688 13.4318 14.246C14.3154 13.713 15 12.6678 15 10.1159C15 9.38801 14.9995 8.55193 14.8535 7.72591C14.708 6.9022 14.4312 6.17627 13.9423 5.63412L13.9423 5.6341C13.6138 5.2698 13.2024 5.17818 12.4646 5.17916C12.3714 5.17928 12.262 5.18137 12.1437 5.18363C11.8625 5.189 11.5307 5.19533 11.2452 5.17855C10.8052 5.1527 10.2784 5.07027 9.78255 4.78035M8.73652 0.735918C7.29038 -0.0658917 5.61772 -0.181929 3.6204 0.240204ZM8.73677 0.736056C9.58401 1.20564 9.90914 1.82983 10.1344 2.26231C10.1377 2.26868 10.141 2.27501 10.1443 2.28129C10.3414 2.65939 10.4495 2.85355 10.7918 3.0537L10.792 3.0538C10.8971 3.11523 11.0625 3.16437 11.3625 3.18199C11.5723 3.19432 11.7642 3.1903 11.996 3.18545C12.1333 3.18257 12.2846 3.1794 12.4619 3.17916C13.3069 3.17804 14.4934 3.25869 15.4276 4.29475C16.2608 5.21866 16.6415 6.35107 16.823 7.37789C17.0002 8.38072 17.0001 9.3664 17 10.0706L17 10.1159C17 13.0157 16.199 14.9125 14.4649 15.9586C12.8794 16.915 10.7151 17 8.5 17C7.36355 17 6.27187 16.977 5.28601 16.8463C4.29993 16.7155 3.35489 16.4694 2.53845 15.9812C0.798622 14.9408 0 13.0388 0 10.1159V5.25015C0 2.98979 1.15748 0.759847 3.61993 0.240303M8.37072 3.20565C8.1713 2.82301 8.0763 2.65661 7.76712 2.48528L7.76687 2.48514M8.37072 3.20565L8.37743 3.21852ZM8.37743 3.21852C8.60519 3.65564 8.93219 4.28322 9.78239 4.78025ZM3.75055 10.6856C3.75055 10.1333 4.19826 9.68557 4.75055 9.68557H12.2373C12.7896 9.68557 13.2373 10.1333 13.2373 10.6856C13.2373 11.2379 12.7896 11.6856 12.2373 11.6856H4.75055C4.19826 11.6856 3.75055 11.2379 3.75055 10.6856Z" fill="currentColor" />
</symbol><symbol viewBox="0 0 25 18" fill="none" id="icon-lg-arrow">
<path d="M16 17L24 9L16 1" stroke="currentColor" stroke-width="2" stroke-linecap="round" stroke-linejoin="round" />
<path d="M23 9H1" stroke="currentColor" stroke-width="2" stroke-linecap="round" stroke-linejoin="round" />
</symbol><symbol viewBox="0 0 15 17" fill="none" id="icon-location">
<path fill-rule="evenodd" clip-rule="evenodd" d="M1 7.28252C1.0122 3.80097 3.93222 0.988209 7.52207 1.00004C11.1119 1.01187 14.0122 3.84381 14 7.32536V7.39675C13.9558 9.65987 12.6529 11.7517 11.0555 13.3865C10.1419 14.3066 9.12174 15.1211 8.01527 15.8139C7.71941 16.062 7.28056 16.062 6.98469 15.8139C5.33521 14.7726 3.8875 13.458 2.70781 11.9301C1.65637 10.5978 1.0594 8.98072 1 7.30394V7.28252Z" stroke="currentColor" stroke-width="1.5" stroke-linecap="round" stroke-linejoin="round" />
<path d="M9.58321 7.40389C9.58321 8.51972 8.65052 9.42428 7.49998 9.42428C6.34944 9.42428 5.41675 8.51972 5.41675 7.40389C5.41675 6.28806 6.34944 5.3835 7.49998 5.3835C8.65052 5.3835 9.58321 6.28806 9.58321 7.40389Z" stroke="currentColor" stroke-width="1.5" stroke-linecap="round" stroke-linejoin="round" />
</symbol><symbol viewBox="0 0 17 15" fill="none" id="icon-mail">
<path d="M12.9089 5.22378L9.58185 7.83217C8.95221 8.31285 8.06959 8.31285 7.43995 7.83217L4.08432 5.22378M4.81257 1H12.1664C13.2267 1.01158 14.2359 1.44806 14.959 2.20779C15.682 2.96751 16.0558 3.98417 15.9932 5.02098V9.97902C16.0558 11.0158 15.682 12.0325 14.959 12.7922C14.2359 13.5519 13.2267 13.9884 12.1664 14H4.81257C2.53502 14 1 12.1958 1 9.97902V5.02098C1 2.8042 2.53502 1 4.81257 1Z" stroke="currentColor" stroke-width="1.5" stroke-linecap="round" stroke-linejoin="round" />
</symbol><symbol viewBox="0 0 25 25" fill="none" id="icon-plus">
<path fill-rule="evenodd" clip-rule="evenodd" d="M12.75 0C13.5784 0 14.25 0.671573 14.25 1.5V23C14.25 23.8284 13.5784 24.5 12.75 24.5C11.9216 24.5 11.25 23.8284 11.25 23V1.5C11.25 0.671573 11.9216 0 12.75 0Z" fill="currentColor" />
<path fill-rule="evenodd" clip-rule="evenodd" d="M25 12.25C25 13.0784 24.3284 13.75 23.5 13.75L2 13.75C1.17157 13.75 0.5 13.0784 0.5 12.25C0.5 11.4216 1.17157 10.75 2 10.75L23.5 10.75C24.3284 10.75 25 11.4216 25 12.25Z" fill="currentColor" />
</symbol><symbol viewBox="0 0 21 18" fill="none" id="icon-reload">
<path fill-rule="evenodd" clip-rule="evenodd" d="M8.35858 0.849016C9.68408 0.432372 11.0868 0.387202 12.4337 0.718372C13.7801 1.04944 15.0209 1.74423 16.0425 2.73096C17.0637 3.71732 17.833 4.96337 18.2845 6.3498C18.4128 6.74366 18.1974 7.16691 17.8036 7.29516C17.4097 7.42342 16.9865 7.2081 16.8582 6.81424C16.4798 5.65207 15.8386 4.6195 15.0004 3.80987C14.1625 3.00059 13.1555 2.44053 12.0755 2.17499C10.9959 1.90954 9.87269 1.94544 8.80838 2.27999C7.74359 2.61468 6.7672 3.2392 5.97338 4.10229C5.96808 4.10805 5.96269 4.11373 5.95721 4.11933L3.40923 6.72114H6.53409C6.9483 6.72114 7.28409 7.05693 7.28409 7.47114C7.28409 7.88536 6.9483 8.22114 6.53409 8.22114H1.625C1.21079 8.22114 0.875 7.88536 0.875 7.47114V2.13641C0.875 1.7222 1.21079 1.38641 1.625 1.38641C2.03921 1.38641 2.375 1.7222 2.375 2.13641V5.63337L4.87749 3.07801C5.84094 2.03348 7.03729 1.26434 8.35858 0.849016ZM13.9659 11.0276C13.9659 10.6134 14.3017 10.2776 14.7159 10.2776H19.625C20.0392 10.2776 20.375 10.6134 20.375 11.0276V16.3624C20.375 16.7766 20.0392 17.1124 19.625 17.1124C19.2108 17.1124 18.875 16.7766 18.875 16.3624V12.8654L16.3725 15.4208C15.409 16.4653 14.2127 17.2344 12.8914 17.6498C11.5659 18.0664 10.1632 18.1116 8.81634 17.7804C7.46988 17.4493 6.2291 16.7545 5.20752 15.7678C4.18631 14.7815 3.41696 13.5354 2.96549 12.149C2.83724 11.7551 3.05256 11.3319 3.44641 11.2036C3.84027 11.0754 4.26353 11.2907 4.39178 11.6845C4.77022 12.8467 5.41137 13.8793 6.24961 14.6889C7.08748 15.4982 8.09452 16.0582 9.17449 16.3238C10.2541 16.5892 11.3773 16.5533 12.4416 16.2188C13.5064 15.8841 14.4828 15.2596 15.2766 14.3965C15.2819 14.3907 15.2873 14.385 15.2928 14.3795L17.8408 11.7776H14.7159C14.3017 11.7776 13.9659 11.4418 13.9659 11.0276Z" fill="currentColor" />
</symbol><symbol viewBox="0 0 20 20" fill="none" id="icon-search">
<path d="M19.7555 18.6065L16.3182 15.2458L16.2376 15.1233C16.0878 14.9742 15.883 14.8902 15.6692 14.8902C15.4554 14.8902 15.2505 14.9742 15.1007 15.1233C12.1795 17.8033 7.67815 17.949 4.58201 15.4637C1.48586 12.9784 0.755668 8.63337 2.87568 5.31017C4.9957 1.98697 9.30807 0.716847 12.9528 2.34214C16.5976 3.96743 18.4438 7.98379 17.267 11.7276C17.1823 11.9981 17.2515 12.2922 17.4487 12.4992C17.6459 12.7062 17.9411 12.7946 18.223 12.7311C18.505 12.6676 18.7309 12.4619 18.8156 12.1914C20.2224 7.74864 18.0977 2.96755 13.8161 0.941058C9.53449 -1.08544 4.38084 0.250824 1.68905 4.08542C-1.00273 7.92001 -0.424821 13.1021 3.04893 16.2795C6.52268 19.4569 11.8498 19.6759 15.5841 16.7949L18.6277 19.7705C18.942 20.0765 19.4502 20.0765 19.7645 19.7705C20.0785 19.4602 20.0785 18.9606 19.7645 18.6503L19.7555 18.6065Z" fill="currentColor" />
</symbol><symbol viewBox="0 0 10 18" fill="none" id="icon-small-arrow">
<path d="M1 17L9 9L0.999999 1" stroke="#316EE8" stroke-linecap="round" stroke-linejoin="round" />
</symbol><symbol viewBox="0 0 20 20" fill="none" id="icon-star">
<path d="M10 0L13.09 6.26L20 7.27L15 12.14L16.18 19.02L10 15.77L3.82 19.02L5 12.14L0 7.27L6.91 6.26L10 0Z" fill="currentColor" />
</symbol><symbol viewBox="0 0 32 32" fill="none" id="icon-success">
<path d="M20.6667 18H17.7467C17.2401 18.4459 16.5828 18.6821 15.9083 18.6606C15.2338 18.6392 14.5928 18.3616 14.1156 17.8844C13.6384 17.4072 13.3609 16.7662 13.3394 16.0917C13.3179 15.4173 13.5541 14.7599 14 14.2533V9.33333C14 8.8029 14.2107 8.29419 14.5858 7.91912C14.9609 7.54405 15.4696 7.33333 16 7.33333C16.5304 7.33333 17.0391 7.54405 17.4142 7.91912C17.7893 8.29419 18 8.8029 18 9.33333V14H20.6667C21.1971 14 21.7058 14.2107 22.0809 14.5858C22.456 14.9609 22.6667 15.4696 22.6667 16C22.6667 16.5304 22.456 17.0391 22.0809 17.4142C21.7058 17.7893 21.1971 18 20.6667 18ZM16 0C15.4696 0 14.9609 0.210714 14.5858 0.585786C14.2107 0.960859 14 1.46957 14 2C14 2.53043 14.2107 3.03914 14.5858 3.41421C14.9609 3.78929 15.4696 4 16 4C19.1815 4.00353 22.2317 5.26894 24.4814 7.51862C26.7311 9.76829 27.9965 12.8185 28 16C28 16.5304 28.2107 17.0391 28.5858 17.4142C28.9609 17.7893 29.4696 18 30 18C30.5304 18 31.0391 17.7893 31.4142 17.4142C31.7893 17.0391 32 16.5304 32 16C31.9954 11.7579 30.3082 7.69095 27.3086 4.69136C24.3091 1.69177 20.2421 0.00458811 16 0V0ZM4 16.6667C4 16.2711 3.8827 15.8844 3.66294 15.5555C3.44318 15.2266 3.13082 14.9703 2.76537 14.8189C2.39992 14.6675 1.99778 14.6279 1.60982 14.7051C1.22186 14.7823 0.865492 14.9727 0.585787 15.2525C0.306082 15.5322 0.115601 15.8885 0.0384303 16.2765C-0.0387401 16.6644 0.000866572 17.0666 0.152242 17.432C0.303617 17.7975 0.559962 18.1098 0.88886 18.3296C1.21776 18.5494 1.60444 18.6667 2 18.6667C2.53043 18.6667 3.03914 18.456 3.41421 18.0809C3.78929 17.7058 4 17.1971 4 16.6667ZM8.98667 2.52533C8.5911 2.52533 8.20443 2.64263 7.87553 2.86239C7.54663 3.08216 7.29028 3.39451 7.13891 3.75997C6.98753 4.12542 6.94793 4.52755 7.0251 4.91551C7.10227 5.30348 7.29275 5.65984 7.57245 5.93955C7.85216 6.21925 8.20852 6.40973 8.59649 6.4869C8.98445 6.56407 9.38658 6.52447 9.75203 6.37309C10.1175 6.22172 10.4298 5.96537 10.6496 5.63647C10.8694 5.30758 10.9867 4.9209 10.9867 4.52533C10.9867 3.9949 10.776 3.48619 10.4009 3.11112C10.0258 2.73605 9.5171 2.52533 8.98667 2.52533ZM3.884 7.66667C3.48844 7.66667 3.10176 7.78397 2.77286 8.00373C2.44396 8.22349 2.18762 8.53585 2.03624 8.9013C1.88487 9.26675 1.84526 9.66889 1.92243 10.0568C1.9996 10.4448 2.19008 10.8012 2.46979 11.0809C2.74949 11.3606 3.10586 11.5511 3.49382 11.6282C3.88178 11.7054 4.28392 11.6658 4.64937 11.5144C5.01482 11.3631 5.32718 11.1067 5.54694 10.7778C5.7667 10.4489 5.884 10.0622 5.884 9.66667C5.884 9.40402 5.83227 9.14395 5.73176 8.9013C5.63125 8.65865 5.48393 8.43817 5.29821 8.25245C5.1125 8.06674 4.89202 7.91942 4.64937 7.81891C4.40672 7.7184 4.14665 7.66667 3.884 7.66667ZM8.98667 26.808C8.5911 26.808 8.20443 26.9253 7.87553 27.1451C7.54663 27.3648 7.29028 27.6772 7.13891 28.0426C6.98753 28.4081 6.94793 28.8102 7.0251 29.1982C7.10227 29.5861 7.29275 29.9425 7.57245 30.2222C7.85216 30.5019 8.20852 30.6924 8.59649 30.7696C8.98445 30.8467 9.38658 30.8071 9.75203 30.6558C10.1175 30.5044 10.4298 30.248 10.6496 29.9191C10.8694 29.5902 10.9867 29.2036 10.9867 28.808C10.9867 28.2776 10.776 27.7689 10.4009 27.3938C10.0258 27.0187 9.5171 26.808 8.98667 26.808ZM3.884 21.6667C3.48844 21.6667 3.10176 21.784 2.77286 22.0037C2.44396 22.2235 2.18762 22.5358 2.03624 22.9013C1.88487 23.2668 1.84526 23.6689 1.92243 24.0568C1.9996 24.4448 2.19008 24.8012 2.46979 25.0809C2.74949 25.3606 3.10586 25.5511 3.49382 25.6282C3.88178 25.7054 4.28392 25.6658 4.64937 25.5144C5.01482 25.3631 5.32718 25.1067 5.54694 24.7778C5.7667 24.4489 5.884 24.0622 5.884 23.6667C5.884 23.404 5.83227 23.144 5.73176 22.9013C5.63125 22.6587 5.48393 22.4382 5.29821 22.2525C5.1125 22.0667 4.89202 21.9194 4.64937 21.8189C4.40672 21.7184 4.14665 21.6667 3.884 21.6667ZM16 28C15.6044 28 15.2178 28.1173 14.8889 28.3371C14.56 28.5568 14.3036 28.8692 14.1522 29.2346C14.0009 29.6001 13.9613 30.0022 14.0384 30.3902C14.1156 30.7781 14.3061 31.1345 14.5858 31.4142C14.8655 31.6939 15.2219 31.8844 15.6098 31.9616C15.9978 32.0387 16.3999 31.9991 16.7654 31.8478C17.1308 31.6964 17.4432 31.44 17.6629 31.1111C17.8827 30.7822 18 30.3956 18 30C18 29.4696 17.7893 28.9609 17.4142 28.5858C17.0391 28.2107 16.5304 28 16 28ZM28.1413 21.0133C27.7458 21.0133 27.3591 21.1306 27.0302 21.3504C26.7013 21.5702 26.445 21.8825 26.2936 22.248C26.1422 22.6134 26.1026 23.0156 26.1798 23.4035C26.2569 23.7915 26.4474 24.1478 26.7271 24.4275C27.0068 24.7073 27.3632 24.8977 27.7512 24.9749C28.1391 25.0521 28.5412 25.0125 28.9067 24.8611C29.2722 24.7097 29.5845 24.4534 29.8043 24.1245C30.024 23.7956 30.1413 23.4089 30.1413 23.0133C30.1413 22.4829 29.9306 21.9742 29.5555 21.5991C29.1805 21.224 28.6718 21.0133 28.1413 21.0133ZM23 26.116C22.6044 26.116 22.2178 26.2333 21.8889 26.4531C21.56 26.6728 21.3036 26.9852 21.1522 27.3506C21.0009 27.7161 20.9613 28.1182 21.0384 28.5062C21.1156 28.8941 21.3061 29.2505 21.5858 29.5302C21.8655 29.8099 22.2219 30.0004 22.6098 30.0776C22.9978 30.1547 23.3999 30.1151 23.7654 29.9638C24.1308 29.8124 24.4432 29.556 24.6629 29.2271C24.8827 28.8982 25 28.5116 25 28.116C25 27.5856 24.7893 27.0769 24.4142 26.7018C24.0391 26.3267 23.5304 26.116 23 26.116Z" fill="#316EE8" />
</symbol><symbol viewBox="0 0 16 16" fill="none" id="icon-tel">
<path d="M14.9996 11.4819V13.5894C15.0028 14.3951 14.2784 15.0679 13.465 14.9945C6.44446 15 1 9.50499 1.00549 2.53159C0.932236 1.72251 1.60167 1.00082 2.40631 1.00007H4.51809C4.85971 0.996713 5.1909 1.11745 5.44992 1.33977C6.18634 1.97183 6.66001 4.11716 6.47776 4.96999C6.33547 5.63584 5.66427 6.10167 5.20794 6.5571C6.21002 8.31592 7.66919 9.7722 9.4315 10.7723C9.88783 10.3169 10.3546 9.647 11.0218 9.50499C11.8776 9.32283 14.0367 9.79717 14.6663 10.5387C14.8895 10.8016 15.0081 11.1373 14.9996 11.4819Z" stroke="currentColor" stroke-width="1.5" stroke-linecap="round" stroke-linejoin="round" />
</symbol><symbol viewBox="0 0 19 26" fill="none" id="icon-user">
<path fill-rule="evenodd" clip-rule="evenodd" d="M3.69947 18.0164C2.25113 18.967 1.5 20.1484 1.5 21.2333C1.5 21.761 1.67329 22.1622 1.98543 22.4957C2.31409 22.8468 2.82729 23.1533 3.54195 23.3999C4.9804 23.8962 7.01485 24.0774 9.30568 24.0774C11.6077 24.0774 13.6413 23.8897 15.0757 23.3876C15.7882 23.1383 16.2995 22.8292 16.627 22.476C16.9385 22.1401 17.1114 21.7365 17.1114 21.2076C17.1114 20.1256 16.3574 18.9505 14.9049 18.0051C13.473 17.073 11.4782 16.4524 9.30568 16.4524C7.12161 16.4524 5.12773 17.0789 3.69947 18.0164ZM2.87639 16.7623C4.56602 15.6533 6.84998 14.9524 9.30568 14.9524C11.7479 14.9524 14.031 15.6464 15.7232 16.7479C17.3949 17.836 18.6114 19.4136 18.6114 21.2076C18.6114 22.1161 18.2947 22.8836 17.727 23.4959C17.1753 24.0909 16.4176 24.5072 15.5712 24.8034C13.8877 25.3926 11.6435 25.5774 9.30568 25.5774C6.98174 25.5774 4.73834 25.3995 3.05265 24.8178C2.20523 24.5254 1.44479 24.1131 0.890311 23.5207C0.319324 22.9107 0 22.1436 0 21.2333C0 19.4422 1.20683 17.8582 2.87639 16.7623Z" fill="#316EE8" />
<path fill-rule="evenodd" clip-rule="evenodd" d="M3.06253 6.23282C3.06322 2.79078 5.85442 0 9.29662 0C12.7394 0 15.5296 2.79167 15.5296 6.23409C15.5296 9.67671 12.7392 12.467 9.29662 12.467H9.25831L9.25545 12.467C5.82339 12.4554 3.05159 9.66455 3.06253 6.23282ZM9.29662 1.5C6.68243 1.5 4.56253 3.6199 4.56253 6.23409V6.23663C4.55371 8.84024 6.65592 10.9575 9.25918 10.967H9.29648C11.9107 10.967 14.0296 8.84829 14.0296 6.23409C14.0296 3.61969 11.9106 1.5 9.29662 1.5Z" fill="#316EE8" />
</symbol><symbol viewBox="0 0 17 20" fill="none" id="icon-video-play">
<path fill-rule="evenodd" clip-rule="evenodd" d="M2.84954 0.799511L15.9615 7.80381C16.5219 8.11481 16.8752 8.69982 16.8896 9.34056C16.9039 9.98131 16.5772 10.5816 16.0313 10.9174L2.93106 18.7786C2.37791 19.1023 1.69454 19.1082 1.13589 18.7941C0.577248 18.4799 0.227246 17.8929 0.216472 17.2521L0.204745 2.38661C0.207749 1.75612 0.539743 1.17296 1.08037 0.848537C1.62099 0.524118 2.29178 0.505529 2.84954 0.799511Z" fill="white" />
</symbol><symbol viewBox="0 0 30 30" fill="none" id="icon-vk">
<circle cx="14.6752" cy="14.6752" r="14.1752" stroke="currentColor" />
<path d="M19.0147 14.9917C19.3029 15.1351 19.5819 15.3008 19.8498 15.4858C20.3333 15.82 20.7715 16.2059 21.1685 16.639C21.6976 17.2164 22.1318 17.8586 22.4732 18.5639C22.689 19.0099 22.8598 19.4728 22.9951 19.9492C23.0055 19.9858 23.002 19.9996 22.9583 19.9996C22.0451 19.9985 21.1317 19.9984 20.2185 20C20.17 20.0001 20.1615 19.9748 20.1501 19.9395C19.9498 19.3252 19.6628 18.7554 19.2701 18.2415C18.6739 17.4617 17.9234 16.8958 16.9809 16.5989C16.7166 16.5157 16.446 16.4628 16.1714 16.4288C16.1389 16.4248 16.129 16.435 16.1318 16.4655C16.1332 16.481 16.1321 16.4967 16.1321 16.5124C16.1321 17.6495 16.1321 18.7867 16.1321 19.9238C16.1321 19.9987 16.1321 19.9985 16.0562 19.9987C15.6913 20.0004 15.3266 19.9941 14.9627 19.9652C13.583 19.8551 12.2818 19.4907 11.0973 18.7554C10.5395 18.4091 10.0369 17.9943 9.58861 17.5137C8.71787 16.5805 8.11727 15.4889 7.70391 14.2881C7.48108 13.6407 7.3203 12.9776 7.20882 12.3021C7.13329 11.8438 7.07931 11.3834 7.04477 10.9203C7.02369 10.6379 7.01432 10.355 7.00039 10.0722C6.99769 10.0178 7.00788 9.99988 7.06749 10C7.93788 10.0022 8.80827 10.0019 9.67854 10.0006C9.72398 10.0005 9.74072 10.0072 9.74166 10.0592C9.74892 10.4653 9.7755 10.8703 9.82023 11.2742C9.9008 12.0022 10.0438 12.7165 10.2777 13.4114C10.4813 14.0159 10.7493 14.5891 11.1104 15.1163C11.5308 15.73 12.0451 16.2445 12.7003 16.6075C12.9358 16.7379 13.1829 16.8409 13.4433 16.9118C13.4949 16.9259 13.5063 16.916 13.506 16.8644C13.5045 16.4444 13.5052 16.0243 13.5052 15.6042C13.5052 13.7637 13.5052 11.9232 13.5053 10.0827C13.5053 9.98687 13.4961 10.002 13.5858 10.0019C14.4113 10.0014 15.2367 10.0022 16.0623 10.0004C16.1177 10.0002 16.1334 10.0122 16.1332 10.07C16.1314 11.3419 16.1318 12.614 16.1318 13.8859C16.1318 13.9599 16.1316 13.9577 16.2065 13.9464C16.7683 13.8604 17.2531 13.6046 17.6959 13.2619C18.3766 12.7353 18.893 12.0713 19.2986 11.3168C19.5168 10.9111 19.69 10.4869 19.8135 10.0428C19.8221 10.0121 19.8348 10.0007 19.8689 10.0008C20.7022 10.002 21.5355 10.0018 22.3688 10.0019C22.3802 10.0019 22.3917 10.004 22.4166 10.0064C21.9802 12.149 20.8042 13.7764 19.0147 14.9917Z" fill="currentColor" />
</symbol><symbol viewBox="0 0 30 30" fill="none" id="icon-vk-color">
<circle cx="14.6752" cy="14.6752" r="14.6752" fill="#316EE8" />
<path d="M19.0147 14.9917C19.3029 15.1351 19.5819 15.3008 19.8498 15.4858C20.3333 15.82 20.7715 16.2059 21.1685 16.639C21.6976 17.2164 22.1318 17.8586 22.4732 18.5639C22.689 19.0099 22.8598 19.4728 22.9951 19.9492C23.0055 19.9858 23.002 19.9996 22.9583 19.9996C22.0451 19.9985 21.1317 19.9984 20.2185 20C20.17 20.0001 20.1615 19.9748 20.1501 19.9395C19.9498 19.3252 19.6628 18.7554 19.2701 18.2415C18.6739 17.4617 17.9234 16.8958 16.9809 16.5989C16.7166 16.5157 16.446 16.4628 16.1714 16.4288C16.1389 16.4248 16.129 16.435 16.1318 16.4655C16.1332 16.481 16.1321 16.4967 16.1321 16.5124C16.1321 17.6495 16.1321 18.7867 16.1321 19.9238C16.1321 19.9987 16.1321 19.9985 16.0562 19.9987C15.6913 20.0004 15.3266 19.9941 14.9627 19.9652C13.583 19.8551 12.2818 19.4907 11.0973 18.7554C10.5395 18.4091 10.0369 17.9943 9.58861 17.5137C8.71787 16.5805 8.11727 15.4889 7.70391 14.2881C7.48108 13.6407 7.3203 12.9776 7.20882 12.3021C7.13329 11.8438 7.07931 11.3834 7.04477 10.9203C7.02369 10.6379 7.01432 10.355 7.00039 10.0722C6.99769 10.0178 7.00788 9.99988 7.06749 10C7.93788 10.0022 8.80827 10.0019 9.67854 10.0006C9.72398 10.0005 9.74072 10.0072 9.74166 10.0592C9.74892 10.4653 9.7755 10.8703 9.82023 11.2742C9.9008 12.0022 10.0438 12.7165 10.2777 13.4114C10.4813 14.0159 10.7493 14.5891 11.1104 15.1163C11.5308 15.73 12.0451 16.2445 12.7003 16.6075C12.9358 16.7379 13.1829 16.8409 13.4433 16.9118C13.4949 16.9259 13.5063 16.916 13.506 16.8644C13.5045 16.4444 13.5052 16.0243 13.5052 15.6042C13.5052 13.7637 13.5052 11.9232 13.5053 10.0827C13.5053 9.98687 13.4961 10.002 13.5858 10.0019C14.4113 10.0014 15.2367 10.0022 16.0623 10.0004C16.1177 10.0002 16.1334 10.0122 16.1332 10.07C16.1314 11.3419 16.1318 12.614 16.1318 13.8859C16.1318 13.9599 16.1316 13.9577 16.2065 13.9464C16.7683 13.8604 17.2531 13.6046 17.6959 13.2619C18.3766 12.7353 18.893 12.0713 19.2986 11.3168C19.5168 10.9111 19.69 10.4869 19.8135 10.0428C19.8221 10.0121 19.8348 10.0007 19.8689 10.0008C20.7022 10.002 21.5355 10.0018 22.3688 10.0019C22.3802 10.0019 22.3917 10.004 22.4166 10.0064C21.9802 12.149 20.8042 13.7764 19.0147 14.9917Z" fill="#FEFEFF" />
</symbol><symbol viewBox="0 0 30 30" fill="none" id="icon-yt">
<path d="M29.0125 14.6752C29.0125 22.504 22.6661 28.8504 14.8373 28.8504C7.00857 28.8504 0.662109 22.504 0.662109 14.6752C0.662109 6.84646 7.00857 0.5 14.8373 0.5C22.6661 0.5 29.0125 6.84646 29.0125 14.6752Z" stroke="currentColor" />
<path d="M15.0787 9.64699C14.1287 9.64699 13.4376 9.63073 12.747 9.65055C11.5275 9.68511 10.3068 9.71611 9.09206 9.84418C8.24889 9.93312 7.59712 10.4662 7.37702 11.2535C7.22763 11.7891 7.16437 12.338 7.12344 12.8889C7.04794 13.9094 7.06123 14.9319 7.08516 15.9529C7.1043 16.7447 7.17181 17.5355 7.36054 18.3121C7.55724 19.1222 8.27388 19.6939 9.13778 19.7732C10.1489 19.8662 11.1612 19.914 12.175 19.9546C13.848 20.0222 15.5216 20.0019 17.1941 19.9729C18.3132 19.9536 19.4333 19.8931 20.5487 19.7732C21.4338 19.6782 22.0973 19.1664 22.3121 18.3492C22.4514 17.8186 22.5168 17.2774 22.5556 16.7315C22.6311 15.6724 22.6008 14.6123 22.5885 13.5531C22.58 12.8249 22.5072 12.0971 22.3371 11.3826C22.1228 10.481 21.4663 9.92956 20.5067 9.8391C19.529 9.74711 18.5482 9.71459 17.5668 9.67342C16.6508 9.63429 15.7353 9.66935 15.0787 9.64699ZM12.8688 14.9594C12.8688 14.2362 12.8682 13.513 12.8688 12.7893C12.8688 12.557 12.8725 12.555 13.0952 12.6653C13.3722 12.8025 13.6476 12.9428 13.9246 13.0795C15.109 13.666 16.2935 14.2514 17.4774 14.8389C17.5333 14.8664 17.6162 14.8786 17.6162 14.9573C17.6162 15.0158 17.5503 15.0315 17.5046 15.0539C16.0208 15.7913 14.5359 16.5267 13.0538 17.2662C12.8921 17.347 12.8656 17.2967 12.8666 17.1473C12.8709 16.419 12.8688 15.6892 12.8688 14.9594Z" fill="currentColor" />
</symbol><symbol viewBox="0 0 30 30" fill="none" id="icon-yt-color">
<circle cx="14.6752" cy="14.6752" r="14.6752" fill="#EA0C00" />
<path d="M15.0123 10.0064C14.0623 10.0064 13.3712 9.9901 12.6806 10.0099C11.461 10.0445 10.2404 10.0755 9.02565 10.2036C8.18249 10.2925 7.53071 10.8256 7.31062 11.6128C7.16123 12.1485 7.09796 12.6974 7.05703 13.2483C6.98154 14.2688 6.99483 15.2913 7.01875 16.3123C7.03789 17.1041 7.10541 17.8949 7.29414 18.6715C7.49084 19.4816 8.20747 20.0533 9.07137 20.1326C10.0825 20.2256 11.0948 20.2734 12.1086 20.314C13.7816 20.3816 15.4552 20.3613 17.1277 20.3323C18.2468 20.313 19.3669 20.2525 20.4823 20.1326C21.3674 20.0375 22.0309 19.5258 22.2457 18.7086C22.385 18.178 22.4504 17.6367 22.4892 17.0909C22.5647 16.0318 22.5344 14.9716 22.5221 13.9125C22.5136 13.1842 22.4408 12.4565 22.2707 11.7419C22.0564 10.8404 21.3999 10.2889 20.4403 10.1985C19.4626 10.1065 18.4817 10.074 17.5004 10.0328C16.5844 9.99366 15.6689 10.0287 15.0123 10.0064ZM12.8023 15.3188C12.8023 14.5956 12.8018 13.8724 12.8023 13.1487C12.8023 12.9164 12.8061 12.9144 13.0288 13.0247C13.3058 13.1619 13.5812 13.3022 13.8582 13.4389C15.0426 14.0253 16.2271 14.6108 17.411 15.1983C17.4669 15.2257 17.5498 15.2379 17.5498 15.3167C17.5498 15.3752 17.4839 15.3909 17.4382 15.4133C15.9544 16.1507 14.4695 16.8861 12.9874 17.6255C12.8257 17.7064 12.7992 17.656 12.8002 17.5066C12.8045 16.7784 12.8023 16.0486 12.8023 15.3188Z" fill="white" />
</symbol><symbol viewBox="0 0 28 28" fill="none" id="icon-zoom">
<path d="M27 27L20.7167 20.7167M12.5556 8.22222V16.8889M8.22222 12.5556H16.8889M24.1111 12.5556C24.1111 18.9375 18.9375 24.1111 12.5556 24.1111C6.1736 24.1111 1 18.9375 1 12.5556C1 6.1736 6.1736 1 12.5556 1C18.9375 1 24.1111 6.1736 24.1111 12.5556Z" stroke="currentColor" stroke-width="2" stroke-linecap="round" stroke-linejoin="round" />
</symbol><symbol viewBox="0 0 50 39" fill="none" id="item-catalog-1">
<path fill-rule="evenodd" clip-rule="evenodd" d="M34.8184 0.114348C35.2859 -0.0735102 35.8148 -0.0280126 36.2433 0.23692L49.2483 8.27734C49.7156 8.56624 50 9.07647 50 9.62585V22.7274C50 23.3786 49.6018 23.9635 48.996 24.2023L12.9358 38.4164C12.402 38.6268 11.7963 38.5324 11.3518 38.1696L0.753084 29.5179C0.389706 29.2213 0.176332 28.779 0.170347 28.31L0.000101946 14.9689C-0.00243708 14.7699 0.0424839 14.5732 0.131141 14.3951C0.267813 14.1204 0.500544 13.9055 0.78517 13.7912L34.8184 0.114348ZM35.602 1.27424C35.5031 1.2131 35.381 1.2026 35.2732 1.24595L1.23992 14.9228C1.23254 14.9257 1.22651 14.9313 1.22296 14.9384C1.22066 14.9431 1.2195 14.9482 1.21956 14.9533L1.38981 28.2944C1.39119 28.4026 1.44043 28.5047 1.52428 28.5732L12.123 37.2248C12.2256 37.3085 12.3654 37.3303 12.4886 37.2818L48.5487 23.0677C48.6886 23.0126 48.7804 22.8776 48.7804 22.7274V9.62585C48.7804 9.49907 48.7148 9.38133 48.607 9.31466L35.602 1.27424Z" fill="currentColor" />
<path fill-rule="evenodd" clip-rule="evenodd" d="M32.8861 15.881C33.0062 16.1956 32.8485 16.5481 32.5339 16.6682L13.3306 24.0012C13.1905 24.0547 13.0972 24.1884 13.0953 24.3383L12.9253 37.5788C12.921 37.9155 12.6445 38.185 12.3078 38.1807C11.971 38.1763 11.7016 37.8998 11.7059 37.5631L11.8759 24.3227C11.8842 23.6728 12.2884 23.0938 12.8956 22.8619L32.0989 15.5289C32.4135 15.4088 32.7659 15.5664 32.8861 15.881Z" fill="currentColor" />
<path fill-rule="evenodd" clip-rule="evenodd" d="M42.8864 12.0622C43.0066 12.3768 42.8489 12.7293 42.5343 12.8494L35.9487 15.3642C35.6341 15.4844 35.2816 15.3267 35.1615 15.0121C35.0414 14.6975 35.199 14.345 35.5136 14.2249L42.0992 11.7101C42.4139 11.59 42.7663 11.7476 42.8864 12.0622ZM12.5019 23.0582C12.8387 23.0625 13.1081 23.339 13.1038 23.6758L12.9253 37.5788C12.921 37.9155 12.6445 38.185 12.3078 38.1807C11.971 38.1763 11.7016 37.8998 11.7059 37.5631L11.8844 23.6601C11.8887 23.3234 12.1652 23.0539 12.5019 23.0582Z" fill="currentColor" />
<path fill-rule="evenodd" clip-rule="evenodd" d="M49.4721 9.54742C49.5922 9.86203 49.4345 10.2145 49.1199 10.3346L45.8271 11.592C45.5125 11.7121 45.1601 11.5545 45.0399 11.2399C44.9198 10.9253 45.0774 10.5728 45.3921 10.4527L48.6849 9.19529C48.9995 9.07515 49.3519 9.2328 49.4721 9.54742ZM12.5019 23.0582C12.8387 23.0625 13.1081 23.339 13.1038 23.6758L12.9253 37.5788C12.921 37.9155 12.6445 38.185 12.3078 38.1807C11.971 38.1763 11.7016 37.8998 11.7059 37.5631L11.8844 23.6601C11.8887 23.3234 12.1652 23.0539 12.5019 23.0582Z" fill="currentColor" />
<path fill-rule="evenodd" clip-rule="evenodd" d="M0.614353 14.2688C0.821118 14.003 1.20423 13.9551 1.47006 14.1619L12.9339 23.0787C13.1997 23.2855 13.2476 23.6686 13.0409 23.9344C12.8341 24.2002 12.451 24.2481 12.1851 24.0413L0.721292 15.1245C0.455466 14.9177 0.407588 14.5346 0.614353 14.2688Z" fill="currentColor" />
<path fill-rule="evenodd" clip-rule="evenodd" d="M12.2534 26.0526C12.4308 25.8498 12.739 25.8293 12.9417 26.0067L21.7835 33.7433C21.9863 33.9207 22.0069 34.2289 21.8294 34.4316C21.652 34.6344 21.3438 34.6549 21.1411 34.4775L12.2993 26.7409C12.0965 26.5635 12.076 26.2553 12.2534 26.0526Z" fill="currentColor" />
<path fill-rule="evenodd" clip-rule="evenodd" d="M11.9597 29.1882C12.144 28.9916 12.4527 28.9817 12.6493 29.1659L13.6188 30.0749L18.495 34.3415L19.2309 35.0161C19.4295 35.1981 19.4429 35.5067 19.2608 35.7053C19.0788 35.9039 18.7702 35.9173 18.5716 35.7353L17.844 35.0683L12.9637 30.7981L11.982 29.8777C11.7854 29.6934 11.7755 29.3847 11.9597 29.1882Z" fill="currentColor" />
<path fill-rule="evenodd" clip-rule="evenodd" d="M11.9714 32.609C12.1438 32.4021 12.4514 32.3741 12.6584 32.5466L16.7744 35.9766C16.9814 36.1491 17.0094 36.4567 16.8369 36.6636C16.6644 36.8706 16.3568 36.8986 16.1498 36.7261L12.0338 33.2961C11.8268 33.1236 11.7989 32.816 11.9714 32.609Z" fill="currentColor" />
<path fill-rule="evenodd" clip-rule="evenodd" d="M9.39146 15.7371C9.59556 15.4692 9.97817 15.4175 10.2461 15.6216L15.3682 19.5242C15.6361 19.7283 15.6878 20.1109 15.4837 20.3788C15.2796 20.6467 14.897 20.6984 14.6291 20.4943L9.50695 16.5917C9.23907 16.3876 9.18736 16.005 9.39146 15.7371Z" fill="currentColor" />
<path fill-rule="evenodd" clip-rule="evenodd" d="M18.1723 12.3223C18.3764 12.0545 18.759 12.0028 19.0269 12.2069L24.149 16.1094C24.4169 16.3135 24.4686 16.6962 24.2645 16.964C24.0604 17.2319 23.6778 17.2836 23.4099 17.0795L18.2878 13.1769C18.0199 12.9728 17.9682 12.5902 18.1723 12.3223Z" fill="currentColor" />
<path fill-rule="evenodd" clip-rule="evenodd" d="M27.9288 8.90757C28.1329 8.63969 28.5155 8.58799 28.7834 8.79209L33.9055 12.6947C34.1734 12.8988 34.2251 13.2814 34.021 13.5493C33.8169 13.8171 33.4343 13.8689 33.1664 13.6648L28.0442 9.76216C27.7764 9.55806 27.7247 9.17545 27.9288 8.90757Z" fill="currentColor" />
<path fill-rule="evenodd" clip-rule="evenodd" d="M37.6852 5.49281C37.8893 5.22493 38.2719 5.17322 38.5398 5.37732L43.662 9.27991C43.9299 9.48401 43.9816 9.86662 43.7775 10.1345C43.5734 10.4024 43.1908 10.4541 42.9229 10.25L37.8007 6.3474C37.5328 6.1433 37.4811 5.76069 37.6852 5.49281Z" fill="currentColor" />
<path fill-rule="evenodd" clip-rule="evenodd" d="M15.2453 9.88322C15.4494 9.61534 15.8321 9.56364 16.0999 9.76773L17.3805 10.7434C17.6484 10.9475 17.7001 11.3301 17.496 11.598C17.2919 11.8659 16.9092 11.9176 16.6414 11.7135L15.3608 10.7378C15.093 10.5337 15.0412 10.1511 15.2453 9.88322Z" fill="currentColor" />
<path fill-rule="evenodd" clip-rule="evenodd" d="M25.0018 6.46845C25.2059 6.20057 25.5885 6.14887 25.8564 6.35297L27.1369 7.32862C27.4048 7.53271 27.4565 7.91533 27.2524 8.18321C27.0483 8.45109 26.6657 8.50279 26.3978 8.29869L25.1173 7.32304C24.8494 7.11895 24.7977 6.73633 25.0018 6.46845Z" fill="currentColor" />
<path fill-rule="evenodd" clip-rule="evenodd" d="M6.46452 13.298C6.66862 13.0301 7.05123 12.9784 7.31911 13.1825L8.59965 14.1581C8.86753 14.3622 8.91923 14.7449 8.71513 15.0127C8.51103 15.2806 8.12842 15.3323 7.86054 15.1282L6.58001 14.1526C6.31213 13.9485 6.26042 13.5659 6.46452 13.298Z" fill="currentColor" />
<path fill-rule="evenodd" clip-rule="evenodd" d="M34.7583 3.05369C34.9624 2.78581 35.345 2.7341 35.6129 2.9382L36.8934 3.91385C37.1613 4.11795 37.213 4.50056 37.0089 4.76844C36.8048 5.03632 36.4222 5.08802 36.1543 4.88393L34.8738 3.90828C34.6059 3.70418 34.5542 3.32157 34.7583 3.05369Z" fill="currentColor" />
<path fill-rule="evenodd" clip-rule="evenodd" d="M10.8549 11.8345C11.059 11.5666 11.4416 11.5149 11.7095 11.719L16.8317 15.6216C17.0996 15.8257 17.1513 16.2083 16.9472 16.4762C16.7431 16.7441 16.3604 16.7958 16.0926 16.5917L10.9704 12.6891C10.7025 12.485 10.6508 12.1024 10.8549 11.8345Z" fill="currentColor" />
<path fill-rule="evenodd" clip-rule="evenodd" d="M17.6845 17.2006C17.8886 16.9327 18.2712 16.881 18.5391 17.0851L19.8196 18.0607C20.0875 18.2648 20.1392 18.6474 19.9351 18.9153C19.731 19.1832 19.3484 19.2349 19.0805 19.0308L17.8 18.0552C17.5321 17.8511 17.4804 17.4685 17.6845 17.2006Z" fill="currentColor" />
<path fill-rule="evenodd" clip-rule="evenodd" d="M20.1236 7.93192C20.3277 7.66404 20.7103 7.61234 20.9782 7.81644L26.1003 11.719C26.3682 11.9231 26.4199 12.3057 26.2158 12.5736C26.0117 12.8415 25.6291 12.8932 25.3612 12.6891L20.2391 8.78652C19.9712 8.58242 19.9195 8.1998 20.1236 7.93192Z" fill="currentColor" />
<path fill-rule="evenodd" clip-rule="evenodd" d="M26.9531 13.298C27.1572 13.0301 27.5398 12.9784 27.8077 13.1825L29.0882 14.1581C29.3561 14.3622 29.4078 14.7449 29.2037 15.0127C28.9996 15.2806 28.617 15.3323 28.3491 15.1282L27.0686 14.1526C26.8007 13.9485 26.749 13.5659 26.9531 13.298Z" fill="currentColor" />
<path fill-rule="evenodd" clip-rule="evenodd" d="M29.8801 4.51716C30.0842 4.24928 30.4668 4.19757 30.7346 4.40167L35.8568 8.30426C36.1247 8.50836 36.1764 8.89098 35.9723 9.15885C35.7682 9.42673 35.3856 9.47844 35.1177 9.27434L29.9955 5.37175C29.7277 5.16765 29.676 4.78504 29.8801 4.51716Z" fill="currentColor" />
<path fill-rule="evenodd" clip-rule="evenodd" d="M36.7096 9.88322C36.9137 9.61534 37.2963 9.56364 37.5642 9.76773L38.8447 10.7434C39.1126 10.9475 39.1643 11.3301 38.9602 11.598C38.7561 11.8659 38.3735 11.9176 38.1056 11.7135L36.8251 10.7378C36.5572 10.5337 36.5055 10.1511 36.7096 9.88322Z" fill="currentColor" />
</symbol><symbol viewBox="0 0 50 41" fill="none" id="item-catalog-2">
<path fill-rule="evenodd" clip-rule="evenodd" d="M2.97809 18.2107L3.33646 35.2517L4.80036 35.7385L4.26451 18.5583L2.97809 18.2107ZM5.26008 18.7811L5.78742 35.6886L6.7121 35.2889L6.34881 18.9951L5.26008 18.7811ZM4.85982 17.701L3.10975 17.2282C2.53674 17.0734 1.97499 17.5097 1.9874 18.0999L2.34999 35.3414C2.35784 35.7148 2.60081 36.043 2.95705 36.1615L5.33929 36.9536L7.16696 36.1635C7.49824 36.0203 7.70948 35.6921 7.70148 35.3331L7.33495 18.8944C7.3257 18.4796 7.02763 18.127 6.61826 18.0465L4.85982 17.701Z" fill="currentColor" />
<path fill-rule="evenodd" clip-rule="evenodd" d="M10.4257 37.0933L7.26367 36.1109L7.55841 35.1731L10.7205 36.1556L10.4257 37.0933Z" fill="currentColor" />
<path fill-rule="evenodd" clip-rule="evenodd" d="M17.2082 22.9131L17.5807 39.2066L19.1469 39.6857L18.5899 23.2566L17.2082 22.9131ZM19.5856 23.4621L20.1319 39.5761L21.1387 39.0755L20.7609 23.6746L19.5856 23.4621ZM19.1753 22.3894L17.3222 21.9287C16.7528 21.7872 16.2041 22.2232 16.2174 22.8067L16.5944 39.2997C16.6031 39.6804 16.8559 40.0128 17.222 40.1247L19.7079 40.8853L21.6368 39.9264C21.945 39.7731 22.1365 39.4565 22.1281 39.1139L21.7468 23.5707C21.7365 23.1516 21.4317 22.7973 21.0168 22.7223L19.1753 22.3894Z" fill="currentColor" />
<path fill-rule="evenodd" clip-rule="evenodd" d="M10.8843 26.0554L11.1362 36.9573L11.9204 37.1946L11.5442 26.2177L10.8843 26.0554ZM12.5399 26.4211L12.9067 37.1243L13.4272 36.8978L13.0578 26.5137L12.5399 26.4211ZM12.1284 25.3492L10.996 25.0708C10.4271 24.9309 9.87994 25.3669 9.8934 25.9495L10.1499 37.0509C10.1587 37.4325 10.4128 37.7654 10.78 37.8765L12.4685 38.3875L13.8849 37.771C14.219 37.6256 14.4299 37.2921 14.4171 36.9298L14.0426 26.3998C14.0278 25.9838 13.7232 25.6345 13.3112 25.5608L12.1284 25.3492Z" fill="currentColor" />
<path fill-rule="evenodd" clip-rule="evenodd" d="M28.3813 0.115535C28.569 0.00941856 28.7892 -0.0251508 29.0007 0.0182761L47.0336 3.72112L47.0367 3.72173L49.1312 4.13823C49.885 4.28812 50.1054 5.25407 49.4904 5.71266L47.0356 7.54323C46.8173 7.70601 46.5076 7.66202 46.3439 7.44498C46.1801 7.22794 46.2244 6.92003 46.4427 6.75725L48.7207 5.05853L46.8399 4.68451L46.8368 4.6839L28.8373 0.987932L1.1602 16.6319L4.73663 17.669L6.86288 17.8612C7.59237 17.9272 8.74523 18.0457 9.83673 18.1876C10.9075 18.3267 11.9796 18.4953 12.508 18.6704C13.4478 18.9819 15.3647 20.0099 16.3478 20.5611C16.6285 20.7184 16.7984 21.0131 16.7984 21.3294V21.7064L19.3768 22.3901L21.369 22.7502L21.8658 22.5032C22.0768 22.3984 22.321 22.3811 22.5447 22.4553L24.761 23.1898C25.0198 23.2756 25.1597 23.5538 25.0734 23.8111C24.9872 24.0685 24.7073 24.2076 24.4485 24.1218L22.2711 23.4002L21.7815 23.6436C21.6094 23.7292 21.414 23.7569 21.2247 23.7227L19.1607 23.3496L16.4704 22.6363C16.0811 22.5331 15.8103 22.1825 15.8103 21.7819V21.3877C14.7925 20.8188 13.0124 19.8732 12.1955 19.6025C11.7752 19.4632 10.8052 19.3042 9.70867 19.1618C8.63284 19.0219 7.49321 18.9047 6.77342 18.8397L4.63764 18.6466C4.58057 18.6415 4.52415 18.6308 4.46914 18.6149L0.659382 17.5101C-0.0949444 17.2913 -0.214205 16.2786 0.468877 15.8925L28.3813 0.115535ZM43.9723 9.21344C44.136 9.43048 44.0918 9.73839 43.8735 9.90117L40.7114 12.2591C40.4932 12.4219 40.1835 12.3779 40.0197 12.1609C39.856 11.9438 39.9003 11.6359 40.1186 11.4731L43.2806 9.11519C43.4989 8.95241 43.8086 8.99639 43.9723 9.21344Z" fill="currentColor" />
<path fill-rule="evenodd" clip-rule="evenodd" d="M28.3813 0.115535C28.569 0.00941856 28.7892 -0.0251508 29.0007 0.0182761L47.0336 3.72112L47.0367 3.72173L49.1312 4.13823C49.885 4.28812 50.1054 5.25407 49.4904 5.71266L46.245 8.13271C46.0268 8.2955 45.7171 8.25151 45.5533 8.03447C45.3896 7.81742 45.4339 7.50952 45.6522 7.34673L48.7207 5.05853L46.8399 4.68451L46.8368 4.6839L28.8373 0.987932L1.1602 16.6319L4.73663 17.669L6.86288 17.8612C7.59237 17.9272 8.74523 18.0457 9.83673 18.1876C10.9075 18.3267 11.9796 18.4953 12.508 18.6704C13.4478 18.9819 15.3647 20.0099 16.3478 20.5611C16.6285 20.7184 16.7984 21.0131 16.7984 21.3294V21.7064L19.3768 22.3901L21.369 22.7502L21.8658 22.5032C22.0768 22.3984 22.321 22.3811 22.5447 22.4553L24.5154 23.1084L37.747 13.2416C37.9653 13.0788 38.275 13.1228 38.4387 13.3398C38.6024 13.5569 38.5582 13.8648 38.3399 14.0276L25.0668 23.9252C24.8334 24.0993 24.5289 24.1485 24.252 24.0567L22.2711 23.4002L21.7815 23.6436C21.6094 23.7292 21.414 23.7569 21.2247 23.7227L19.1607 23.3496L16.4704 22.6363C16.0811 22.5331 15.8103 22.1825 15.8103 21.7819V21.3877C14.7925 20.8188 13.0124 19.8732 12.1955 19.6025C11.7752 19.4632 10.8052 19.3042 9.70867 19.1618C8.63284 19.0219 7.49321 18.9047 6.77342 18.8397L4.63764 18.6466C4.58057 18.6415 4.52415 18.6308 4.46914 18.6149L0.659382 17.5101C-0.0949444 17.2913 -0.214205 16.2786 0.468877 15.8925L28.3813 0.115535Z" fill="currentColor" />
<path fill-rule="evenodd" clip-rule="evenodd" d="M0.193862 32.9715L0 16.5878L0.988074 16.5762L1.181 32.8804L2.76485 33.1953L2.57106 34.1587L0.908718 33.8282C0.496875 33.7463 0.198803 33.3891 0.193862 32.9715Z" fill="currentColor" />
<path fill-rule="evenodd" clip-rule="evenodd" d="M16.7498 38.8618L13.5878 37.8793L13.8825 36.9416L17.0446 37.924L16.7498 38.8618Z" fill="currentColor" />
<path fill-rule="evenodd" clip-rule="evenodd" d="M49.5191 4.49773C49.7919 4.50497 50.0071 4.73069 49.9998 5.00189L49.6093 19.5624C49.6025 19.8151 49.4873 20.0528 49.2928 20.2155L24.6924 40.7924C24.4612 40.9858 24.1471 41.0492 23.8583 40.9609L21.495 40.2379C21.2342 40.1581 21.0878 39.8832 21.1681 39.6239C21.2483 39.3646 21.5248 39.2191 21.7856 39.2989L24.0974 40.0061L48.6227 19.4921L49.012 4.9757C49.0193 4.7045 49.2463 4.4905 49.5191 4.49773Z" fill="currentColor" />

</symbol><symbol viewBox="0 0 56 38" fill="none" id="item-catalog-3">
<path fill-rule="evenodd" clip-rule="evenodd" d="M35.6576 1.12649C35.5672 1.06781 35.4533 1.05768 35.3539 1.09949L2.51165 14.9035C2.40427 14.9487 2.32954 15.0476 2.31591 15.1626L1.97244 18.0631C1.96505 18.1255 1.97618 18.1886 2.00446 18.2448L2.23001 18.693C2.32758 18.8868 2.37838 19.1006 2.37838 19.3174V19.4031C2.37838 19.7734 2.23031 20.1285 1.96674 20.3903L1.88687 20.4697C1.86222 20.4942 1.8417 20.5225 1.82611 20.5534L1.51921 21.1632C1.50362 21.1942 1.49316 21.2275 1.48823 21.2618L1.08328 24.0779C1.08181 24.0881 1.08108 24.0984 1.08108 24.1086C1.08108 24.1767 1.11329 24.2409 1.16807 24.2819L17.9815 36.8611C18.0738 36.9302 18.1962 36.9453 18.3027 36.9006L54.7207 21.6338C54.8408 21.5835 54.9189 21.4665 54.9189 21.337V19.0392C54.9189 19.0045 54.9133 18.9701 54.9023 18.9373L54.5337 17.8387C54.5288 17.8242 54.5229 17.8101 54.5161 17.7965L54.2616 17.2908C54.1043 16.9783 54.0707 16.6187 54.1673 16.2828L54.474 15.2162C54.4823 15.1875 54.4865 15.1577 54.4865 15.1277V14.5299C54.4865 14.4445 54.4523 14.3625 54.3915 14.3021L51.465 11.3947C51.4492 11.379 51.4318 11.365 51.413 11.3528L35.6576 1.12649ZM34.9326 0.110353C35.3636 -0.0708043 35.8571 -0.0269385 36.2489 0.227357L52.0043 10.4537C52.0855 10.5063 52.1609 10.5672 52.2294 10.6353L55.1559 13.5427C55.4195 13.8045 55.5676 14.1596 55.5676 14.5299V15.1277C55.5676 15.2575 55.5494 15.3866 55.5135 15.5113L55.2068 16.5779C55.1845 16.6554 55.1922 16.7384 55.2285 16.8105L55.483 17.3161C55.5128 17.3752 55.5382 17.4363 55.5593 17.499L55.9279 18.5976C55.9756 18.74 56 18.8891 56 19.0392V21.337C56 21.8983 55.6616 22.4051 55.141 22.6234L18.723 37.8902C18.2615 38.0836 17.7312 38.0184 17.3311 37.7191L0.517716 25.1398C0.191722 24.8959 0 24.514 0 24.1086C0 24.0475 0.00436422 23.9865 0.0130598 23.9261L0.418017 21.1099C0.439379 20.9613 0.48471 20.8171 0.552264 20.6829L0.859166 20.0731C0.92672 19.9389 1.01561 19.8164 1.12243 19.7102L1.2023 19.6309C1.26313 19.5705 1.2973 19.4885 1.2973 19.4031V19.3174C1.2973 19.2674 1.28557 19.218 1.26306 19.1733L1.03751 18.7251C0.914977 18.4817 0.86675 18.2079 0.898764 17.9376L1.24224 15.0371C1.30127 14.5386 1.6251 14.11 2.09041 13.9144L34.9326 0.110353Z" fill="currentColor" />
<path fill-rule="evenodd" clip-rule="evenodd" d="M17.9387 26.5717C18.0921 26.3898 18.3648 26.3658 18.5479 26.5181L19.092 26.9709L26.6631 33.5523C26.8429 33.7085 26.8611 33.98 26.7038 34.1585C26.5466 34.3371 26.2734 34.3552 26.0936 34.1989L18.5296 27.6236L17.9926 27.1768C17.8095 27.0245 17.7854 26.7536 17.9387 26.5717Z" fill="currentColor" />
<path fill-rule="evenodd" clip-rule="evenodd" d="M17.9548 29.5408C18.1181 29.3677 18.3918 29.3589 18.566 29.5212L19.4255 30.3217L23.748 34.0792L24.4003 34.6732C24.5764 34.8336 24.5883 35.1053 24.4269 35.2802C24.2655 35.4551 23.992 35.4669 23.8159 35.3066L23.1709 34.7192L18.8448 30.9586L17.9745 30.148C17.8003 29.9858 17.7915 29.7139 17.9548 29.5408Z" fill="currentColor" />
<path fill-rule="evenodd" clip-rule="evenodd" d="M17.9651 32.5534C18.118 32.3711 18.3907 32.3465 18.5741 32.4984L22.2228 35.5191C22.4063 35.671 22.431 35.9419 22.2781 36.1242C22.1253 36.3064 21.8526 36.3311 21.6691 36.1792L18.0205 33.1585C17.837 33.0066 17.8122 32.7357 17.9651 32.5534Z" fill="currentColor" />
<path fill-rule="evenodd" clip-rule="evenodd" d="M52.2765 10.9459C52.3993 11.2163 52.2782 11.5343 52.0061 11.6563L47.5737 13.6432C47.3016 13.7652 46.9814 13.6449 46.8586 13.3746C46.7359 13.1043 46.8569 12.7862 47.129 12.6642L51.5615 10.6773C51.8336 10.5553 52.1537 10.6756 52.2765 10.9459ZM1.60809 14.515C1.77679 14.2703 2.11321 14.2078 2.35951 14.3754L17.7531 24.8501C17.8443 24.9122 17.961 24.9238 18.0628 24.881L30.2759 19.7477L30.2796 19.7461L34.0634 18.1888C34.3392 18.0753 34.6554 18.2054 34.7697 18.4794C34.8839 18.7534 34.753 19.0675 34.4772 19.1811L30.6971 20.7368L30.6934 20.7384L18.484 25.8702C18.043 26.0555 17.5373 26.0051 17.1422 25.7362L1.7486 15.2615C1.5023 15.0939 1.43939 14.7597 1.60809 14.515Z" fill="currentColor" />
<path fill-rule="evenodd" clip-rule="evenodd" d="M44.4978 14.3944C44.6141 14.6676 44.4856 14.9827 44.2106 15.0982L37.8863 17.7564C37.6114 17.872 37.2942 17.7442 37.1779 17.4711C37.0615 17.198 37.1901 16.8828 37.4651 16.7673L43.7894 14.1091C44.0643 13.9935 44.3815 14.1213 44.4978 14.3944Z" fill="currentColor" />
<path fill-rule="evenodd" clip-rule="evenodd" d="M18.5946 25.3439V37.8025H17.5135V25.3439H18.5946Z" fill="currentColor" />

</symbol><symbol viewBox="0 0 50 39" fill="none" id="item-catalog-4">
<path fill-rule="evenodd" clip-rule="evenodd" d="M16.4972 16.3743C16.8388 16.1116 16.95 15.8331 16.95 15.6163C16.95 15.3995 16.8388 15.121 16.4972 14.8582C16.1543 14.5945 15.6286 14.3967 14.9987 14.3967C14.3688 14.3967 13.843 14.5945 13.5001 14.8582C13.1586 15.121 13.0474 15.3995 13.0474 15.6163C13.0474 15.8331 13.1586 16.1116 13.5001 16.3743C13.843 16.6381 14.3688 16.8358 14.9987 16.8358C15.6286 16.8358 16.1543 16.6381 16.4972 16.3743ZM14.9987 18.0554C16.7499 18.0554 18.1695 16.9634 18.1695 15.6163C18.1695 14.2692 16.7499 13.1772 14.9987 13.1772C13.2475 13.1772 11.8278 14.2692 11.8278 15.6163C11.8278 16.9634 13.2475 18.0554 14.9987 18.0554Z" fill="currentColor" />
<path fill-rule="evenodd" clip-rule="evenodd" d="M25.7659 12.9596C26.1074 12.6968 26.2186 12.4183 26.2186 12.2015C26.2186 11.9847 26.1074 11.7062 25.7659 11.4435C25.423 11.1797 24.8972 10.982 24.2673 10.982C23.6374 10.982 23.1116 11.1797 22.7688 11.4435C22.4272 11.7062 22.316 11.9847 22.316 12.2015C22.316 12.4183 22.4272 12.6968 22.7688 12.9596C23.1116 13.2233 23.6374 13.4211 24.2673 13.4211C24.8972 13.4211 25.423 13.2233 25.7659 12.9596ZM24.2673 14.6406C26.0185 14.6406 27.4382 13.5486 27.4382 12.2015C27.4382 10.8544 26.0185 9.7624 24.2673 9.7624C22.5161 9.7624 21.0965 10.8544 21.0965 12.2015C21.0965 13.5486 22.5161 14.6406 24.2673 14.6406Z" fill="currentColor" />
<path fill-rule="evenodd" clip-rule="evenodd" d="M35.0345 9.05699C35.3761 8.79425 35.4873 8.51573 35.4873 8.29893C35.4873 8.08213 35.3761 7.8036 35.0345 7.54086C34.6916 7.27711 34.1659 7.07937 33.536 7.07937C32.9061 7.07937 32.3803 7.27711 32.0374 7.54086C31.6959 7.8036 31.5847 8.08213 31.5847 8.29893C31.5847 8.51573 31.6959 8.79425 32.0374 9.05699C32.3803 9.32075 32.9061 9.51849 33.536 9.51849C34.1659 9.51849 34.6916 9.32075 35.0345 9.05699ZM33.536 10.738C35.2872 10.738 36.7068 9.64602 36.7068 8.29893C36.7068 6.95184 35.2872 5.85981 33.536 5.85981C31.7848 5.85981 30.3651 6.95184 30.3651 8.29893C30.3651 9.64602 31.7848 10.738 33.536 10.738Z" fill="currentColor" />
<path fill-rule="evenodd" clip-rule="evenodd" d="M34.8184 0.114348C35.2859 -0.0735102 35.8148 -0.0280126 36.2433 0.23692L49.2483 8.27734C49.7156 8.56624 50 9.07647 50 9.62585V22.7274C50 23.3786 49.6018 23.9635 48.996 24.2023L12.9358 38.4164C12.402 38.6268 11.7963 38.5324 11.3518 38.1696L0.753084 29.5179C0.389706 29.2213 0.176332 28.779 0.170347 28.31L0.000101946 14.9689C-0.00243708 14.7699 0.0424839 14.5732 0.131141 14.3951C0.267813 14.1204 0.500544 13.9055 0.78517 13.7912L34.8184 0.114348ZM35.602 1.27424C35.5031 1.2131 35.381 1.2026 35.2732 1.24595L1.23992 14.9228C1.23254 14.9257 1.22651 14.9313 1.22296 14.9384C1.22066 14.9431 1.2195 14.9482 1.21956 14.9533L1.38981 28.2944C1.39119 28.4026 1.44043 28.5047 1.52428 28.5732L12.123 37.2248C12.2256 37.3085 12.3654 37.3303 12.4886 37.2818L48.5487 23.0677C48.6886 23.0126 48.7804 22.8776 48.7804 22.7274V9.62585C48.7804 9.49907 48.7148 9.38133 48.607 9.31466L35.602 1.27424Z" fill="currentColor" />
<path fill-rule="evenodd" clip-rule="evenodd" d="M32.8861 15.881C33.0062 16.1956 32.8485 16.5481 32.5339 16.6682L13.3306 24.0012C13.1905 24.0547 13.0972 24.1884 13.0953 24.3383L12.9253 37.5788C12.921 37.9155 12.6445 38.185 12.3078 38.1807C11.971 38.1763 11.7016 37.8998 11.7059 37.5631L11.8759 24.3227C11.8842 23.6728 12.2884 23.0938 12.8956 22.8619L32.0989 15.5289C32.4135 15.4088 32.7659 15.5664 32.8861 15.881Z" fill="currentColor" />
<path fill-rule="evenodd" clip-rule="evenodd" d="M42.8864 12.0622C43.0066 12.3768 42.8489 12.7293 42.5343 12.8494L35.9487 15.3642C35.6341 15.4844 35.2816 15.3267 35.1615 15.0121C35.0414 14.6975 35.199 14.345 35.5136 14.2249L42.0992 11.7101C42.4139 11.59 42.7663 11.7476 42.8864 12.0622ZM12.5019 23.0582C12.8387 23.0625 13.1081 23.339 13.1038 23.6758L12.9253 37.5788C12.921 37.9155 12.6445 38.185 12.3078 38.1807C11.971 38.1763 11.7016 37.8998 11.7059 37.5631L11.8844 23.6601C11.8887 23.3234 12.1652 23.0539 12.5019 23.0582Z" fill="currentColor" />
<path fill-rule="evenodd" clip-rule="evenodd" d="M49.4721 9.54742C49.5922 9.86203 49.4345 10.2145 49.1199 10.3346L45.8271 11.592C45.5125 11.7121 45.1601 11.5545 45.0399 11.2399C44.9198 10.9253 45.0774 10.5728 45.3921 10.4527L48.6849 9.19529C48.9995 9.07515 49.3519 9.2328 49.4721 9.54742ZM12.5019 23.0582C12.8387 23.0625 13.1081 23.339 13.1038 23.6758L12.9253 37.5788C12.921 37.9155 12.6445 38.185 12.3078 38.1807C11.971 38.1763 11.7016 37.8998 11.7059 37.5631L11.8844 23.6601C11.8887 23.3234 12.1652 23.0539 12.5019 23.0582Z" fill="currentColor" />
<path fill-rule="evenodd" clip-rule="evenodd" d="M0.614353 14.2688C0.821118 14.003 1.20423 13.9551 1.47006 14.1619L12.9339 23.0787C13.1997 23.2855 13.2476 23.6686 13.0409 23.9344C12.8341 24.2002 12.451 24.2481 12.1851 24.0413L0.721292 15.1245C0.455466 14.9177 0.407588 14.5346 0.614353 14.2688Z" fill="currentColor" />
<path fill-rule="evenodd" clip-rule="evenodd" d="M12.2534 26.0526C12.4308 25.8498 12.739 25.8293 12.9417 26.0067L21.7835 33.7433C21.9863 33.9207 22.0069 34.2289 21.8294 34.4316C21.652 34.6344 21.3438 34.6549 21.1411 34.4775L12.2993 26.7409C12.0965 26.5635 12.076 26.2553 12.2534 26.0526Z" fill="currentColor" />
<path fill-rule="evenodd" clip-rule="evenodd" d="M11.9597 29.1882C12.144 28.9916 12.4527 28.9817 12.6493 29.1659L13.6188 30.0749L18.495 34.3415L19.2309 35.0161C19.4295 35.1981 19.4429 35.5067 19.2608 35.7053C19.0788 35.9039 18.7702 35.9173 18.5716 35.7353L17.844 35.0683L12.9637 30.7981L11.982 29.8777C11.7854 29.6934 11.7755 29.3847 11.9597 29.1882Z" fill="currentColor" />
<path fill-rule="evenodd" clip-rule="evenodd" d="M11.9714 32.609C12.1438 32.4021 12.4514 32.3741 12.6584 32.5466L16.7744 35.9766C16.9814 36.1491 17.0094 36.4567 16.8369 36.6636C16.6644 36.8706 16.3568 36.8986 16.1498 36.7261L12.0338 33.2961C11.8268 33.1236 11.7989 32.816 11.9714 32.609Z" fill="currentColor" />

</symbol><symbol viewBox="0 0 39 44" fill="none" id="item-catalog-5">
<path fill-rule="evenodd" clip-rule="evenodd" d="M5.19265 0.969163C5.09559 0.969163 5.00485 1.01699 4.95041 1.09685L1.08641 6.76517C0.935363 6.98674 0.632166 7.04468 0.409198 6.89459C0.186229 6.74449 0.127922 6.44319 0.278966 6.22162L4.14297 0.553293C4.37886 0.207264 4.77206 0 5.19265 0H32.135C32.66 0 33.1307 0.321577 33.3188 0.80871L38.5384 14.3318C38.5919 14.4705 38.6203 14.6175 38.6223 14.766L38.9999 42.5292C39.0094 43.2317 38.4391 43.8062 37.7322 43.8062H1.4629C0.762687 43.8062 0.195053 43.2421 0.195053 42.5463V31.304C0.195053 31.0363 0.413374 30.8194 0.682686 30.8194C0.951998 30.8194 1.17032 31.0363 1.17032 31.304V42.5463C1.17032 42.7068 1.30131 42.837 1.4629 42.837H37.7322C37.8953 42.837 38.0269 42.7044 38.0247 42.5423L37.6472 14.7791C37.6467 14.7448 37.6401 14.7109 37.6278 14.6789L32.4082 1.15579C32.3648 1.04337 32.2562 0.969163 32.135 0.969163H5.19265Z" fill="currentColor" />
<path fill-rule="evenodd" clip-rule="evenodd" d="M0.487633 21.5154C0.756945 21.5154 0.975265 21.7324 0.975265 22V27.6211C0.975265 27.8888 0.756945 28.1057 0.487633 28.1057C0.218321 28.1057 0 27.8888 0 27.6211V22C0 21.7324 0.218321 21.5154 0.487633 21.5154Z" fill="currentColor" />
<path fill-rule="evenodd" clip-rule="evenodd" d="M4.58674 6.05058C4.83284 6.15927 4.94368 6.44564 4.8343 6.6902L1.00048 15.2623C0.983856 15.2995 0.975265 15.3397 0.975265 15.3804V18.511C0.975265 18.7786 0.756945 18.9956 0.487633 18.9956C0.218321 18.9956 0 18.7786 0 18.511V15.3804C0 15.2041 0.0372268 15.0298 0.109274 14.8687L3.94309 6.29659C4.05247 6.05202 4.34064 5.94188 4.58674 6.05058Z" fill="currentColor" />
<path fill-rule="evenodd" clip-rule="evenodd" d="M0.195053 6.49339C0.195053 6.22577 0.413374 6.00881 0.682686 6.00881H29.5505C29.8199 6.00881 30.0382 6.22577 30.0382 6.49339C30.0382 6.76102 29.8199 6.97797 29.5505 6.97797H0.682686C0.413374 6.97797 0.195053 6.76102 0.195053 6.49339Z" fill="currentColor" />
<path fill-rule="evenodd" clip-rule="evenodd" d="M17.7974 19.8481C18.1424 19.7103 18.5329 19.7436 18.8492 19.938L22.3639 22.0974C22.7088 22.3093 22.9188 22.6836 22.9188 23.0866V26.4478C22.9188 26.9255 22.6248 27.3546 22.1776 27.5298L11.7896 31.5988C11.3956 31.7532 10.9485 31.6839 10.6204 31.4178L7.79414 29.1252C7.5259 28.9076 7.3684 28.5831 7.36398 28.2391L7.31512 24.4347C7.31394 24.3423 7.33494 24.2509 7.37638 24.1681C7.44027 24.0406 7.54906 23.9407 7.68211 23.8876L17.7974 19.8481ZM18.4389 20.5975C18.3335 20.5327 18.2033 20.5215 18.0883 20.5675L8.09698 24.5575L8.14413 28.2292C8.1456 28.3439 8.1981 28.452 8.28751 28.5246L11.1138 30.8172C11.2231 30.9059 11.3722 30.929 11.5035 30.8775L21.8915 26.8084C22.0406 26.7501 22.1385 26.607 22.1385 26.4478V23.0866C22.1385 22.9522 22.0686 22.8275 21.9536 22.7568L18.4389 20.5975Z" fill="currentColor" />
<path fill-rule="evenodd" clip-rule="evenodd" d="M16.9516 24.9207C17.0284 25.1207 16.9276 25.3448 16.7263 25.4211L11.9506 27.2334C11.8012 27.2901 11.7018 27.4316 11.6997 27.5906L11.6523 31.2625C11.6495 31.4765 11.4726 31.6479 11.2572 31.6451C11.0418 31.6424 10.8694 31.4666 10.8721 31.2525L10.9196 27.5806C10.9257 27.1039 11.2241 26.6791 11.6723 26.5091L16.448 24.6968C16.6492 24.6204 16.8747 24.7207 16.9516 24.9207Z" fill="currentColor" />
<path fill-rule="evenodd" clip-rule="evenodd" d="M20.213 23.8C20.2899 24 20.189 24.2241 19.9878 24.3005L17.9865 25.0599C17.7852 25.1363 17.5598 25.0361 17.4829 24.836C17.4061 24.636 17.5069 24.412 17.7082 24.3356L19.7094 23.5762C19.9107 23.4998 20.1362 23.6 20.213 23.8Z" fill="currentColor" />
<path fill-rule="evenodd" clip-rule="evenodd" d="M22.7447 22.7223C22.8216 22.9223 22.7207 23.1464 22.5194 23.2228L21.5188 23.6025C21.3175 23.6788 21.0921 23.5786 21.0152 23.3786C20.9383 23.1786 21.0392 22.9545 21.2405 22.8782L22.2411 22.4984C22.4424 22.4221 22.6678 22.5223 22.7447 22.7223ZM11.3215 26.6714C11.5369 26.6741 11.7093 26.8499 11.7065 27.064L11.6523 31.2625C11.6495 31.4765 11.4726 31.6479 11.2572 31.6451C11.0418 31.6424 10.8694 31.4666 10.8721 31.2525L10.9264 27.054C10.9291 26.84 11.106 26.6686 11.3215 26.6714Z" fill="currentColor" />
<path fill-rule="evenodd" clip-rule="evenodd" d="M7.54504 24.0958C7.67732 23.9268 7.92242 23.8963 8.09248 24.0278L11.5761 26.7205C11.7462 26.8519 11.7768 27.0955 11.6445 27.2645C11.5123 27.4335 11.2672 27.4639 11.0971 27.3325L7.61346 24.6398C7.4434 24.5083 7.41277 24.2648 7.54504 24.0958Z" fill="currentColor" />
<path fill-rule="evenodd" clip-rule="evenodd" d="M29.9302 10.3092C30.1795 10.4105 30.2989 10.6935 30.1969 10.9412L28.4995 15.0644C28.4851 15.0993 28.4777 15.1367 28.4777 15.1745V43.5154C28.4777 43.783 28.2693 43.5 28 43.5C27.7307 43.5 27.5025 43.783 27.5025 43.5154V15.1745C27.5025 15.0109 27.5345 14.8489 27.5969 14.6974L29.2943 10.5742C29.3962 10.3265 29.681 10.2079 29.9302 10.3092Z" fill="currentColor" />

</symbol><symbol viewBox="0 0 43 47" fill="none" id="item-catalog-6">
<path fill-rule="evenodd" clip-rule="evenodd" d="M24.2464 23.3819C24.616 23.2353 25.0342 23.2708 25.3731 23.4775L29.138 25.7746C29.5075 26 29.7324 26.3982 29.7324 26.8269V30.4024C29.7324 30.9106 29.4175 31.367 28.9385 31.5534L17.811 35.8819C17.3889 36.0461 16.9099 35.9724 16.5585 35.6893L13.531 33.2505C13.2437 33.0191 13.075 32.6739 13.0702 32.3079L13.0179 28.261C13.0166 28.1626 13.0391 28.0654 13.0835 27.9774C13.152 27.8417 13.2685 27.7355 13.411 27.679L24.2464 23.3819ZM24.9336 24.179C24.8206 24.1101 24.6812 24.0983 24.558 24.1471L13.8554 28.3916L13.9059 32.2974C13.9075 32.4194 13.9638 32.5345 14.0595 32.6116L17.087 35.0504C17.2041 35.1448 17.3638 35.1693 17.5045 35.1146L28.632 30.7861C28.7917 30.724 28.8966 30.5718 28.8966 30.4024V26.8269C28.8966 26.684 28.8216 26.5513 28.6985 26.4761L24.9336 24.179Z" fill="currentColor" />
<path fill-rule="evenodd" clip-rule="evenodd" d="M23.3404 28.7779C23.4227 28.9907 23.3147 29.229 23.0991 29.3103L17.9834 31.2381C17.8234 31.2984 17.7168 31.449 17.7146 31.6181L17.6638 35.5241C17.6609 35.7518 17.4714 35.9341 17.2406 35.9312C17.0099 35.9282 16.8252 35.7412 16.8282 35.5135L16.879 31.6075C16.8856 31.1003 17.2051 30.6485 17.6853 30.4676L22.8009 28.5398C23.0165 28.4585 23.258 28.5652 23.3404 28.7779Z" fill="currentColor" />
<path fill-rule="evenodd" clip-rule="evenodd" d="M26.834 27.5858C26.9164 27.7986 26.8083 28.0369 26.5927 28.1182L24.449 28.926C24.2334 29.0073 23.9919 28.9007 23.9095 28.6879C23.8272 28.4751 23.9353 28.2368 24.1509 28.1555L26.2946 27.3477C26.5102 27.2664 26.7517 27.3731 26.834 27.5858Z" fill="currentColor" />
<path fill-rule="evenodd" clip-rule="evenodd" d="M29.5459 26.4394C29.6282 26.6521 29.5202 26.8905 29.3046 26.9717L28.2327 27.3757C28.0171 27.4569 27.7756 27.3503 27.6933 27.1375C27.611 26.9248 27.719 26.6864 27.9346 26.6052L29.0065 26.2012C29.2221 26.12 29.4636 26.2266 29.5459 26.4394ZM17.3095 30.6403C17.5402 30.6432 17.7249 30.8302 17.7219 31.0579L17.6638 35.5241C17.6609 35.7518 17.4714 35.9341 17.2406 35.9312C17.0099 35.9282 16.8252 35.7412 16.8282 35.5135L16.8862 31.0473C16.8892 30.8196 17.0787 30.6374 17.3095 30.6403Z" fill="currentColor" />
<path fill-rule="evenodd" clip-rule="evenodd" d="M13.2642 27.9004C13.4059 27.7206 13.6684 27.6882 13.8506 27.8281L17.5823 30.6925C17.7644 30.8323 17.7972 31.0914 17.6556 31.2712C17.5139 31.451 17.2513 31.4833 17.0691 31.3435L13.3375 28.4791C13.1553 28.3393 13.1225 28.0802 13.2642 27.9004Z" fill="currentColor" />
<path fill-rule="evenodd" clip-rule="evenodd" d="M37.0178 6.58694C37.3059 6.57198 37.5517 6.79032 37.5669 7.07462C37.6007 7.70818 37.7027 8.72462 37.8972 9.69792C37.9945 10.1844 38.1129 10.6501 38.2534 11.0473C38.3967 11.4526 38.5503 11.7491 38.7001 11.9265C38.8902 12.1516 39.0765 12.359 39.2538 12.5471C39.6359 12.9527 39.7193 13.5055 39.5962 13.9669C39.4724 14.4312 39.116 14.8792 38.5395 15.0043C35.3207 15.7029 30.1356 16.7559 26.2543 17.3031C23.2619 17.7249 18.976 17.5122 15.1097 17.1513C11.5675 16.8206 8.33156 16.3606 6.68417 16.1264C6.52709 16.1041 6.38445 16.0838 6.25737 16.0659C4.73717 15.8516 3.58424 15.5115 2.82101 15.2121C1.95051 14.8706 1.88107 13.8732 2.33886 13.2722C2.92255 12.5058 3.62222 11.4299 3.95525 10.444C4.20114 9.716 4.36846 9.10239 4.46571 8.61118C4.56496 8.10979 4.58379 7.77147 4.55929 7.57804C4.52351 7.29554 4.72656 7.03791 5.01282 7.0026C5.29907 6.96729 5.56014 7.16767 5.59592 7.45016C5.64107 7.80658 5.59722 8.27241 5.49102 8.80885C5.3828 9.35548 5.20189 10.0134 4.94633 10.77C4.55992 11.914 3.78036 13.0954 3.17397 13.8916C3.1065 13.9802 3.09327 14.0734 3.10618 14.137C3.1172 14.1913 3.14561 14.23 3.20695 14.2541C3.89047 14.5222 4.96317 14.842 6.40511 15.0453C6.53268 15.0633 6.67557 15.0836 6.83269 15.1059C8.48029 15.3401 11.6926 15.7968 15.2081 16.1249C19.0725 16.4857 23.2486 16.6854 26.1066 16.2825C29.9475 15.741 35.1012 14.6949 38.3151 13.9974C38.4328 13.9719 38.5404 13.8754 38.586 13.7044C38.6324 13.5305 38.5906 13.3573 38.4887 13.2492C38.2993 13.0482 38.1005 12.8268 37.8976 12.5865C37.6296 12.2691 37.4262 11.837 37.267 11.3871C37.105 10.929 36.9753 10.4127 36.8723 9.89744C36.6664 8.86724 36.5595 7.80113 36.5236 7.12881C36.5085 6.84451 36.7297 6.60191 37.0178 6.58694Z" fill="currentColor" />
<path fill-rule="evenodd" clip-rule="evenodd" d="M5.67399 18.5764C5.94511 18.6737 6.08497 18.9695 5.98638 19.2371C5.71267 19.9799 5.13025 21.8179 4.96994 23.2417C4.80497 24.7069 4.20703 35.3639 3.9277 40.5324L2.88449 40.4775C3.16234 35.3363 3.76231 24.6318 3.93164 23.1278C4.10563 21.5824 4.72113 19.654 5.00459 18.8847C5.10317 18.6172 5.40288 18.4792 5.67399 18.5764Z" fill="currentColor" />
<path fill-rule="evenodd" clip-rule="evenodd" d="M38.0129 40.2239C39.3315 40.0963 40.565 39.9894 41.0151 39.9894C41.2914 39.9894 41.5113 40.1171 41.6673 40.2599C41.8203 40.3998 41.9408 40.579 42.0379 40.7592C42.2325 41.1206 42.3883 41.5926 42.5137 42.0789C42.7667 43.0596 42.9268 44.2229 42.9979 44.9945L43 45.0178V45.6597C43 46.3999 42.392 47 41.6419 47H1.31671C0.565967 47 -0.0518679 46.391 0.00344755 45.6248C0.0353804 45.1824 0.0876796 44.5665 0.170138 43.7527C0.313706 42.3359 0.849356 41.2845 1.26948 40.7081C1.54558 40.3293 1.99301 40.198 2.38345 40.2341L8.67832 40.8165L8.58081 41.8429L2.28594 41.2605C2.18083 41.2508 2.13209 41.2901 2.11757 41.3101C1.79284 41.7556 1.33306 42.6375 1.20965 43.8553C1.128 44.6611 1.07661 45.2671 1.0455 45.698C1.03522 45.8405 1.1443 45.969 1.31671 45.969H41.6419C41.815 45.969 41.9553 45.8306 41.9553 45.6597V45.0647C41.8861 44.3245 41.7335 43.2331 41.5013 42.3332C41.383 41.8744 41.2515 41.4959 41.1154 41.243C41.0505 41.1225 40.997 41.0544 40.9624 41.0209C40.531 41.0288 39.4037 41.1252 38.1148 41.2499C36.7857 41.3785 35.3254 41.5329 34.3867 41.6358C34.1 41.6673 33.8417 41.4634 33.8099 41.1804C33.778 40.8975 33.9846 40.6426 34.2714 40.6112C35.2131 40.5079 36.678 40.353 38.0129 40.2239Z" fill="currentColor" />
<path fill-rule="evenodd" clip-rule="evenodd" d="M35.6241 17.7597C35.0437 16.8328 34.3715 15.9786 33.9343 15.4808L34.7238 14.8056C35.192 15.3388 35.8988 16.2373 36.5128 17.2177C37.1149 18.1791 37.6776 19.2962 37.7739 20.2468C37.9422 21.907 38.8205 34.4292 39.2379 40.4699C39.2575 40.7539 39.0401 40.9999 38.7523 41.0192C38.4645 41.0386 38.2152 40.824 38.1956 40.54C37.7772 34.484 36.9005 21.9882 36.7344 20.3493C36.6636 19.6503 36.2165 18.7056 35.6241 17.7597Z" fill="currentColor" />
<path fill-rule="evenodd" clip-rule="evenodd" d="M7.71115 5.57056C7.71115 5.57056 7.71165 5.57068 7.58487 6.07075L7.71165 5.57068C7.99151 5.63978 8.16162 5.91968 8.0916 6.19586C8.02209 6.47003 7.74207 6.63747 7.46421 6.57229C7.46277 6.57199 7.4594 6.57131 7.45419 6.57039C7.44143 6.56812 7.41775 6.56436 7.38428 6.56094C7.31725 6.55409 7.21179 6.54868 7.07672 6.55894C6.8085 6.5793 6.41842 6.66168 5.97305 6.92523C5.6576 7.1119 5.62878 7.26799 5.62373 7.33125C5.61553 7.43398 5.66025 7.54021 5.6977 7.60332C5.70254 7.61147 5.70862 7.62157 5.71546 7.63295C5.73446 7.66451 5.75938 7.70592 5.78012 7.74282C5.86154 7.88768 5.98851 8.04269 6.41357 8.32234C6.50043 8.37948 6.75874 8.48992 7.21842 8.63352C7.65596 8.7702 8.22365 8.92153 8.88131 9.07423C10.1962 9.37955 11.8494 9.68548 13.5015 9.88928C16.8016 10.2964 21.9895 10.2973 24.8911 10.0928C26.35 9.98997 28.8968 9.78467 31.205 9.47754C32.3605 9.3238 33.4443 9.14606 34.2978 8.94566C34.7251 8.84533 35.0832 8.74195 35.3588 8.63739C35.6496 8.52702 35.7919 8.43586 35.8417 8.38674C36.483 7.75379 36.547 7.33556 36.5448 7.24575C36.5436 7.1987 36.5364 7.16762 36.5303 7.15126C36.53 7.15046 36.5208 7.12713 36.4846 7.09408C36.449 7.06159 36.3802 7.01341 36.2548 6.97215C35.7723 6.81343 35.1049 6.63848 34.8307 6.57083C34.5508 6.50178 34.3807 6.22191 34.4506 5.94572C34.5206 5.66952 34.8042 5.5016 35.0841 5.57065C35.367 5.64046 36.0647 5.82291 36.5851 5.9941C37.0958 6.16208 37.3899 6.47538 37.5092 6.79123C37.5657 6.941 37.586 7.09091 37.5892 7.2211C37.6006 7.69169 37.3398 8.36625 36.5804 9.11574C36.369 9.32437 36.0542 9.47806 35.7337 9.59966C35.398 9.72706 34.9905 9.84276 34.5396 9.94863C33.6367 10.1606 32.5136 10.3437 31.3446 10.4993C29.004 10.8107 26.4318 11.0178 24.9655 11.1212C22.0169 11.329 16.7578 11.33 13.3719 10.9123C11.681 10.7037 9.99115 10.3911 8.64204 10.0778C7.96772 9.92122 7.37318 9.76325 6.90314 9.61642C6.45525 9.4765 6.06063 9.3292 5.83408 9.18015C5.33818 8.8539 5.06078 8.58847 4.86655 8.24289C4.85341 8.21952 4.84195 8.2005 4.82704 8.17576C4.81829 8.16124 4.80835 8.14476 4.7962 8.12427C4.71274 7.98363 4.54973 7.65781 4.58226 7.25029C4.61794 6.80329 4.87831 6.37094 5.4358 6.04104C6.03577 5.68601 6.58591 5.5622 6.99658 5.53101C7.20096 5.51549 7.36961 5.52297 7.49183 5.53545C7.55299 5.5417 7.60271 5.54922 7.63971 5.55581C7.65821 5.5591 7.67356 5.56217 7.6856 5.56474C7.69162 5.56602 7.69681 5.56718 7.70116 5.56818L7.70705 5.56956L7.70951 5.57016L7.71062 5.57043L7.71115 5.57056Z" fill="currentColor" />
<path fill-rule="evenodd" clip-rule="evenodd" d="M20.0692 1.18898C18.967 1.41147 17.905 1.80984 17.3901 2.01312C17.0255 2.15702 16.4208 2.50828 15.782 2.91587C15.1671 3.30823 14.5593 3.72755 14.1808 3.99857L10.4392 7.28079C10.2236 7.46993 9.89339 7.45076 9.70173 7.23798C9.51007 7.0252 9.5295 6.69938 9.74511 6.51024L13.5251 3.19439L13.5458 3.17954C13.9352 2.90008 14.5699 2.46159 15.2148 2.05011C15.8471 1.64668 16.5308 1.2419 17.0021 1.05589C17.5318 0.846779 18.6637 0.420382 19.8598 0.178934C20.4577 0.0582392 21.091 -0.0203565 21.6844 0.00463692C22.2728 0.0294206 22.8699 0.158057 23.35 0.496462C24.1467 1.0581 24.5538 1.57369 24.8913 2.07334C24.9564 2.16978 25.0174 2.26269 25.0767 2.35327C25.3217 2.72689 25.5406 3.06077 25.923 3.43813C26.3648 3.87416 26.8543 4.10001 27.4228 4.29517C27.5662 4.34439 27.7207 4.39313 27.8827 4.44422C28.3361 4.58726 28.848 4.74878 29.3392 4.99111C30.0049 5.31962 30.9233 5.90763 31.7024 6.51742C32.0929 6.8231 32.4607 7.14373 32.7493 7.44958C33.0193 7.73577 33.2861 8.07626 33.3732 8.42004C33.4762 8.8265 33.4593 9.10923 33.4157 9.32951C33.4064 9.37663 33.3962 9.41868 33.389 9.44869L33.3882 9.45223C33.3849 9.46578 33.3824 9.47613 33.3805 9.48431C33.4264 9.73267 33.2814 9.98291 33.0317 10.0651C32.758 10.1551 32.4622 10.0091 32.3709 9.73903C32.3152 9.57394 32.3287 9.42902 32.3462 9.33115C32.3539 9.28829 32.3639 9.24637 32.3708 9.21803L32.3717 9.21414C32.3795 9.18167 32.3853 9.15753 32.3904 9.1318C32.406 9.0531 32.4239 8.92344 32.3597 8.67008C32.3423 8.60148 32.2435 8.42649 31.9847 8.15209C31.7443 7.89735 31.42 7.61229 31.0532 7.32517C30.3175 6.74935 29.4598 6.2033 28.872 5.91323C28.4581 5.70903 28.0634 5.58455 27.6364 5.44992C27.4577 5.39356 27.2734 5.33542 27.0796 5.26892C26.4468 5.0517 25.7871 4.76206 25.1843 4.16713C24.7166 3.70565 24.431 3.26841 24.1816 2.88669C24.1272 2.80345 24.0745 2.72285 24.0221 2.64522C23.7328 2.217 23.4085 1.80472 22.7427 1.33539C22.4915 1.15831 22.1223 1.05498 21.6398 1.03466C21.1624 1.01455 20.6204 1.07771 20.0692 1.18898Z" fill="currentColor" />

</symbol></defs><use id="icon-calendar-usage" xlink:href="#icon-calendar" class="sprite-symbol-usage" /><use id="icon-catalog-usage" xlink:href="#icon-catalog" class="sprite-symbol-usage" /><use id="icon-clip-usage" xlink:href="#icon-clip" class="sprite-symbol-usage" /><use id="icon-dialog-usage" xlink:href="#icon-dialog" class="sprite-symbol-usage" /><use id="icon-dialog-plate-usage" xlink:href="#icon-dialog-plate" class="sprite-symbol-usage" /><use id="icon-direction-usage" xlink:href="#icon-direction" class="sprite-symbol-usage" /><use id="icon-done-usage" xlink:href="#icon-done" class="sprite-symbol-usage" /><use id="icon-download-usage" xlink:href="#icon-download" class="sprite-symbol-usage" /><use id="icon-email-usage" xlink:href="#icon-email" class="sprite-symbol-usage" /><use id="icon-folder-usage" xlink:href="#icon-folder" class="sprite-symbol-usage" /><use id="icon-lg-arrow-usage" xlink:href="#icon-lg-arrow" class="sprite-symbol-usage" /><use id="icon-location-usage" xlink:href="#icon-location" class="sprite-symbol-usage" /><use id="icon-mail-usage" xlink:href="#icon-mail" class="sprite-symbol-usage" /><use id="icon-plus-usage" xlink:href="#icon-plus" class="sprite-symbol-usage" /><use id="icon-reload-usage" xlink:href="#icon-reload" class="sprite-symbol-usage" /><use id="icon-search-usage" xlink:href="#icon-search" class="sprite-symbol-usage" /><use id="icon-small-arrow-usage" xlink:href="#icon-small-arrow" class="sprite-symbol-usage" /><use id="icon-star-usage" xlink:href="#icon-star" class="sprite-symbol-usage" /><use id="icon-success-usage" xlink:href="#icon-success" class="sprite-symbol-usage" /><use id="icon-tel-usage" xlink:href="#icon-tel" class="sprite-symbol-usage" /><use id="icon-user-usage" xlink:href="#icon-user" class="sprite-symbol-usage" /><use id="icon-video-play-usage" xlink:href="#icon-video-play" class="sprite-symbol-usage" /><use id="icon-vk-usage" xlink:href="#icon-vk" class="sprite-symbol-usage" /><use id="icon-vk-color-usage" xlink:href="#icon-vk-color" class="sprite-symbol-usage" /><use id="icon-yt-usage" xlink:href="#icon-yt" class="sprite-symbol-usage" /><use id="icon-yt-color-usage" xlink:href="#icon-yt-color" class="sprite-symbol-usage" /><use id="icon-zoom-usage" xlink:href="#icon-zoom" class="sprite-symbol-usage" /><use id="item-catalog-1-usage" xlink:href="#item-catalog-1" class="sprite-symbol-usage" /><use id="item-catalog-2-usage" xlink:href="#item-catalog-2" class="sprite-symbol-usage" /><use id="item-catalog-3-usage" xlink:href="#item-catalog-3" class="sprite-symbol-usage" /><use id="item-catalog-4-usage" xlink:href="#item-catalog-4" class="sprite-symbol-usage" /><use id="item-catalog-5-usage" xlink:href="#item-catalog-5" class="sprite-symbol-usage" /><use id="item-catalog-6-usage" xlink:href="#item-catalog-6" class="sprite-symbol-usage" /></svg>