<svg xmlns="http://www.w3.org/2000/svg" xmlns:xlink="http://www.w3.org/1999/xlink"><defs><style>
    .sprite-symbol-usage {display: none;}
    .sprite-symbol-usage:target {display: inline;}
  </style><symbol viewBox="0 0 19 20" fill="none" id="icon-catalog">
<path fill-rule="evenodd" clip-rule="evenodd" d="M18.9912 3.44315V6.30531C19.0006 7.08351 18.7068 7.83365 18.1743 8.39067C17.6419 8.9477 16.9145 9.26597 16.1522 9.27546H14.9884C14.5941 9.23237 14.2951 8.89272 14.2951 8.48792C14.2951 8.08312 14.5941 7.74347 14.9884 7.70038H16.1169C16.4739 7.69801 16.8152 7.55035 17.0651 7.29015C17.3151 7.02994 17.453 6.67869 17.4483 6.31431V3.44315C17.4388 2.69661 16.8482 2.09378 16.1169 2.08408H13.3044C12.5691 2.08408 11.9731 2.69256 11.9731 3.44315V7.73638C11.9587 8.17172 11.6062 8.51556 11.1796 8.51042C10.9746 8.50574 10.7799 8.41743 10.6391 8.26523C10.4983 8.11303 10.423 7.9096 10.4302 7.70038V3.44315C10.4278 2.66341 10.7296 1.91478 11.2689 1.36257C11.8082 0.810365 12.5406 0.499996 13.3044 0.5H16.1169C17.692 0.538179 18.9586 1.83515 18.9912 3.44315ZM5.69559 0.5H2.88306C1.2948 0.509827 0.00962617 1.82178 0 3.44315V6.31431C0.00966866 7.9342 1.29622 9.24355 2.88306 9.24846H5.69559C6.45942 9.25085 7.19276 8.94278 7.73369 8.39226C8.27463 7.84173 8.57866 7.09405 8.57865 6.31431V3.44315C8.57381 1.81975 7.28585 0.504942 5.69559 0.5ZM7.02691 6.31431C7.03162 6.67869 6.89372 7.02994 6.64379 7.29015C6.39386 7.55035 6.05256 7.69801 5.69559 7.70038H2.88306C2.52078 7.7078 2.17118 7.56416 1.91496 7.30259C1.65873 7.04102 1.51802 6.68414 1.52529 6.31431V3.44315C1.52522 3.07798 1.66911 2.72814 1.92453 2.47247C2.17995 2.21681 2.52541 2.07683 2.88306 2.08408H5.69559C6.42886 2.08899 7.02211 2.6946 7.02691 3.44315V6.31431ZM13.3044 10.7515H16.1169C17.7038 10.7564 18.9903 12.0658 19 13.6857V16.5568C18.9904 18.1782 17.7052 19.4902 16.1169 19.5H13.3044C11.7176 19.4901 10.435 18.1768 10.4302 16.5568V13.6857C10.4302 12.0652 11.717 10.7515 13.3044 10.7515ZM17.0609 17.5205C17.3111 17.2651 17.4506 16.918 17.4483 16.5568V13.6857C17.4483 13.3252 17.308 12.9796 17.0583 12.7247C16.8087 12.4698 16.47 12.3266 16.1169 12.3266H13.3044C12.5691 12.3266 11.9731 12.9351 11.9731 13.6857V16.5568C11.9707 16.918 12.1102 17.2651 12.3604 17.5205C12.6106 17.7759 12.9506 17.9183 13.3044 17.9159H16.1169C16.4707 17.9183 16.8107 17.7759 17.0609 17.5205ZM0 16.5479V13.6857C-3.59358e-06 12.906 0.304028 12.1583 0.844962 11.6078C1.3859 11.0572 2.11924 10.7492 2.88306 10.7516H4.03805C4.33336 10.7193 4.62081 10.8619 4.77835 11.1189C4.9359 11.376 4.9359 11.7022 4.77835 11.9592C4.62081 12.2163 4.33336 12.3589 4.03805 12.3266H2.88306C2.14635 12.3266 1.54777 12.9337 1.54292 13.6857V16.5209C1.56166 17.2669 2.15217 17.8657 2.88306 17.8799H5.71322C6.06784 17.8823 6.40874 17.7402 6.66032 17.4851C6.9119 17.2299 7.05337 16.8829 7.05336 16.5209V12.2636C6.99586 11.9457 7.13341 11.624 7.40087 11.4509C7.66833 11.2778 8.01201 11.288 8.26917 11.4767C8.52633 11.6654 8.64534 11.9947 8.56984 12.3086V16.5479C8.56984 18.1733 7.27905 19.491 5.68677 19.491H2.88306C1.30456 19.4576 0.0327499 18.1593 0 16.5479Z" fill="white" />
</symbol><symbol viewBox="0 0 18 18" fill="none" id="icon-dialog">
<path d="M12.1515 9.3304H12.1587M8.94432 9.3304H8.95152M5.73712 9.3304H5.74432M14.6571 14.6559C12.2122 17.1011 8.59182 17.6294 5.62913 16.2592C5.19177 16.0831 4.83319 15.9408 4.4923 15.9408C3.54279 15.9464 2.36093 16.8671 1.74669 16.2536C1.13244 15.6393 2.05381 14.4565 2.05381 13.5012C2.05381 13.1603 1.91713 12.8081 1.74106 12.3699C0.370265 9.4077 0.899287 5.78615 3.34421 3.34177C6.46528 0.219546 11.536 0.219546 14.6571 3.34096C17.7838 6.46801 17.7782 11.5345 14.6571 14.6559Z" stroke="#8CAEF3" stroke-width="2" stroke-linecap="round" stroke-linejoin="round" />
</symbol><symbol viewBox="0 0 25 18" fill="none" id="icon-lg-arrow">
<path d="M16 17L24 9L16 1" stroke="#316EE8" stroke-width="2" stroke-linecap="round" stroke-linejoin="round" />
<path d="M23 9H1" stroke="#316EE8" stroke-width="2" stroke-linecap="round" stroke-linejoin="round" />
</symbol><symbol viewBox="0 0 15 17" fill="none" id="icon-location">
<path fill-rule="evenodd" clip-rule="evenodd" d="M1 7.28252C1.0122 3.80097 3.93222 0.988209 7.52207 1.00004C11.1119 1.01187 14.0122 3.84381 14 7.32536V7.39675C13.9558 9.65987 12.6529 11.7517 11.0555 13.3865C10.1419 14.3066 9.12174 15.1211 8.01527 15.8139C7.71941 16.062 7.28056 16.062 6.98469 15.8139C5.33521 14.7726 3.8875 13.458 2.70781 11.9301C1.65637 10.5978 1.0594 8.98072 1 7.30394V7.28252Z" stroke="#316EE8" stroke-width="1.5" stroke-linecap="round" stroke-linejoin="round" />
<path d="M9.58321 7.40389C9.58321 8.51972 8.65052 9.42428 7.49998 9.42428C6.34944 9.42428 5.41675 8.51972 5.41675 7.40389C5.41675 6.28806 6.34944 5.3835 7.49998 5.3835C8.65052 5.3835 9.58321 6.28806 9.58321 7.40389Z" stroke="#316EE8" stroke-width="1.5" stroke-linecap="round" stroke-linejoin="round" />
</symbol><symbol viewBox="0 0 17 15" fill="none" id="icon-mail">
<path d="M12.9089 5.22378L9.58185 7.83217C8.95221 8.31285 8.06959 8.31285 7.43995 7.83217L4.08432 5.22378M4.81257 1H12.1664C13.2267 1.01158 14.2359 1.44806 14.959 2.20779C15.682 2.96751 16.0558 3.98417 15.9932 5.02098V9.97902C16.0558 11.0158 15.682 12.0325 14.959 12.7922C14.2359 13.5519 13.2267 13.9884 12.1664 14H4.81257C2.53502 14 1 12.1958 1 9.97902V5.02098C1 2.8042 2.53502 1 4.81257 1Z" stroke="#316EE8" stroke-width="1.5" stroke-linecap="round" stroke-linejoin="round" />
</symbol><symbol viewBox="0 0 25 25" fill="none" id="icon-plus">
<path d="M12.75 1.5V23" stroke="white" stroke-width="3" stroke-linecap="round" />
<path d="M23.5 12.25L2 12.25" stroke="white" stroke-width="3" stroke-linecap="round" />
</symbol><symbol viewBox="0 0 20 20" fill="none" id="icon-search">
<path d="M19.7555 18.6065L16.3182 15.2458L16.2376 15.1233C16.0878 14.9742 15.883 14.8902 15.6692 14.8902C15.4554 14.8902 15.2505 14.9742 15.1007 15.1233C12.1795 17.8033 7.67815 17.949 4.58201 15.4637C1.48586 12.9784 0.755668 8.63337 2.87568 5.31017C4.9957 1.98697 9.30807 0.716847 12.9528 2.34214C16.5976 3.96743 18.4438 7.98379 17.267 11.7276C17.1823 11.9981 17.2515 12.2922 17.4487 12.4992C17.6459 12.7062 17.9411 12.7946 18.223 12.7311C18.505 12.6676 18.7309 12.4619 18.8156 12.1914C20.2224 7.74864 18.0977 2.96755 13.8161 0.941058C9.53449 -1.08544 4.38084 0.250824 1.68905 4.08542C-1.00273 7.92001 -0.424821 13.1021 3.04893 16.2795C6.52268 19.4569 11.8498 19.6759 15.5841 16.7949L18.6277 19.7705C18.942 20.0765 19.4502 20.0765 19.7645 19.7705C20.0785 19.4602 20.0785 18.9606 19.7645 18.6503L19.7555 18.6065Z" fill="#316EE8" />
</symbol><symbol viewBox="0 0 10 18" fill="none" id="icon-small-arrow">
<path d="M1 17L9 9L0.999999 1" stroke="#316EE8" stroke-linecap="round" stroke-linejoin="round" />
</symbol><symbol viewBox="0 0 20 20" fill="none" id="icon-star">
<path d="M10 0L13.09 6.26L20 7.27L15 12.14L16.18 19.02L10 15.77L3.82 19.02L5 12.14L0 7.27L6.91 6.26L10 0Z" fill="#FFDD2C" />
</symbol><symbol viewBox="0 0 16 16" fill="none" id="icon-tel">
<path d="M14.9996 11.4819V13.5894C15.0028 14.3951 14.2784 15.0679 13.465 14.9945C6.44446 15 1 9.50499 1.00549 2.53159C0.932236 1.72251 1.60167 1.00082 2.40631 1.00007H4.51809C4.85971 0.996713 5.1909 1.11745 5.44992 1.33977C6.18634 1.97183 6.66001 4.11716 6.47776 4.96999C6.33547 5.63584 5.66427 6.10167 5.20794 6.5571C6.21002 8.31592 7.66919 9.7722 9.4315 10.7723C9.88783 10.3169 10.3546 9.647 11.0218 9.50499C11.8776 9.32283 14.0367 9.79717 14.6663 10.5387C14.8895 10.8016 15.0081 11.1373 14.9996 11.4819Z" stroke="white" stroke-width="1.5" stroke-linecap="round" stroke-linejoin="round" />
</symbol><symbol viewBox="0 0 30 30" fill="none" id="icon-vk">
<circle cx="14.6752" cy="14.6752" r="14.1752" stroke="white" />
<path d="M19.0147 14.9917C19.3029 15.1351 19.5819 15.3008 19.8498 15.4858C20.3333 15.82 20.7715 16.2059 21.1685 16.639C21.6976 17.2164 22.1318 17.8586 22.4732 18.5639C22.689 19.0099 22.8598 19.4728 22.9951 19.9492C23.0055 19.9858 23.002 19.9996 22.9583 19.9996C22.0451 19.9985 21.1317 19.9984 20.2185 20C20.17 20.0001 20.1615 19.9748 20.1501 19.9395C19.9498 19.3252 19.6628 18.7554 19.2701 18.2415C18.6739 17.4617 17.9234 16.8958 16.9809 16.5989C16.7166 16.5157 16.446 16.4628 16.1714 16.4288C16.1389 16.4248 16.129 16.435 16.1318 16.4655C16.1332 16.481 16.1321 16.4967 16.1321 16.5124C16.1321 17.6495 16.1321 18.7867 16.1321 19.9238C16.1321 19.9987 16.1321 19.9985 16.0562 19.9987C15.6913 20.0004 15.3266 19.9941 14.9627 19.9652C13.583 19.8551 12.2818 19.4907 11.0973 18.7554C10.5395 18.4091 10.0369 17.9943 9.58861 17.5137C8.71787 16.5805 8.11727 15.4889 7.70391 14.2881C7.48108 13.6407 7.3203 12.9776 7.20882 12.3021C7.13329 11.8438 7.07931 11.3834 7.04477 10.9203C7.02369 10.6379 7.01432 10.355 7.00039 10.0722C6.99769 10.0178 7.00788 9.99988 7.06749 10C7.93788 10.0022 8.80827 10.0019 9.67854 10.0006C9.72398 10.0005 9.74072 10.0072 9.74166 10.0592C9.74892 10.4653 9.7755 10.8703 9.82023 11.2742C9.9008 12.0022 10.0438 12.7165 10.2777 13.4114C10.4813 14.0159 10.7493 14.5891 11.1104 15.1163C11.5308 15.73 12.0451 16.2445 12.7003 16.6075C12.9358 16.7379 13.1829 16.8409 13.4433 16.9118C13.4949 16.9259 13.5063 16.916 13.506 16.8644C13.5045 16.4444 13.5052 16.0243 13.5052 15.6042C13.5052 13.7637 13.5052 11.9232 13.5053 10.0827C13.5053 9.98687 13.4961 10.002 13.5858 10.0019C14.4113 10.0014 15.2367 10.0022 16.0623 10.0004C16.1177 10.0002 16.1334 10.0122 16.1332 10.07C16.1314 11.3419 16.1318 12.614 16.1318 13.8859C16.1318 13.9599 16.1316 13.9577 16.2065 13.9464C16.7683 13.8604 17.2531 13.6046 17.6959 13.2619C18.3766 12.7353 18.893 12.0713 19.2986 11.3168C19.5168 10.9111 19.69 10.4869 19.8135 10.0428C19.8221 10.0121 19.8348 10.0007 19.8689 10.0008C20.7022 10.002 21.5355 10.0018 22.3688 10.0019C22.3802 10.0019 22.3917 10.004 22.4166 10.0064C21.9802 12.149 20.8042 13.7764 19.0147 14.9917Z" fill="#FEFEFF" />
</symbol><symbol viewBox="0 0 30 30" fill="none" id="icon-vk-color">
<circle cx="14.6752" cy="14.6752" r="14.6752" fill="#316EE8" />
<path d="M19.0147 14.9917C19.3029 15.1351 19.5819 15.3008 19.8498 15.4858C20.3333 15.82 20.7715 16.2059 21.1685 16.639C21.6976 17.2164 22.1318 17.8586 22.4732 18.5639C22.689 19.0099 22.8598 19.4728 22.9951 19.9492C23.0055 19.9858 23.002 19.9996 22.9583 19.9996C22.0451 19.9985 21.1317 19.9984 20.2185 20C20.17 20.0001 20.1615 19.9748 20.1501 19.9395C19.9498 19.3252 19.6628 18.7554 19.2701 18.2415C18.6739 17.4617 17.9234 16.8958 16.9809 16.5989C16.7166 16.5157 16.446 16.4628 16.1714 16.4288C16.1389 16.4248 16.129 16.435 16.1318 16.4655C16.1332 16.481 16.1321 16.4967 16.1321 16.5124C16.1321 17.6495 16.1321 18.7867 16.1321 19.9238C16.1321 19.9987 16.1321 19.9985 16.0562 19.9987C15.6913 20.0004 15.3266 19.9941 14.9627 19.9652C13.583 19.8551 12.2818 19.4907 11.0973 18.7554C10.5395 18.4091 10.0369 17.9943 9.58861 17.5137C8.71787 16.5805 8.11727 15.4889 7.70391 14.2881C7.48108 13.6407 7.3203 12.9776 7.20882 12.3021C7.13329 11.8438 7.07931 11.3834 7.04477 10.9203C7.02369 10.6379 7.01432 10.355 7.00039 10.0722C6.99769 10.0178 7.00788 9.99988 7.06749 10C7.93788 10.0022 8.80827 10.0019 9.67854 10.0006C9.72398 10.0005 9.74072 10.0072 9.74166 10.0592C9.74892 10.4653 9.7755 10.8703 9.82023 11.2742C9.9008 12.0022 10.0438 12.7165 10.2777 13.4114C10.4813 14.0159 10.7493 14.5891 11.1104 15.1163C11.5308 15.73 12.0451 16.2445 12.7003 16.6075C12.9358 16.7379 13.1829 16.8409 13.4433 16.9118C13.4949 16.9259 13.5063 16.916 13.506 16.8644C13.5045 16.4444 13.5052 16.0243 13.5052 15.6042C13.5052 13.7637 13.5052 11.9232 13.5053 10.0827C13.5053 9.98687 13.4961 10.002 13.5858 10.0019C14.4113 10.0014 15.2367 10.0022 16.0623 10.0004C16.1177 10.0002 16.1334 10.0122 16.1332 10.07C16.1314 11.3419 16.1318 12.614 16.1318 13.8859C16.1318 13.9599 16.1316 13.9577 16.2065 13.9464C16.7683 13.8604 17.2531 13.6046 17.6959 13.2619C18.3766 12.7353 18.893 12.0713 19.2986 11.3168C19.5168 10.9111 19.69 10.4869 19.8135 10.0428C19.8221 10.0121 19.8348 10.0007 19.8689 10.0008C20.7022 10.002 21.5355 10.0018 22.3688 10.0019C22.3802 10.0019 22.3917 10.004 22.4166 10.0064C21.9802 12.149 20.8042 13.7764 19.0147 14.9917Z" fill="#FEFEFF" />
</symbol><symbol viewBox="0 0 30 30" fill="none" id="icon-yt">
<path d="M29.0125 14.6752C29.0125 22.504 22.6661 28.8504 14.8373 28.8504C7.00857 28.8504 0.662109 22.504 0.662109 14.6752C0.662109 6.84646 7.00857 0.5 14.8373 0.5C22.6661 0.5 29.0125 6.84646 29.0125 14.6752Z" stroke="white" />
<path d="M15.0787 9.64699C14.1287 9.64699 13.4376 9.63073 12.747 9.65055C11.5275 9.68511 10.3068 9.71611 9.09206 9.84418C8.24889 9.93312 7.59712 10.4662 7.37702 11.2535C7.22763 11.7891 7.16437 12.338 7.12344 12.8889C7.04794 13.9094 7.06123 14.9319 7.08516 15.9529C7.1043 16.7447 7.17181 17.5355 7.36054 18.3121C7.55724 19.1222 8.27388 19.6939 9.13778 19.7732C10.1489 19.8662 11.1612 19.914 12.175 19.9546C13.848 20.0222 15.5216 20.0019 17.1941 19.9729C18.3132 19.9536 19.4333 19.8931 20.5487 19.7732C21.4338 19.6782 22.0973 19.1664 22.3121 18.3492C22.4514 17.8186 22.5168 17.2774 22.5556 16.7315C22.6311 15.6724 22.6008 14.6123 22.5885 13.5531C22.58 12.8249 22.5072 12.0971 22.3371 11.3826C22.1228 10.481 21.4663 9.92956 20.5067 9.8391C19.529 9.74711 18.5482 9.71459 17.5668 9.67342C16.6508 9.63429 15.7353 9.66935 15.0787 9.64699ZM12.8688 14.9594C12.8688 14.2362 12.8682 13.513 12.8688 12.7893C12.8688 12.557 12.8725 12.555 13.0952 12.6653C13.3722 12.8025 13.6476 12.9428 13.9246 13.0795C15.109 13.666 16.2935 14.2514 17.4774 14.8389C17.5333 14.8664 17.6162 14.8786 17.6162 14.9573C17.6162 15.0158 17.5503 15.0315 17.5046 15.0539C16.0208 15.7913 14.5359 16.5267 13.0538 17.2662C12.8921 17.347 12.8656 17.2967 12.8666 17.1473C12.8709 16.419 12.8688 15.6892 12.8688 14.9594Z" fill="#FBFBFB" />
</symbol><symbol viewBox="0 0 30 30" fill="none" id="icon-yt-color">
<circle cx="14.6752" cy="14.6752" r="14.6752" fill="#EA0C00" />
<path d="M15.0123 10.0064C14.0623 10.0064 13.3712 9.9901 12.6806 10.0099C11.461 10.0445 10.2404 10.0755 9.02565 10.2036C8.18249 10.2925 7.53071 10.8256 7.31062 11.6128C7.16123 12.1485 7.09796 12.6974 7.05703 13.2483C6.98154 14.2688 6.99483 15.2913 7.01875 16.3123C7.03789 17.1041 7.10541 17.8949 7.29414 18.6715C7.49084 19.4816 8.20747 20.0533 9.07137 20.1326C10.0825 20.2256 11.0948 20.2734 12.1086 20.314C13.7816 20.3816 15.4552 20.3613 17.1277 20.3323C18.2468 20.313 19.3669 20.2525 20.4823 20.1326C21.3674 20.0375 22.0309 19.5258 22.2457 18.7086C22.385 18.178 22.4504 17.6367 22.4892 17.0909C22.5647 16.0318 22.5344 14.9716 22.5221 13.9125C22.5136 13.1842 22.4408 12.4565 22.2707 11.7419C22.0564 10.8404 21.3999 10.2889 20.4403 10.1985C19.4626 10.1065 18.4817 10.074 17.5004 10.0328C16.5844 9.99366 15.6689 10.0287 15.0123 10.0064ZM12.8023 15.3188C12.8023 14.5956 12.8018 13.8724 12.8023 13.1487C12.8023 12.9164 12.8061 12.9144 13.0288 13.0247C13.3058 13.1619 13.5812 13.3022 13.8582 13.4389C15.0426 14.0253 16.2271 14.6108 17.411 15.1983C17.4669 15.2257 17.5498 15.2379 17.5498 15.3167C17.5498 15.3752 17.4839 15.3909 17.4382 15.4133C15.9544 16.1507 14.4695 16.8861 12.9874 17.6255C12.8257 17.7064 12.7992 17.656 12.8002 17.5066C12.8045 16.7784 12.8023 16.0486 12.8023 15.3188Z" fill="white" />
</symbol><symbol viewBox="0 0 28 28" fill="none" id="icon-zoom">
<path d="M27 27L20.7167 20.7167M12.5556 8.22222V16.8889M8.22222 12.5556H16.8889M24.1111 12.5556C24.1111 18.9375 18.9375 24.1111 12.5556 24.1111C6.1736 24.1111 1 18.9375 1 12.5556C1 6.1736 6.1736 1 12.5556 1C18.9375 1 24.1111 6.1736 24.1111 12.5556Z" stroke="white" stroke-width="2" stroke-linecap="round" stroke-linejoin="round" />
</symbol></defs><use id="icon-catalog-usage" xlink:href="#icon-catalog" class="sprite-symbol-usage" /><use id="icon-dialog-usage" xlink:href="#icon-dialog" class="sprite-symbol-usage" /><use id="icon-lg-arrow-usage" xlink:href="#icon-lg-arrow" class="sprite-symbol-usage" /><use id="icon-location-usage" xlink:href="#icon-location" class="sprite-symbol-usage" /><use id="icon-mail-usage" xlink:href="#icon-mail" class="sprite-symbol-usage" /><use id="icon-plus-usage" xlink:href="#icon-plus" class="sprite-symbol-usage" /><use id="icon-search-usage" xlink:href="#icon-search" class="sprite-symbol-usage" /><use id="icon-small-arrow-usage" xlink:href="#icon-small-arrow" class="sprite-symbol-usage" /><use id="icon-star-usage" xlink:href="#icon-star" class="sprite-symbol-usage" /><use id="icon-tel-usage" xlink:href="#icon-tel" class="sprite-symbol-usage" /><use id="icon-vk-usage" xlink:href="#icon-vk" class="sprite-symbol-usage" /><use id="icon-vk-color-usage" xlink:href="#icon-vk-color" class="sprite-symbol-usage" /><use id="icon-yt-usage" xlink:href="#icon-yt" class="sprite-symbol-usage" /><use id="icon-yt-color-usage" xlink:href="#icon-yt-color" class="sprite-symbol-usage" /><use id="icon-zoom-usage" xlink:href="#icon-zoom" class="sprite-symbol-usage" /></svg>